<svg xmlns="http://www.w3.org/2000/svg" xmlns:xlink="http://www.w3.org/1999/xlink" version="1.1" id="Camada_1" x="0px" y="0px" width="100px" height="100px" viewBox="0 0 100 100" enable-background="new 0 0 100 100" xml:space="preserve">
<g>
	<path d="M50,11.173L50,11.173L50,11.173c-0.03,0-0.059,0.001-0.088,0.001l0,0C28.509,11.222,11.173,28.586,11.173,50   s17.336,38.778,38.739,38.826l0,0c0.03,0,0.059,0.001,0.088,0.001l0,0l0,0c21.444,0,38.827-17.383,38.827-38.827   S71.444,11.173,50,11.173z M23.622,76.378C16.576,69.332,12.696,59.964,12.696,50s3.88-19.332,10.926-26.378   c6.619-6.619,15.288-10.444,24.576-10.883C39.189,21.428,33.404,34.887,33.404,50s5.784,28.572,14.793,37.261   C38.91,86.822,30.241,82.997,23.622,76.378z"/>
</g>
</svg>