<svg xmlns="http://www.w3.org/2000/svg" xmlns:xlink="http://www.w3.org/1999/xlink" version="1.1" id="Layer_1" x="0px" y="0px" width="100.0px" height="100px" viewBox="0 0 283.46 283.46" enable-background="new 0 0 283.46 283.46" xml:space="preserve">
<path fill="#000000" d="M265.106,41.16c0,0-61.438,0-122.864,0c-61.948,0-123.89,0-123.89,0c-2.313,0-4.182,1.862-4.182,4.183  v192.748c0,2.327,1.869,4.183,4.182,4.183l59.589,0.026c1.111,0,2.176-0.444,2.96-1.229s1.222-1.843,1.222-2.954  c0-7.945-0.216-16.989-0.673-26.569h121.577c-0.458,9.58-0.667,18.624-0.667,26.569c0,2.301,1.856,4.183,4.183,4.183h58.563  c2.301,0,4.183-1.882,4.183-4.183V45.343C269.289,43.022,267.407,41.16,265.106,41.16z M181.737,49.524h36.699  c-1.229,8.084-1.634,24.473,10.861,37.574c-19.879-2.567-34.216-8.789-41.665-18.382C181.581,60.914,181.438,53.008,181.737,49.524z   M173.374,49.524c-0.053,0.607-0.065,1.262-0.065,1.993c0,5.392,1.242,13.887,7.58,22.14c7.92,10.351,21.604,17.102,40.357,20.466  c-5.737,1.079-11.605,1.732-17.343,1.732c-41.246,0-56.119-11.991-57.256-46.331H173.374z M109.883,49.524h27.942  c-1.137,34.34-16.01,46.331-57.25,46.331c-5.92,0-11.978-0.719-17.878-1.85c18.401-3.398,31.83-10.109,39.671-20.349  c6.326-8.253,7.58-16.748,7.58-22.14C109.949,50.786,109.923,50.132,109.883,49.524z M101.506,49.524  c0.313,3.483,0.156,11.39-5.881,19.192c-7.352,9.462-21.388,15.638-40.842,18.271c12.396-13.069,11.985-29.393,10.75-37.463H101.506  z M41.538,233.909c-8.652,0-16.33,0-19.002,0V49.524h34.581c1.412,7.038,3.268,27.204-17.813,38.928  c-1.084,0.195-2.091,0.705-2.731,1.62c-0.751,1.045-0.98,2.385-0.615,3.627C36.075,94.11,47.589,134.965,41.538,233.909z   M49.916,233.909c1.268-20.846,1.803-39.182,1.803-55.048c0-43.863-3.836-69.251-6.104-80.478  c16.611,9.867,27.576,73.839,28.047,135.552C70.447,233.936,60.364,233.936,49.916,233.909z M203.485,203.184H80.994  c-2.293-36.907-8.403-79.589-21.178-100.989c6.868,1.287,13.977,2.025,20.76,2.025c35.163,0,54.021-8.691,61.667-30.157  c7.62,21.466,26.492,30.157,61.661,30.157c6.771,0,13.88-0.738,20.755-2.025C211.876,123.595,205.772,166.276,203.485,203.184z   M235.988,233.936h-25.171c0.457-60.341,10.965-122.704,26.962-134.683c-1.634,10.41-4.078,31.89-4.078,68.226  C233.701,185.736,234.329,207.771,235.988,233.936z M260.925,233.936h-16.559c-6.43-100.918,2.888-140.021,2.979-140.413  c0.039-0.104,0-0.196,0.013-0.301c0.04-0.196,0.065-0.393,0.065-0.588c0-0.046,0.053-0.078,0.053-0.131  c0-0.262-0.026-0.536-0.078-0.811l-0.014-0.02v-0.02c-0.026-0.065-0.053-0.111-0.065-0.176c-0.053-0.177-0.144-0.36-0.222-0.543  c-0.104-0.287-0.235-0.549-0.405-0.811c-0.025-0.039-0.025-0.085-0.065-0.117c0-0.013-0.025-0.032-0.039-0.053  c-0.078-0.091-0.184-0.176-0.288-0.274c-0.248-0.261-0.51-0.47-0.81-0.666c-0.092-0.053-0.131-0.131-0.223-0.184  c-0.013,0-0.013-0.013-0.013-0.013c-0.014,0-0.026-0.02-0.026-0.02c-21.708-11.697-19.787-32.17-18.362-39.273h34.059V233.936z"/>
</svg>