<svg xmlns="http://www.w3.org/2000/svg" xmlns:xlink="http://www.w3.org/1999/xlink" version="1.0" id="Layer_1" x="0px" y="0px" width="24px" height="25.956px" viewBox="0 0 24 25.956" style="enable-background:new 0 0 24 25.956;" xml:space="preserve">
<g>
	<path d="M16.939,3.032L16.939,3.032c0.063,0.089,0.132,0.177,0.192,0.267c0.417,0.614,0.458,1.407,0.106,2.066   c-0.012,0.023-0.032,0.04-0.045,0.062C20.07,7.185,22,10.345,22,13.956c0,5.514-4.486,10-10,10c-5.514,0-10-4.486-10-10   c0-3.616,1.936-6.781,4.82-8.537c-0.011-0.02-0.028-0.034-0.039-0.054C6.43,4.706,6.471,3.914,6.89,3.296   c0.063-0.094,0.135-0.185,0.201-0.279C2.917,4.899,0,9.089,0,13.956c0,6.617,5.383,12,12,12c6.617,0,12-5.383,12-12   C24,9.101,21.097,4.92,16.939,3.032z"/>
	<path d="M8.552,4.926h1.776c0,0,0.314,7.359,0.443,7.539c0.188,0.266,0.729,0.447,1.239,0.447c0.511,0,1.124-0.181,1.313-0.447   c0.128-0.181,0.37-7.539,0.37-7.539h1.772c0.188,0,0.361-0.103,0.449-0.268c0.088-0.164,0.079-0.364-0.026-0.519   c-1.357-2.007-3.475-3.959-3.564-4.03C12.233,0.037,12.121,0,12.009,0c-0.111,0-0.222,0.036-0.315,0.109h0   c-0.09,0.071-2.207,2.023-3.564,4.03C8.026,4.294,8.016,4.494,8.104,4.658C8.193,4.823,8.365,4.926,8.552,4.926z"/>
</g>
</svg>