<svg xmlns="http://www.w3.org/2000/svg" xmlns:xlink="http://www.w3.org/1999/xlink" version="1.1" id="Camada_1" x="0px" y="0px" width="100px" height="100px" viewBox="0 0 100 100" enable-background="new 0 0 100 100" xml:space="preserve">
<g>
	<path d="M83.827,50c0-18.682-15.145-33.827-33.827-33.827c-9.905,0-18.815,4.257-25.001,11.041   c-0.602,0.66-1.177,1.345-1.726,2.052c-0.249,0.32-0.492,0.645-0.729,0.974c-0.42,0.582-0.821,1.178-1.204,1.787   c-0.596,0.949-1.146,1.929-1.648,2.938c-2.251,4.529-3.519,9.634-3.519,15.035c0,18.682,15.145,33.827,33.827,33.827   c0.026,0,0.051-0.001,0.077-0.001h0C68.724,83.784,83.827,68.656,83.827,50z M51.57,82.463C59.419,74.893,64.458,63.167,64.458,50   s-5.04-24.893-12.888-32.463c8.091,0.382,15.644,3.715,21.411,9.482C79.12,33.157,82.5,41.319,82.5,50s-3.381,16.843-9.519,22.981   C67.214,78.748,59.662,82.08,51.57,82.463z"/>
</g>
</svg>