<svg xmlns="http://www.w3.org/2000/svg" xmlns:xlink="http://www.w3.org/1999/xlink" version="1.1" id="Layer_1" x="0px" y="0px" width="100px" height="100px" viewBox="0 0 100 100" style="enable-background:new 0 0 100 100;" xml:space="preserve">
<g>
	<path d="M15.57,64.387c-8.354,0-15.125,6.771-15.125,15.125c0,8.353,6.771,15.124,15.125,15.124   c8.353,0,15.124-6.771,15.124-15.124C30.694,71.158,23.923,64.387,15.57,64.387z M15.57,87.789c-4.565,0-8.278-3.713-8.278-8.277   s3.713-8.278,8.278-8.278c4.564,0,8.277,3.714,8.277,8.278S20.135,87.789,15.57,87.789z"/>
	<path d="M50,64.387c-8.353,0-15.125,6.771-15.125,15.125c0,8.353,6.772,15.124,15.125,15.124c8.354,0,15.125-6.771,15.125-15.124   C65.125,71.158,58.354,64.387,50,64.387z M50,87.789c-4.564,0-8.278-3.713-8.278-8.277s3.714-8.278,8.278-8.278   c4.565,0,8.277,3.714,8.277,8.278S54.565,87.789,50,87.789z"/>
	<path d="M84.431,64.387c-8.354,0-15.125,6.771-15.125,15.125c0,8.353,6.771,15.124,15.125,15.124   c8.352,0,15.124-6.771,15.124-15.124C99.555,71.158,92.782,64.387,84.431,64.387z M84.431,87.789c-4.564,0-8.278-3.713-8.278-8.277   s3.714-8.278,8.278-8.278s8.277,3.714,8.277,8.278S88.995,87.789,84.431,87.789z"/>
	<path d="M32.785,34.875c-8.354,0-15.125,6.772-15.125,15.125c0,8.354,6.771,15.124,15.125,15.124S47.909,58.354,47.909,50   C47.909,41.647,41.139,34.875,32.785,34.875z M32.785,58.277c-4.564,0-8.278-3.713-8.278-8.277s3.714-8.278,8.278-8.278   s8.277,3.713,8.277,8.278S37.35,58.277,32.785,58.277z"/>
	<path d="M67.215,34.875c-8.353,0-15.125,6.772-15.125,15.125c0,8.354,6.772,15.124,15.125,15.124   c8.354,0,15.125-6.771,15.125-15.124C82.34,41.647,75.568,34.875,67.215,34.875z M67.215,58.277c-4.564,0-8.277-3.713-8.277-8.277   s3.713-8.278,8.277-8.278s8.278,3.713,8.278,8.278S71.779,58.277,67.215,58.277z"/>
	<path d="M50,5.364c-8.353,0-15.125,6.771-15.125,15.124S41.647,35.613,50,35.613c8.354,0,15.125-6.772,15.125-15.125   S58.354,5.364,50,5.364z M50,28.767c-4.564,0-8.278-3.714-8.278-8.279S45.436,12.21,50,12.21c4.565,0,8.277,3.713,8.277,8.278   S54.565,28.767,50,28.767z"/>
</g>
</svg>