<svg xmlns="http://www.w3.org/2000/svg" xmlns:xlink="http://www.w3.org/1999/xlink" version="1.1" x="0px" y="0px" width="100px" height="100px" viewBox="0 0 100 100" enable-background="new 0 0 100 100" xml:space="preserve">
<g id="Your_Icon" display="none">
	<path display="inline" d="M53.962,6c0,0-2.682,0-8.009,0c-3.911,0-9.239,0-16.02,0C13.914,6,14,22.019,14,22.019v32.039   c0,5.866,4,7.431,7,7.851v22.724v2.842V96h19v-8.526v-2.842V62h21.971C86,62,86,38.005,86,38.005C86,5.967,53.962,6,53.962,6z    M24,85V62c0,0,12.981-0.042,13-0.039C37,61.976,37,68,37,68h-7v3h7v6h-7v3h7v5H24z M61.971,59c0,0-22.971,0-24.971,0s-4-2-4-4   s0-32.97,0-32.97s-0.065-3.465,1.668-6.825C36.849,10.977,40.464,9,45.953,9h8.009c0.072,0,7.423-0.036,14.748,3.626   c9.587,4.793,14.448,13.331,14.448,25.452c0,0.053-0.031,5.265-2.704,10.611C76.99,55.618,70.771,59,61.971,59z"/>
</g>
<g id="Layer_2">
	<path d="M95.291,45.163c-0.004-0.099-0.008-0.203-0.029-0.303c-0.018-0.104-0.051-0.206-0.08-0.301   c-0.016-0.062-0.023-0.125-0.046-0.186l-11.168-29.92l0.443-0.055c1.542-0.191,2.636-1.597,2.444-3.137   c-0.197-1.544-1.608-2.64-3.145-2.443l-3.602,0.45c-0.006,0-0.011-0.001-0.017-0.001c-0.214,0.001-0.485,0.034-0.69,0.082   L53,12.639v-1.031c0-1.555-1.445-2.814-3.001-2.814c-1.555,0-2.999,1.26-2.999,2.814v1.735l-26.903,3.393   c-0.06,0.007,0.006,0.012-0.053,0.022l-3.891,0.495c-1.545,0.192-2.606,1.6-2.413,3.142c0.172,1.386,1.347,2.402,2.698,2.453   L5.477,52.825c-0.021,0.062-0.025,0.125-0.042,0.187c-0.029,0.097-0.056,0.193-0.073,0.293c-0.021,0.104-0.027,0.203-0.031,0.304   c-0.004,0.061-0.019,0.122-0.019,0.187c0,0.036,0.002,0.064,0.002,0.095c0.002,0.028,0.004,0.057,0.007,0.086   c0.104,8.448,6.99,15.286,15.46,15.286c8.472,0,15.368-6.85,15.461-15.296c0-0.032,0.002-0.062,0.002-0.094   c0-0.026,0.003-0.051,0.003-0.077c0-0.066-0.013-0.127-0.016-0.187c-0.008-0.104-0.01-0.208-0.032-0.312   c-0.016-0.102-0.046-0.193-0.077-0.291c-0.015-0.065-0.025-0.129-0.049-0.192L24.295,21.884L47,19.014v44.155v7.484   c0,0.669-0.326,14.08-22.25,14.08c-1.556,0-2.687,1.078-2.687,2.632C22.063,88.921,23.445,90,25,90h50.624c0.006,0,0.009,0,0.015,0   c0,0,0.005,0,0.01,0c0.002,0,0.004,0,0.006,0c0,0,0.001,0,0.008,0c0,0,0.002,0,0.005,0h0.002h0.004c1.53,0,2.765-0.963,2.765-2.502   c0-1.553-1.253-2.498-2.808-2.498h-0.004C75.402,85,53,84.521,53,70.667v-7.498V18.311l22.68-2.829L64.535,44.34   c-0.028,0.068-0.021,0.136-0.039,0.202c-0.03,0.1-0.057,0.194-0.076,0.299c-0.023,0.108-0.023,0.213-0.027,0.322   c-0.007,0.065-0.018,0.128-0.018,0.193c0,0.019,0.003,0.036,0.003,0.054c0,0.027,0.002,0.053,0.002,0.08   c0.074,8.467,6.979,15.338,15.464,15.338c8.476,0,15.369-6.854,15.461-15.306c0-0.029,0.002-0.058,0.003-0.084   c0-0.028,0.005-0.055,0.005-0.082C95.312,45.291,95.298,45.229,95.291,45.163z M12.148,51l8.542-23.338L29.387,51H12.148z    M71.294,43l8.733-22.555L88.448,43H71.294z"/>
</g>
<g id="Layer_3" display="none">
	<polygon display="inline" points="50.062,13.25 5.062,35.75 50.062,58.25 95.062,35.75  "/>
	<path display="inline" d="M27.562,50.75c0,0-7.5,7.5-7.5,15c0,0,22.5,0,30,7.5c0,0,7.5-7.5,30-7.5c0,0,0-7.5-7.5-15L49.785,61.86   L27.562,50.75z"/>
	<polygon display="inline" points="95.062,38.389 87.562,42.139 87.562,60.89 91.312,53.39 95.062,57.14  "/>
</g>
<g id="Layer_4" display="none">
	<path display="inline" d="M78.724,11L78.724,11H35v15.67C31,28.2,12.783,37,12.355,63H5v24h58.404h2.235H95V11H78.724z M7,85V65h8   v-0.977c0-28.285,20.483-35.499,21.356-35.792L37,28.012V13h42v50H63v22H7z"/>
	<rect x="42.664" y="19.984" display="inline" width="29.36" height="7.34"/>
	<circle display="inline" cx="36.257" cy="36.965" r="3.67"/>
	<circle display="inline" cx="50.936" cy="36.965" r="3.669"/>
	<circle display="inline" cx="65.616" cy="36.965" r="3.67"/>
	<circle display="inline" cx="30.286" cy="47.042" r="3.67"/>
	<circle display="inline" cx="44.965" cy="47.042" r="3.67"/>
	<circle display="inline" cx="59.645" cy="47.042" r="3.67"/>
	<circle display="inline" cx="24.314" cy="57.118" r="3.67"/>
	<circle display="inline" cx="38.994" cy="57.118" r="3.67"/>
	<circle display="inline" cx="53.674" cy="57.118" r="3.67"/>
</g>
</svg>