<svg xmlns="http://www.w3.org/2000/svg" xmlns:xlink="http://www.w3.org/1999/xlink" version="1.1" id="&#1057;&#1083;&#1086;&#1081;_1" x="0px" y="0px" viewBox="0 0 100 100" enable-background="new 0 0 100 100" xml:space="preserve" height="100px" width="100px">
<path d="M92.5,12.5h-5.2C86.4,8.1,83.6,5,80,5H20c-3.6,0-6.4,3.1-7.3,7.5H7.5C6.1,12.5,5,13.6,5,15s1.1,2.5,2.5,2.5h5v75  c0,1.4,1.1,2.5,2.5,2.5h60c1.4,0,2.5-1.1,2.5-2.5v-15H85c1.4,0,2.5-1.1,2.5-2.5V17.5h5c1.4,0,2.5-1.1,2.5-2.5S93.9,12.5,92.5,12.5z   M72.5,90h-55v-7c2.1,0,3,0.7,4.3,1.6c1.6,1.1,3.5,2.4,7.2,2.4c3.7,0,5.6-1.4,7.2-2.4c1.3-0.9,2.2-1.6,4.3-1.6c2.1,0,3,0.7,4.3,1.6  c1.6,1.1,3.5,2.4,7.2,2.4c3.7,0,5.6-1.4,7.2-2.4c1.3-0.9,2.2-1.6,4.3-1.6s3,0.7,4.3,1.6c1.2,0.8,2.5,1.8,4.7,2.2V90z M72.5,81.5  c-0.6-0.3-1.2-0.7-1.8-1.1c-1.6-1.1-3.5-2.4-7.2-2.4s-5.6,1.4-7.2,2.4C55,81.3,54.1,82,52,82c-2.1,0-3-0.7-4.3-1.6  c-1.6-1.1-3.5-2.4-7.2-2.4c-3.7,0-5.6,1.4-7.2,2.4C32,81.3,31.1,82,29,82c-2.1,0-3-0.7-4.3-1.6c-1.6-1.1-3.5-2.4-7.2-2.4v-5  c2.1,0,3,0.7,4.3,1.6c1.6,1.1,3.5,2.4,7.2,2.4c3.7,0,5.6-1.4,7.2-2.4c1.3-0.9,2.2-1.6,4.3-1.6c2.1,0,3,0.7,4.3,1.6  c1.6,1.1,3.5,2.4,7.2,2.4c3.7,0,5.6-1.4,7.2-2.4c1.3-0.9,2.2-1.6,4.3-1.6s3,0.7,4.3,1.6c1.2,0.8,2.5,1.8,4.7,2.2V81.5z M72.5,15  v56.5c-0.6-0.3-1.2-0.7-1.8-1.1c-1.6-1.1-3.5-2.4-7.2-2.4s-5.6,1.4-7.2,2.4C55,71.3,54.1,72,52,72c-2.1,0-3-0.7-4.3-1.6  c-1.6-1.1-3.5-2.4-7.2-2.4c-3.7,0-5.6,1.4-7.2,2.4C32,71.3,31.1,72,29,72c-2.1,0-3-0.7-4.3-1.6c-1.6-1.1-3.5-2.4-7.2-2.4V15  c0-3.1,1.5-5,2.5-5h53.5C72.9,11.5,72.5,13.2,72.5,15z M80,10c0.7,0,1.6,0.9,2.1,2.5h-4.2C78.4,10.9,79.3,10,80,10z M82.5,72.5h-5  v-55h5V72.5z"/>
</svg>