<svg xmlns="http://www.w3.org/2000/svg" xmlns:xlink="http://www.w3.org/1999/xlink" version="1.1" id="Layer_1" x="0px" y="0px" viewBox="0 0 100 100" enable-background="new 0 0 100 100" xml:space="preserve" height="100px" width="100px">
<g>
	<path d="M81.2,24.8C70.1,13.7,52.5,13.1,40.7,23c8.5-6.8,20.9-6.3,28.8,1.5c8.4,8.4,8.4,22.1,0,30.5c-0.1,0.1-0.1,0.1-0.2,0.2   L63.2,49l-0.1,24.1L87.2,73l-5.9-5.9C92.9,55.4,92.9,36.5,81.2,24.8z"/>
	<path d="M30.4,75.5C22,67,22,53.4,30.4,44.9c0.1-0.1,0.1-0.1,0.2-0.2l6.2,6.2l0.1-24.1L12.8,27l5.9,5.9   C7.1,44.6,7.1,63.5,18.8,75.2C29.9,86.3,47.5,86.9,59.3,77C50.8,83.9,38.3,83.4,30.4,75.5z"/>
</g>
</svg>