<svg xmlns="http://www.w3.org/2000/svg" xmlns:xlink="http://www.w3.org/1999/xlink" version="1.1" id="Ebene_1" x="0px" y="0px" width="100px" height="100px" viewBox="0 0 100 100" enable-background="new 0 0 100 100" xml:space="preserve">
<path d="M27.1,48l-2-1.8C14.7,36.8,5,27,5,18.3C5,12.2,8.3,5,17.4,5c3.9,0,7.5,2.6,9.7,4.7C29.3,7.6,32.8,5,36.8,5  c9.1,0,12.4,7.2,12.4,13.3c0,8.7-9.6,18.5-20.1,27.9L27.1,48z M17.4,11c-4.2,0-6.4,2.5-6.4,7.3c0,5.9,8.7,14.8,16.1,21.6  c7.4-6.8,16.1-15.7,16.1-21.6c0-4.9-2.2-7.3-6.4-7.3c-2.8,0-6.3,3.7-7.3,5l-2.4,3.1L24.7,16C23.7,14.7,20.2,11,17.4,11z"/>
<path d="M72.9,95l-2-1.8C60.5,83.8,50.8,74,50.8,65.3c0-6.1,3.2-13.3,12.4-13.3c3.9,0,7.5,2.6,9.7,4.7c2.2-2.1,5.8-4.7,9.7-4.7  C91.7,52,95,59.2,95,65.3c0,8.7-9.6,18.5-20.1,27.9L72.9,95z M63.2,58c-4.2,0-6.4,2.5-6.4,7.3c0,5.9,8.7,14.8,16.1,21.6  C80.3,80.1,89,71.2,89,65.3c0-4.9-2.2-7.3-6.4-7.3c-2.8,0-6.3,3.7-7.3,5l-2.4,3.1L70.5,63C69.5,61.7,66,58,63.2,58z"/>
<path d="M21.8,94.9c-0.5,0-1-0.1-1.5-0.4c-1.4-0.8-1.9-2.7-1.1-4.1L67.6,6.6c0.8-1.4,2.7-1.9,4.1-1.1c1.4,0.8,1.9,2.7,1.1,4.1  L24.4,93.4C23.8,94.4,22.8,94.9,21.8,94.9z"/>
</svg>