<?xml version="1.0" encoding="utf-8"?>
<!-- Generator: Adobe Illustrator 16.0.0, SVG Export Plug-In . SVG Version: 6.00 Build 0)  -->
<!DOCTYPE svg PUBLIC "-//W3C//DTD SVG 1.1//EN" "http://www.w3.org/Graphics/SVG/1.1/DTD/svg11.dtd">
<svg version="1.1"
	 id="svg2" inkscape:version="0.48.3.1 r9886" sodipodi:docname="circle5.svg" xmlns:dc="http://purl.org/dc/elements/1.1/" xmlns:inkscape="http://www.inkscape.org/namespaces/inkscape" xmlns:rdf="http://www.w3.org/1999/02/22-rdf-syntax-ns#" xmlns:cc="http://creativecommons.org/ns#" xmlns:svg="http://www.w3.org/2000/svg" xmlns:sodipodi="http://sodipodi.sourceforge.net/DTD/sodipodi-0.dtd"
	 xmlns="http://www.w3.org/2000/svg" xmlns:xlink="http://www.w3.org/1999/xlink" x="0px" y="0px" width="100px" height="100px"
	 viewBox="0 0 100 100" enable-background="new 0 0 100 100" xml:space="preserve">
<path id="path2985" d="M50,0C22.386,0,0,22.386,0,50s22.386,50,50,50s50-22.386,50-50S77.614,0,50,0z M50,14.156
	c19.799,0,35.844,16.044,35.844,35.844c0,19.799-16.045,35.844-35.844,35.844c-19.799,0-35.844-16.045-35.844-35.844
	C14.156,30.201,30.201,14.156,50,14.156z M50,20.125c-16.505,0-29.875,13.37-29.875,29.875S33.495,79.875,50,79.875
	S79.875,66.505,79.875,50S66.505,20.125,50,20.125z M50,29.75c11.178,0,20.25,9.072,20.25,20.25S61.178,70.25,50,70.25
	S29.75,61.178,29.75,50S38.822,29.75,50,29.75z"/>
</svg>
