<svg xmlns="http://www.w3.org/2000/svg" xmlns:xlink="http://www.w3.org/1999/xlink" version="1.1" id="Layer_1" x="0px" y="0px" width="100px" height="100px" viewBox="0 0 100 100" enable-background="new 0 0 100 100" xml:space="preserve">
<path d="M86.541,6.272c-1.888-2.587-2.377-5.313-7.271-6.082c-4.893-0.769-6.081,0.979-8.108,1.957S65.64,6.761,65.22,8.369  c-0.419,1.607-0.979,9.088-2.097,13.562s-3.075,12.443-3.635,13.841c-0.56,1.398-1.049,3.006-4.404,3.845s-4.474,1.538-8.318,1.678  s-7.34,2.237-10.416,3.915c-3.076,1.677-4.683,2.726-7.13,4.159c-2.447,1.433-5.313,3.6-6.641,4.614s-0.979,1.503-3.565,1.643  s-5.173,0.489-6.222,0c-1.048-0.489-4.054-2.517-4.684-3.774c-0.629-1.259-0.769-0.14-0.489,0.769  c0.28,0.909-0.629,0.28-1.538-0.559s-0.56,1.118,0,2.166c0.559,1.049-0.28,1.049-1.188,0.07s-0.979,0.42-0.419,1.118  c0.559,0.699-0.209,0.993-0.699,0.462c-0.489-0.531-0.28,0.797,0.489,1.565c0.769,0.77-0.559,0.42-1.048,0  c-0.489-0.419,0.279,1.398,0.909,2.167c0.629,0.77-0.979,0.699-1.538,0c-0.559-0.698,0,1.817,1.258,2.727s3.775,2.237,4.614,3.146  c0.839,0.909,1.888,2.727,3.425,4.544c1.538,1.817,1.398,2.236,2.027,4.544c0.629,2.307,1.328,4.054,3.635,5.103  c2.307,1.049,5.243,1.398,5.313,2.167c0.07,0.77,0.35,2.447-0.489,4.334c-0.839,1.888-0.839,3.076-1.188,4.544  s-0.28,2.656,0.629,3.565c0.909,0.908,0.489,0.279,1.119,1.817s2.167,2.517,3.984,2.866c1.818,0.35,3.985,0.279,5.592,0.769  c1.608,0.489,1.258,0.279,2.307-0.419c1.048-0.699,3.915-1.188,5.312-1.259c1.398-0.069,0.14-1.048-1.468-1.397s-2.796,0-3.705-0.35  s-1.748-0.699-0.839-0.979c0.909-0.28,0.979-0.77-0.28-0.839c-1.258-0.07-2.307,0.559-3.845,0.14  c-1.538-0.42-3.565-1.259-3.984-1.748s0.559-0.489,0.489-2.167s-0.14-5.452,0.07-6.641c0.21-1.188,0.14-1.607,0.839-1.817  c0.699-0.21,1.329,0.629,3.985,1.188c2.656,0.559,5.592,0.489,7.549,0.629c1.958,0.14,2.377,1.538,4.509,0.769  c2.132-0.769,4.509-1.468,6.326-1.817s2.098-0.908,2.307,0.489c0.21,1.398,0.699,3.146,1.398,4.474  c0.699,1.329,0.839,3.355,0.979,4.823c0.14,1.469,0.56,1.818,0.14,3.216c-0.419,1.398-0.908,2.167-0.35,3.006  c0.56,0.839,1.888,1.328,2.167,0.56c0.28-0.769,4.404-0.769,7.061-0.279s2.587-0.07,3.915,0.279s3.075,0.629,2.307-0.279  c-0.77-0.909,2.377-1.328,3.984-1.259c1.607,0.07,2.727-0.279,1.118-0.979c-1.607-0.699-4.403-0.699-6.78-1.118  c-2.377-0.42,0.93,0.051,1.279-0.718c0.35-0.77-1.96-0.523-3.395-0.532c-2.349-0.015-5.295-0.218-5.924-0.707  c-0.629-0.49-0.699-2.377-1.328-3.636c-0.629-1.258-1.188-2.236-1.538-3.845c-0.35-1.607-1.118-3.705,0.14-4.963  c1.259-1.258,3.984-2.937,6.501-4.684c2.517-1.748,2.656-4.474,6.921-7.55c4.264-3.075,7.55-5.522,8.318-11.324  s-0.909-9.648-1.888-13.212c-0.979-3.565-2.796-11.115-2.446-14.051c0.35-2.937,1.607-9.786,2.656-10.835s2.097-1.678,3.845-1.608  c1.748,0.07,1.678-0.629,3.426,0.489c1.747,1.119,4.264,2.866,5.802,3.705s3.425,2.447,2.446-0.489  c-0.979-2.936-4.054-4.684-5.033-5.242c0,0-1.537-0.909-2.517-1.817c-0.979-0.909-1.887-2.308-0.839-1.958  c1.049,0.35,5.732,1.958,7.271,2.167c1.538,0.21,3.914,0.42,4.823,0.63c0.909,0.209,1.747-0.63,0.35-1.818  c-1.398-1.188-5.592-3.845-6.99-4.753C88.498,8.298,86.541,6.272,86.541,6.272z"/>
</svg>