<?xml version="1.0" standalone="no"?>
<!DOCTYPE svg PUBLIC "-//W3C//DTD SVG 1.1//EN" "http://www.w3.org/Graphics/SVG/1.1/DTD/svg11.dtd" >
<!--
2018-8-22: Created with FontForge (http://fontforge.org)
-->
<svg xmlns="http://www.w3.org/2000/svg" xmlns:xlink="http://www.w3.org/1999/xlink" version="1.1">
<metadata>
Created by FontForge 20170924 at Wed Aug 22 01:34:52 2018
 By root

</metadata>
<defs>
<font id="cosmic_spider" horiz-adv-x="512" >
  <font-face 
    font-family="cosmic_spider"
    font-weight="400"
    font-stretch="normal"
    units-per-em="512"
    panose-1="2 0 5 3 0 0 0 0 0 0"
    ascent="448"
    descent="-64"
    bbox="30.1654 -34.0142 482.454 417.403"
    underline-thickness="25.6"
    underline-position="-51.2"
    unicode-range="U+0020-F143"
  />
    <missing-glyph />
    <glyph glyph-name="space" unicode=" " horiz-adv-x="200" 
 />
    <glyph glyph-name="coschar_111010" unicode="&#xf13d;" 
d="M52.7998 388.8c28.7998 12.7998 371.2 12.7998 401.601 1.60059c35.1992 -14.4004 38.3994 -364.801 3.19922 -400c-33.5996 -32 -369.6 -32 -403.199 0c-30.4004 30.3994 -33.6006 387.199 -1.60059 398.399zM315.2 292.8l60.7998 59.2002h-120h-120l60.7998 -59.2002
l59.2002 -60.7998zM155.2 132.8l60.7998 59.2002l-60.7998 59.2002l-59.2002 60.7998v-120v-120zM416 188.8c0 62.4004 -1.59961 115.2 -4.7998 115.2s-28.7998 -25.5996 -59.2002 -56l-54.4004 -56l59.2002 -60.7998l59.2002 -59.2002v116.8zM328 80
c-33.5996 35.2002 -67.2002 64 -72 64s-38.4004 -28.7998 -72 -64l-62.4004 -64h134.4h134.4z" />
    <glyph glyph-name="coschar_101011" unicode="&#xf12d;" 
d="M52.7998 388.8c9.60059 4.7998 22.4004 9.60059 27.2002 9.60059c3.2002 1.59961 38.4004 -28.8008 75.2002 -65.6006l68.7998 -67.2002v59.2002c0 48 6.40039 59.2002 32 59.2002s32 -11.2002 32 -59.2002v-59.2002l72 70.4004c56 56 76.7998 65.5996 91.2002 51.2002
c16 -16 0 -38.4004 -67.2002 -107.2l-86.4004 -88l83.2002 -84.7998c123.2 -124.8 112 -139.2 -120 -139.2c-137.6 0 -188.8 6.40039 -206.399 22.4004c-30.4004 30.3994 -33.6006 387.199 -1.60059 398.399zM155.2 132.8l60.7998 59.2002l-60.7998 59.2002
l-59.2002 60.7998v-120v-120zM224 64c0 27.2002 -1.59961 48 -4.7998 48s-25.6006 -20.7998 -51.2002 -48l-46.4004 -48h51.2002c46.4004 0 51.2002 4.7998 51.2002 48zM344 64c-25.5996 27.2002 -48 48 -51.2002 48s-4.7998 -20.7998 -4.7998 -48
c0 -43.2002 4.7998 -48 51.2002 -48h51.2002z" />
    <glyph glyph-name="coschar_001010" unicode="&#xf10a;" 
d="M54.4004 382.4c17.5996 27.1992 27.1992 22.3994 116.8 -65.6006l84.7998 -83.2002l88 86.4004c68.7998 68.7998 91.2002 83.2002 107.2 67.2002s1.59961 -38.4004 -67.2002 -107.2l-86.4004 -88l83.2002 -84.7998c65.6006 -67.2002 80 -88 64 -104
s-36.7998 -1.60059 -104 64l-84.7998 83.2002l-84.7998 -83.2002c-67.2002 -65.6006 -88 -80 -104 -64s-1.60059 36.7998 64 104l83.2002 84.7998l-84.8008 86.4004c-46.3994 48 -80 94.3994 -75.1992 104z" />
    <glyph glyph-name="coschar_001011" unicode="&#xf10b;" 
d="M54.4004 382.4c17.5996 27.1992 27.1992 22.3994 100.8 -49.6006l68.7998 -67.2002v59.2002c0 48 6.40039 59.2002 32 59.2002s32 -11.2002 32 -59.2002v-59.2002l72 70.4004c56 56 76.7998 65.5996 91.2002 51.2002c16 -16 0 -38.4004 -67.2002 -107.2l-86.4004 -88
l83.2002 -84.7998c65.6006 -65.6006 80 -88 64 -104s-33.5996 -4.7998 -88 48l-68.7998 67.2002v-59.2002c0 -48 -6.40039 -59.2002 -32 -59.2002s-32 11.2002 -32 59.2002v59.2002l-68.7998 -67.2002c-54.4004 -52.7998 -72 -64 -88 -48s-1.60059 38.3994 64 104
l83.2002 84.7998l-84.8008 86.4004c-46.3994 48 -80 94.3994 -75.1992 104z" />
    <glyph glyph-name="coschar_111111" unicode="&#xf142;" 
d="M52.7998 388.8c28.7998 12.7998 371.2 12.7998 401.601 1.60059c35.1992 -14.4004 38.3994 -364.801 3.19922 -400c-33.5996 -32 -369.6 -32 -403.199 0c-30.4004 30.3994 -33.6006 387.199 -1.60059 398.399zM224 312c0 32 -8 40 -43.2002 40h-41.5996l36.7998 -40
c20.7998 -22.4004 40 -40 43.2002 -40s4.7998 17.5996 4.7998 40zM368 347.2c0 3.2002 -17.5996 4.7998 -40 4.7998c-32 0 -40 -8 -40 -43.2002v-41.5996l40 36.7998c22.4004 20.7998 40 40 40 43.2002zM152 256c-25.5996 27.2002 -48 48 -51.2002 48
s-4.7998 -20.7998 -4.7998 -48c0 -43.2002 4.7998 -48 51.2002 -48h51.2002zM416 256c0 27.2002 -1.59961 48 -4.7998 48s-25.6006 -20.7998 -51.2002 -48l-46.4004 -48h51.2002c46.4004 0 51.2002 4.7998 51.2002 48zM176 155.2c0 3.2002 -17.5996 4.7998 -40 4.7998
c-32 0 -40 -8 -40 -43.2002v-41.5996l40 36.7998c22.4004 20.7998 40 40 40 43.2002zM416 120c0 32 -8 40 -43.2002 40h-41.5996l36.7998 -40c20.7998 -22.4004 40 -40 43.2002 -40s4.7998 17.5996 4.7998 40zM224 64c0 27.2002 -1.59961 48 -4.7998 48
s-25.6006 -20.7998 -51.2002 -48l-46.4004 -48h51.2002c46.4004 0 51.2002 4.7998 51.2002 48zM344 64c-25.5996 27.2002 -48 48 -51.2002 48s-4.7998 -20.7998 -4.7998 -48c0 -43.2002 4.7998 -48 51.2002 -48h51.2002z" />
    <glyph glyph-name="coschar_111110" unicode="&#xf141;" 
d="M52.7998 388.8c28.7998 12.7998 371.2 12.7998 401.601 1.60059c35.1992 -14.4004 38.3994 -364.801 3.19922 -400c-33.5996 -32 -369.6 -32 -403.199 0c-30.4004 30.3994 -33.6006 387.199 -1.60059 398.399zM315.2 292.8l60.7998 59.2002h-120h-120l60.7998 -59.2002
l59.2002 -60.7998zM152 256c-25.5996 27.2002 -48 48 -51.2002 48s-4.7998 -20.7998 -4.7998 -48c0 -43.2002 4.7998 -48 51.2002 -48h51.2002zM416 256c0 27.2002 -1.59961 48 -4.7998 48s-25.6006 -20.7998 -51.2002 -48l-46.4004 -48h51.2002
c46.4004 0 51.2002 4.7998 51.2002 48zM176 155.2c0 3.2002 -17.5996 4.7998 -40 4.7998c-32 0 -40 -8 -40 -43.2002v-41.5996l40 36.7998c22.4004 20.7998 40 40 40 43.2002zM416 120c0 32 -8 40 -43.2002 40h-41.5996l36.7998 -40c20.7998 -22.4004 40 -40 43.2002 -40
s4.7998 17.5996 4.7998 40zM328 80c-33.5996 35.2002 -67.2002 64 -72 64s-38.4004 -28.7998 -72 -64l-62.4004 -64h134.4h134.4z" />
    <glyph glyph-name="coschar_00____" unicode="&#xf110;" 
d="M1.59961 -62.4004z" />
    <glyph glyph-name="coschar_001110" unicode="&#xf10e;" 
d="M54.4004 382.4c17.5996 27.1992 27.1992 22.3994 116.8 -65.6006l84.7998 -83.2002l88 86.4004c68.7998 67.2002 91.2002 83.2002 107.2 67.2002s3.2002 -36.7998 -59.2002 -99.2002l-78.4004 -80h67.2002c49.6006 0 67.2002 -6.40039 67.2002 -24
s-17.5996 -24 -59.2002 -24h-59.2002l67.2002 -68.7998c52.7998 -54.4004 64 -72 48 -88s-38.3994 -1.60059 -104 64l-84.7998 83.2002l-84.7998 -83.2002c-65.6006 -65.6006 -88 -80 -104 -64s-4.7998 33.5996 48 88l67.2002 68.7998h-59.2002
c-41.6006 0 -59.2002 6.40039 -59.2002 24s17.5996 24 67.2002 24h67.2002l-76.8008 78.4004c-43.1992 43.1992 -72 86.3994 -67.1992 96z" />
    <glyph glyph-name="coschar_110010" unicode="&#xf135;" 
d="M52.7998 388.8c28.7998 12.7998 371.2 12.7998 401.601 1.60059c35.1992 -14.4004 38.3994 -364.801 3.19922 -400c-33.5996 -32 -369.6 -32 -403.199 0c-30.4004 30.3994 -33.6006 387.199 -1.60059 398.399zM416 216v136h-139.2h-140.8l136 -136
c75.2002 -75.2002 137.6 -136 139.2 -136c3.2002 0 4.7998 60.7998 4.7998 136zM248 160c-78.4004 80 -145.6 144 -147.2 144c-3.2002 0 -4.7998 -64 -4.7998 -144v-144h147.2h148.8z" />
    <glyph glyph-name="coschar_101000" unicode="&#xf12a;" 
d="M259.2 236.8c91.2002 89.6006 169.6 163.2 176 163.2c49.5996 0 9.59961 -57.5996 -140.8 -209.6l-174.4 -174.4h164.8c134.4 0 163.2 -4.7998 163.2 -24c0 -33.5996 -358.4 -35.2002 -393.6 -1.59961c-16 17.5996 -22.4004 68.7998 -22.4004 208
c0 174.399 1.59961 185.6 32 185.6s32 -11.2002 32 -155.2v-156.8z" />
    <glyph glyph-name="coschar_110101" unicode="&#xf138;" 
d="M52.7998 392c28.7998 33.5996 371.2 33.5996 404.8 1.59961c32 -33.5996 32 -369.6 0 -403.199c-33.5996 -32 -369.6 -32 -403.199 0c-30.4004 30.3994 -32 368 -1.60059 401.6zM224 288v64h-64h-64v-64v-64h64h64v64zM416 288v64h-64h-64v-64v-64h64h64v64zM224 96v64
h-64h-64v-64v-64h64h64v64zM416 96v64h-64h-64v-64v-64h64h64v64z" />
    <glyph glyph-name="coschar_110000" unicode="&#xf133;" 
d="M52.7998 388.8c28.7998 12.7998 371.2 12.7998 401.601 1.60059c35.1992 -14.4004 38.3994 -364.801 3.19922 -400c-33.5996 -32 -369.6 -32 -403.199 0c-30.4004 30.3994 -33.6006 387.199 -1.60059 398.399zM176 347.2c0 3.2002 -17.5996 4.7998 -40 4.7998
c-32 0 -40 -8 -40 -43.2002v-41.5996l40 36.7998c22.4004 20.7998 40 40 40 43.2002zM416 312c0 32 -8 40 -43.2002 40h-41.5996l36.7998 -40c20.7998 -22.4004 40 -40 43.2002 -40s4.7998 17.5996 4.7998 40zM336 264c-38.4004 40 -75.2002 72 -80 72s-41.5996 -32 -80 -72
l-70.4004 -72l75.2002 -76.7998l75.2002 -75.2002l75.2002 75.2002l75.2002 76.7998zM152 64c-25.5996 27.2002 -48 48 -51.2002 48s-4.7998 -20.7998 -4.7998 -48c0 -43.2002 4.7998 -48 51.2002 -48h51.2002zM416 64c0 27.2002 -1.59961 48 -4.7998 48
s-25.6006 -20.7998 -51.2002 -48l-46.4004 -48h51.2002c46.4004 0 51.2002 4.7998 51.2002 48z" />
    <glyph glyph-name="coschar_101001" unicode="&#xf12b;" 
d="M355.2 332.8c72 72 84.7998 76.7998 102.399 49.6006c4.80078 -9.60059 -30.3994 -57.6006 -80 -108.801c-86.3994 -86.3994 -89.5996 -94.3994 -89.5996 -174.399v-83.2002h80c60.7998 0 80 -6.40039 80 -24c0 -33.5996 -358.4 -35.2002 -393.6 -1.59961
c-16 17.5996 -22.4004 68.7998 -22.4004 208c0 174.399 1.59961 185.6 32 185.6s32 -11.2002 32 -155.2v-155.2l64 62.4004c60.7998 59.2002 64 68.7998 64 155.2c0 81.5996 3.2002 92.7998 32 92.7998c25.5996 0 32 -11.2002 32 -59.2002v-60.7998zM224 64
c0 27.2002 -1.59961 48 -4.7998 48s-25.6006 -20.7998 -51.2002 -48l-46.4004 -48h51.2002c46.4004 0 51.2002 4.7998 51.2002 48z" />
    <glyph glyph-name="coschar_010101" unicode="&#xf116;" 
d="M64 384c0 30.4004 11.2002 32 185.6 32c139.2 0 190.4 -6.40039 208 -22.4004c16 -17.5996 22.4004 -68.7998 22.4004 -208c0 -174.399 -1.59961 -185.6 -32 -185.6c-27.2002 0 -32 11.2002 -32 80v80h-64h-64v-80c0 -68.7998 -4.7998 -80 -32 -80s-32 11.2002 -32 80v80
h-80c-68.7998 0 -80 4.7998 -80 32s11.2002 32 80 32h80v64v64h-80c-68.7998 0 -80 4.7998 -80 32zM416 288v64h-64h-64v-64v-64h64h64v64z" />
    <glyph glyph-name="coschar_110001" unicode="&#xf134;" 
d="M52.7998 392c28.7998 33.5996 371.2 33.5996 404.8 1.59961c32 -33.5996 32 -369.6 0 -403.199c-33.5996 -32 -369.6 -32 -403.199 0c-30.4004 30.3994 -32 368 -1.60059 401.6zM224 192v160h-64h-64v-160v-160h64h64v160zM416 192v160h-64h-64v-160v-160h64h64v160z" />
    <glyph glyph-name="coschar_011000" unicode="&#xf119;" 
d="M64 376c0 19.2002 30.4004 24 182.4 24c100.8 0 193.6 -4.7998 208 -9.59961c20.7998 -8 25.5996 -41.6006 25.5996 -200c0 -179.2 -1.59961 -190.4 -32 -190.4s-32 11.2002 -32 155.2v156.8l-164.8 -164.8c-129.601 -129.601 -168 -160 -184 -144
s14.3994 54.3994 144 184l164.8 164.8h-156.8c-128 0 -155.2 4.7998 -155.2 24z" />
    <glyph glyph-name="coschar_001111" unicode="&#xf10f;" 
d="M54.4004 382.4c17.5996 27.1992 27.1992 22.3994 100.8 -49.6006l68.7998 -67.2002v59.2002c0 48 6.40039 59.2002 32 59.2002s32 -11.2002 32 -59.2002v-59.2002l72 70.4004c56 54.4004 76.7998 65.5996 91.2002 51.2002
c14.3994 -14.4004 1.59961 -36.7998 -59.2002 -99.2002l-78.4004 -80h67.2002c49.6006 0 67.2002 -6.40039 67.2002 -24s-17.5996 -24 -59.2002 -24h-59.2002l67.2002 -68.7998c52.7998 -54.4004 62.4004 -73.6006 48 -88c-14.3994 -14.4004 -33.5996 -4.7998 -88 48
l-68.7998 67.2002v-59.2002c0 -48 -6.40039 -59.2002 -32 -59.2002s-32 11.2002 -32 59.2002v59.2002l-68.7998 -67.2002c-54.4004 -52.7998 -73.6006 -62.4004 -88 -48c-14.4004 14.3994 -4.7998 33.5996 48 88l67.2002 68.7998h-59.2002
c-41.6006 0 -59.2002 6.40039 -59.2002 24s17.5996 24 67.2002 24h67.2002l-76.8008 78.4004c-43.1992 43.1992 -72 86.3994 -67.1992 96z" />
    <glyph glyph-name="coschar_100001" unicode="&#xf123;" 
d="M32 198.4c0 174.399 1.59961 185.6 32 185.6s32 -11.2002 32 -176v-176h64h64v176c0 164.8 1.59961 176 32 176s32 -11.2002 32 -176v-176h80c68.7998 0 80 -4.7998 80 -32c0 -30.4004 -11.2002 -32 -185.6 -32c-139.2 0 -190.4 6.40039 -208 22.4004
c-16 17.5996 -22.4004 68.7998 -22.4004 208z" />
    <glyph glyph-name="coschar_100000" unicode="&#xf122;" 
d="M163.2 332.8c38.3994 36.7998 78.3994 67.2002 92.7998 67.2002c30.4004 0 208 -176 208 -206.4c0 -14.3994 -33.5996 -59.1992 -75.2002 -100.8l-75.2002 -76.7998h67.2002c49.6006 0 67.2002 -6.40039 67.2002 -24c0 -33.5996 -358.4 -35.2002 -393.6 -1.59961
c-16 17.5996 -22.4004 68.7998 -22.4004 208c0 174.399 1.59961 185.6 32 185.6c25.5996 0 32 -11.2002 32 -59.2002v-60.7998zM336 264c-38.4004 40 -75.2002 72 -80 72s-41.5996 -32 -80 -72l-70.4004 -72l75.2002 -76.7998l75.2002 -75.2002l75.2002 75.2002
l75.2002 76.7998zM152 64c-25.5996 27.2002 -48 48 -51.2002 48s-4.7998 -20.7998 -4.7998 -48c0 -43.2002 4.7998 -48 51.2002 -48h51.2002z" />
    <glyph glyph-name="coschar_010001" unicode="&#xf112;" 
d="M64 384c0 30.4004 11.2002 32 185.6 32c139.2 0 190.4 -6.40039 208 -22.4004c16 -17.5996 22.4004 -68.7998 22.4004 -208c0 -174.399 -1.59961 -185.6 -32 -185.6s-32 11.2002 -32 176v176h-64h-64v-176c0 -164.8 -1.59961 -176 -32 -176s-32 11.2002 -32 176v176h-80
c-68.7998 0 -80 4.7998 -80 32z" />
    <glyph glyph-name="coschar_010000" unicode="&#xf111;" 
d="M64 376c0 19.2002 30.4004 24 182.4 24c100.8 0 193.6 -4.7998 208 -9.59961c20.7998 -8 25.5996 -41.6006 25.5996 -200c0 -179.2 -1.59961 -190.4 -32 -190.4c-25.5996 0 -32 11.2002 -32 59.2002v59.2002l-64 -62.4004c-36.7998 -35.2002 -76.7998 -64 -92.7998 -64
c-33.6006 -1.59961 -211.2 166.4 -211.2 198.4c0 14.3994 30.4004 56 67.2002 92.7998l67.2002 68.7998h-59.2002c-41.6006 0 -59.2002 6.40039 -59.2002 24zM416 312c0 32 -8 40 -43.2002 40h-41.5996l36.7998 -40c20.7998 -22.4004 40 -40 43.2002 -40
s4.7998 17.5996 4.7998 40zM336 264c-38.4004 40 -75.2002 72 -80 72s-41.5996 -32 -80 -72l-70.4004 -72l75.2002 -76.7998l75.2002 -75.2002l75.2002 75.2002l75.2002 76.7998z" />
    <glyph glyph-name="coschar_000101" unicode="&#xf105;" 
d="M224 304c0 68.7998 4.7998 80 32 80s32 -11.2002 32 -80v-80h80c68.7998 0 80 -4.7998 80 -32s-11.2002 -32 -80 -32h-80v-80c0 -68.7998 -4.7998 -80 -32 -80s-32 11.2002 -32 80v80h-80c-68.7998 0 -80 4.7998 -80 32s11.2002 32 80 32h80v80z" />
    <glyph glyph-name="coschar_101010" unicode="&#xf12c;" 
d="M52.7998 388.8c9.60059 4.7998 22.4004 9.60059 27.2002 9.60059c3.2002 1.59961 44.7998 -35.2002 91.2002 -81.6006l84.7998 -83.2002l88 86.4004c68.7998 68.7998 91.2002 83.2002 107.2 67.2002s1.59961 -38.4004 -67.2002 -107.2l-86.4004 -88l83.2002 -84.7998
c123.2 -124.8 112 -139.2 -120 -139.2c-137.6 0 -188.8 6.40039 -206.399 22.4004c-30.4004 30.3994 -33.6006 387.199 -1.60059 398.399zM155.2 132.8l60.7998 59.2002l-60.7998 59.2002l-59.2002 60.7998v-120v-120zM328 80c-33.5996 35.2002 -67.2002 64 -72 64
s-38.4004 -28.7998 -72 -64l-62.4004 -64h134.4h134.4z" />
    <glyph glyph-name="coschar_100100" unicode="&#xf126;" 
d="M32 198.4c0 174.399 1.59961 185.6 32 185.6c27.2002 0 32 -11.2002 32 -80v-80h176c164.8 0 176 -1.59961 176 -32s-11.2002 -32 -176 -32h-176v-64v-64h176c164.8 0 176 -1.59961 176 -32s-11.2002 -32 -185.6 -32c-139.2 0 -190.4 6.40039 -208 22.4004
c-16 17.5996 -22.4004 68.7998 -22.4004 208z" />
    <glyph glyph-name="coschar_100101" unicode="&#xf127;" 
d="M32 198.4c0 174.399 1.59961 185.6 32 185.6c27.2002 0 32 -11.2002 32 -80v-80h64h64v80c0 68.7998 4.7998 80 32 80s32 -11.2002 32 -80v-80h80c68.7998 0 80 -4.7998 80 -32s-11.2002 -32 -80 -32h-80v-64v-64h80c68.7998 0 80 -4.7998 80 -32
c0 -30.4004 -11.2002 -32 -185.6 -32c-139.2 0 -190.4 6.40039 -208 22.4004c-16 17.5996 -22.4004 68.7998 -22.4004 208zM224 96v64h-64h-64v-64v-64h64h64v64z" />
    <glyph glyph-name="coschar_010100" unicode="&#xf115;" 
d="M64 384c0 30.4004 11.2002 32 185.6 32c139.2 0 190.4 -6.40039 208 -22.4004c16 -17.5996 22.4004 -68.7998 22.4004 -208c0 -174.399 -1.59961 -185.6 -32 -185.6c-27.2002 0 -32 11.2002 -32 80v80h-176c-164.8 0 -176 1.59961 -176 32s11.2002 32 176 32h176v64v64
h-176c-164.8 0 -176 1.59961 -176 32z" />
    <glyph glyph-name="coschar_000100" unicode="&#xf104;" 
d="M64 192c0 30.4004 11.2002 32 192 32s192 -1.59961 192 -32s-11.2002 -32 -192 -32s-192 1.59961 -192 32z" />
    <glyph glyph-name="coschar_000000" unicode="&#xf100;" 
d="M123.2 307.2c51.2002 51.2002 102.399 92.7998 115.2 92.7998c32 0 209.6 -176 209.6 -208c0 -33.5996 -169.6 -200 -204.8 -200c-33.6006 -1.59961 -211.2 166.4 -211.2 198.4c0 14.3994 41.5996 65.5996 91.2002 116.8zM320 264c-38.4004 40 -75.2002 72 -80 72
s-41.5996 -32 -80 -72l-70.4004 -72l75.2002 -76.7998l75.2002 -75.2002l75.2002 75.2002l75.2002 76.7998z" />
    <glyph glyph-name="coschar_000001" unicode="&#xf101;" 
d="M224 192c0 180.8 1.59961 192 32 192s32 -11.2002 32 -192s-1.59961 -192 -32 -192s-32 11.2002 -32 192z" />
    <glyph glyph-name="coschar_101110" unicode="&#xf130;" 
d="M52.7998 388.8c9.60059 4.7998 22.4004 9.60059 27.2002 9.60059c3.2002 1.59961 44.7998 -35.2002 91.2002 -81.6006l84.7998 -83.2002l88 86.4004c68.7998 67.2002 91.2002 83.2002 107.2 67.2002s3.2002 -36.7998 -59.2002 -99.2002l-78.4004 -80h67.2002
c49.6006 0 67.2002 -6.40039 67.2002 -24s-17.5996 -24 -59.2002 -24h-59.2002l67.2002 -68.7998c105.601 -107.2 88 -123.2 -136 -123.2c-137.6 0 -188.8 6.40039 -206.399 22.4004c-30.4004 30.3994 -33.6006 387.199 -1.60059 398.399zM152 256
c-25.5996 27.2002 -48 48 -51.2002 48s-4.7998 -20.7998 -4.7998 -48c0 -43.2002 4.7998 -48 51.2002 -48h51.2002zM176 155.2c0 3.2002 -17.5996 4.7998 -40 4.7998c-32 0 -40 -8 -40 -43.2002v-41.5996l40 36.7998c22.4004 20.7998 40 40 40 43.2002zM328 80
c-33.5996 35.2002 -67.2002 64 -72 64s-38.4004 -28.7998 -72 -64l-62.4004 -64h134.4h134.4z" />
    <glyph glyph-name="coschar_101111" unicode="&#xf131;" 
d="M52.7998 388.8c9.60059 4.7998 22.4004 9.60059 27.2002 9.60059c3.2002 1.59961 38.4004 -28.8008 75.2002 -65.6006l68.7998 -67.2002v59.2002c0 48 6.40039 59.2002 32 59.2002s32 -11.2002 32 -59.2002v-59.2002l72 70.4004
c56 54.4004 76.7998 65.5996 91.2002 51.2002c14.3994 -14.4004 1.59961 -36.7998 -59.2002 -99.2002l-78.4004 -80h67.2002c49.6006 0 67.2002 -6.40039 67.2002 -24s-17.5996 -24 -59.2002 -24h-59.2002l67.2002 -68.7998c105.601 -107.2 88 -123.2 -136 -123.2
c-137.6 0 -188.8 6.40039 -206.399 22.4004c-30.4004 30.3994 -33.6006 387.199 -1.60059 398.399zM152 256c-25.5996 27.2002 -48 48 -51.2002 48s-4.7998 -20.7998 -4.7998 -48c0 -43.2002 4.7998 -48 51.2002 -48h51.2002zM176 155.2
c0 3.2002 -17.5996 4.7998 -40 4.7998c-32 0 -40 -8 -40 -43.2002v-41.5996l40 36.7998c22.4004 20.7998 40 40 40 43.2002zM224 64c0 27.2002 -1.59961 48 -4.7998 48s-25.6006 -20.7998 -51.2002 -48l-46.4004 -48h51.2002c46.4004 0 51.2002 4.7998 51.2002 48zM344 64
c-25.5996 27.2002 -48 48 -51.2002 48s-4.7998 -20.7998 -4.7998 -48c0 -43.2002 4.7998 -48 51.2002 -48h51.2002z" />
    <glyph glyph-name="coschar_011110" unicode="&#xf11f;" 
d="M54.4004 382.4c12.7998 19.1992 355.199 25.5996 400 8c20.7998 -8 25.5996 -41.6006 25.5996 -198.4c0 -232 -12.7998 -243.2 -139.2 -121.6l-84.7998 80l-84.7998 -83.2002c-65.6006 -65.6006 -88 -80 -104 -64s-4.7998 33.5996 48 88l67.2002 68.7998h-59.2002
c-41.6006 0 -59.2002 6.40039 -59.2002 24s17.5996 24 67.2002 24h67.2002l-76.8008 78.4004c-43.1992 43.1992 -72 86.3994 -67.1992 96zM315.2 292.8l60.7998 59.2002h-120h-120l60.7998 -59.2002l59.2002 -60.7998zM416 256c0 27.2002 -1.59961 48 -4.7998 48
s-25.6006 -20.7998 -51.2002 -48l-46.4004 -48h51.2002c46.4004 0 51.2002 4.7998 51.2002 48zM416 120c0 32 -8 40 -43.2002 40h-41.5996l36.7998 -40c20.7998 -22.4004 40 -40 43.2002 -40s4.7998 17.5996 4.7998 40z" />
    <glyph glyph-name="coschar_011111" unicode="&#xf120;" 
d="M54.4004 382.4c12.7998 19.1992 355.199 25.5996 400 8c20.7998 -8 25.5996 -41.6006 25.5996 -198.4c0 -225.6 -14.4004 -241.6 -123.2 -137.6l-68.7998 64v-59.2002c0 -48 -6.40039 -59.2002 -32 -59.2002s-32 11.2002 -32 59.2002v59.2002l-68.7998 -67.2002
c-54.4004 -52.7998 -73.6006 -62.4004 -88 -48c-14.4004 14.3994 -4.7998 33.5996 48 88l67.2002 68.7998h-59.2002c-41.6006 0 -59.2002 6.40039 -59.2002 24s17.5996 24 67.2002 24h67.2002l-76.8008 78.4004c-43.1992 43.1992 -72 86.3994 -67.1992 96zM224 312
c0 32 -8 40 -43.2002 40h-41.5996l36.7998 -40c20.7998 -22.4004 40 -40 43.2002 -40s4.7998 17.5996 4.7998 40zM368 347.2c0 3.2002 -17.5996 4.7998 -40 4.7998c-32 0 -40 -8 -40 -43.2002v-41.5996l40 36.7998c22.4004 20.7998 40 40 40 43.2002zM416 256
c0 27.2002 -1.59961 48 -4.7998 48s-25.6006 -20.7998 -51.2002 -48l-46.4004 -48h51.2002c46.4004 0 51.2002 4.7998 51.2002 48zM416 120c0 32 -8 40 -43.2002 40h-41.5996l36.7998 -40c20.7998 -22.4004 40 -40 43.2002 -40s4.7998 17.5996 4.7998 40z" />
    <glyph glyph-name="coschar_001001" unicode="&#xf109;" 
d="M355.2 332.8c72 72 84.7998 76.7998 102.399 49.6006c4.80078 -9.60059 -30.3994 -57.6006 -80 -108.801c-88 -88 -89.5996 -92.7998 -89.5996 -182.399c0 -80 -3.2002 -91.2002 -32 -91.2002c-25.5996 0 -32 11.2002 -32 59.2002v59.2002l-68.7998 -67.2002
c-57.6006 -56 -73.6006 -64 -88 -46.4004c-14.4004 16 0 40 68.7998 107.2c86.4004 84.7998 88 88 88 179.2c0 81.5996 3.2002 92.7998 32 92.7998c25.5996 0 32 -11.2002 32 -59.2002v-60.7998z" />
    <glyph glyph-name="coschar_001000" unicode="&#xf108;" 
d="M235.2 211.2c104 104 193.6 188.8 200 188.8c49.5996 0 8 -59.2002 -156.8 -225.6c-150.4 -150.4 -193.601 -185.601 -211.2 -171.2c-17.6006 14.3994 16 54.3994 168 208z" />
    <glyph glyph-name="coschar_111100" unicode="&#xf13f;" 
d="M52.7998 388.8c28.7998 12.7998 371.2 12.7998 401.601 1.60059c35.1992 -14.4004 38.3994 -364.801 3.19922 -400c-33.5996 -32 -369.6 -32 -403.199 0c-30.4004 30.3994 -33.6006 387.199 -1.60059 398.399zM304 280l70.4004 72h-139.2h-139.2v-72v-72h68.7998
c60.7998 0 76.7998 9.59961 139.2 72zM416 256c0 27.2002 -1.59961 48 -4.7998 48s-25.6006 -20.7998 -51.2002 -48l-46.4004 -48h51.2002c46.4004 0 51.2002 4.7998 51.2002 48zM176 155.2c0 3.2002 -17.5996 4.7998 -40 4.7998c-32 0 -40 -8 -40 -43.2002v-41.5996
l40 36.7998c22.4004 20.7998 40 40 40 43.2002zM416 88v72h-76.7998c-70.4004 0 -83.2002 -6.40039 -147.2 -72l-70.4004 -72h147.2h147.2v72z" />
    <glyph glyph-name="coschar_111101" unicode="&#xf140;" 
d="M52.7998 388.8c28.7998 12.7998 371.2 12.7998 401.601 1.60059c35.1992 -14.4004 38.3994 -364.801 3.19922 -400c-33.5996 -32 -369.6 -32 -403.199 0c-30.4004 30.3994 -33.6006 387.199 -1.60059 398.399zM224 280v72h-64h-64v-72v-72h64h64v72zM368 347.2
c0 3.2002 -17.5996 4.7998 -40 4.7998c-32 0 -40 -8 -40 -43.2002v-41.5996l40 36.7998c22.4004 20.7998 40 40 40 43.2002zM416 256c0 27.2002 -1.59961 48 -4.7998 48s-25.6006 -20.7998 -51.2002 -48l-46.4004 -48h51.2002c46.4004 0 51.2002 4.7998 51.2002 48z
M176 155.2c0 3.2002 -17.5996 4.7998 -40 4.7998c-32 0 -40 -8 -40 -43.2002v-41.5996l40 36.7998c22.4004 20.7998 40 40 40 43.2002zM416 88v72h-64h-64v-72v-72h64h64v72zM224 64c0 27.2002 -1.59961 48 -4.7998 48s-25.6006 -20.7998 -51.2002 -48l-46.4004 -48h51.2002
c46.4004 0 51.2002 4.7998 51.2002 48z" />
    <glyph glyph-name="coschar_001100" unicode="&#xf10c;" 
d="M328 304c52.7998 52.7998 100.8 96 107.2 96c40 0 22.3994 -46.4004 -44.7998 -113.6l-76.8008 -78.4004h67.2002c49.6006 0 67.2002 -6.40039 67.2002 -24c0 -19.2002 -20.7998 -24 -92.7998 -24c-91.2002 0 -94.4004 -1.59961 -179.2 -88
c-67.2002 -68.7998 -91.2002 -83.2002 -107.2 -68.7998c-17.5996 14.3994 -9.59961 30.3994 46.4004 88l67.2002 68.7998h-59.2002c-41.6006 0 -59.2002 6.40039 -59.2002 24s20.7998 24 84.7998 24c81.6006 0 86.4004 3.2002 179.2 96z" />
    <glyph glyph-name="coschar_001101" unicode="&#xf10d;" 
d="M355.2 332.8c72 72 84.7998 76.7998 102.399 49.6006c4.80078 -9.60059 -24 -52.8008 -67.1992 -96l-76.8008 -78.4004h67.2002c49.6006 0 67.2002 -6.40039 67.2002 -24s-19.2002 -24 -80 -24h-80v-80c0 -68.7998 -4.7998 -80 -32 -80
c-25.5996 0 -32 11.2002 -32 59.2002v59.2002l-68.7998 -67.2002c-54.4004 -52.7998 -73.6006 -62.4004 -88 -48c-14.4004 14.3994 -4.7998 33.5996 48 88l67.2002 68.7998h-59.2002c-41.6006 0 -59.2002 6.40039 -59.2002 24s19.2002 24 80 24h80v88
c0 76.7998 3.2002 88 32 88c25.5996 0 32 -11.2002 32 -59.2002v-60.7998z" />
    <glyph glyph-name="coschar_111011" unicode="&#xf13e;" 
d="M52.7998 388.8c28.7998 12.7998 371.2 12.7998 401.601 1.60059c35.1992 -14.4004 38.3994 -364.801 3.19922 -400c-33.5996 -32 -369.6 -32 -403.199 0c-30.4004 30.3994 -33.6006 387.199 -1.60059 398.399zM224 312c0 32 -8 40 -43.2002 40h-41.5996l36.7998 -40
c20.7998 -22.4004 40 -40 43.2002 -40s4.7998 17.5996 4.7998 40zM368 347.2c0 3.2002 -17.5996 4.7998 -40 4.7998c-32 0 -40 -8 -40 -43.2002v-41.5996l40 36.7998c22.4004 20.7998 40 40 40 43.2002zM155.2 132.8l60.7998 59.2002l-60.7998 59.2002l-59.2002 60.7998
v-120v-120zM416 188.8c0 62.4004 -1.59961 115.2 -4.7998 115.2s-28.7998 -25.5996 -59.2002 -56l-54.4004 -56l59.2002 -60.7998l59.2002 -59.2002v116.8zM224 64c0 27.2002 -1.59961 48 -4.7998 48s-25.6006 -20.7998 -51.2002 -48l-46.4004 -48h51.2002
c46.4004 0 51.2002 4.7998 51.2002 48zM344 64c-25.5996 27.2002 -48 48 -51.2002 48s-4.7998 -20.7998 -4.7998 -48c0 -43.2002 4.7998 -48 51.2002 -48h51.2002z" />
    <glyph glyph-name="coschar_10____" unicode="&#xf132;" 
d="M32 198.4c0 174.399 1.59961 185.6 32 185.6s32 -11.2002 32 -176v-176h176c164.8 0 176 -1.59961 176 -32s-11.2002 -32 -185.6 -32c-139.2 0 -190.4 6.40039 -208 22.4004c-16 17.5996 -22.4004 68.7998 -22.4004 208z" />
    <glyph glyph-name="coschar_110110" unicode="&#xf139;" 
d="M52.7998 388.8c28.7998 12.7998 371.2 12.7998 401.601 1.60059c35.1992 -14.4004 38.3994 -364.801 3.19922 -400c-33.5996 -32 -369.6 -32 -403.199 0c-30.4004 30.3994 -33.6006 387.199 -1.60059 398.399zM416 280v72h-139.2h-139.2l70.4004 -72
c62.4004 -62.4004 78.4004 -72 139.2 -72h68.7998v72zM152 256c-25.5996 27.2002 -48 48 -51.2002 48s-4.7998 -20.7998 -4.7998 -48c0 -43.2002 4.7998 -48 51.2002 -48h51.2002zM320 88c-64 65.5996 -76.7998 72 -147.2 72h-76.7998v-72v-72h147.2h147.2zM416 120
c0 32 -8 40 -43.2002 40h-41.5996l36.7998 -40c20.7998 -22.4004 40 -40 43.2002 -40s4.7998 17.5996 4.7998 40z" />
    <glyph glyph-name="coschar_110111" unicode="&#xf13a;" 
d="M52.7998 388.8c28.7998 12.7998 371.2 12.7998 401.601 1.60059c35.1992 -14.4004 38.3994 -364.801 3.19922 -400c-33.5996 -32 -369.6 -32 -403.199 0c-30.4004 30.3994 -33.6006 387.199 -1.60059 398.399zM224 312c0 32 -8 40 -43.2002 40h-41.5996l36.7998 -40
c20.7998 -22.4004 40 -40 43.2002 -40s4.7998 17.5996 4.7998 40zM416 280v72h-64h-64v-72v-72h64h64v72zM152 256c-25.5996 27.2002 -48 48 -51.2002 48s-4.7998 -20.7998 -4.7998 -48c0 -43.2002 4.7998 -48 51.2002 -48h51.2002zM224 88v72h-64h-64v-72v-72h64h64v72z
M416 120c0 32 -8 40 -43.2002 40h-41.5996l36.7998 -40c20.7998 -22.4004 40 -40 43.2002 -40s4.7998 17.5996 4.7998 40zM344 64c-25.5996 27.2002 -48 48 -51.2002 48s-4.7998 -20.7998 -4.7998 -48c0 -43.2002 4.7998 -48 51.2002 -48h51.2002z" />
    <glyph glyph-name="coschar_110011" unicode="&#xf136;" 
d="M52.7998 388.8c28.7998 12.7998 371.2 12.7998 401.601 1.60059c35.1992 -14.4004 38.3994 -364.801 3.19922 -400c-33.5996 -32 -369.6 -32 -403.199 0c-30.4004 30.3994 -33.6006 387.199 -1.60059 398.399zM224 312c0 32 -8 40 -43.2002 40h-41.5996l36.7998 -40
c20.7998 -22.4004 40 -40 43.2002 -40s4.7998 17.5996 4.7998 40zM416 212.8v139.2h-64h-64v-76.7998c0 -68.7998 6.40039 -83.2002 64 -139.2l64 -62.4004v139.2zM224 100.8c0 78.4004 -4.7998 89.6006 -64 147.2l-64 62.4004v-147.2v-147.2h64h64v84.7998zM344 64
c-25.5996 27.2002 -48 48 -51.2002 48s-4.7998 -20.7998 -4.7998 -48c0 -43.2002 4.7998 -48 51.2002 -48h51.2002z" />
    <glyph glyph-name="coschar_01____" unicode="&#xf121;" 
d="M64 384c0 30.4004 11.2002 32 185.6 32c139.2 0 190.4 -6.40039 208 -22.4004c16 -17.5996 22.4004 -68.7998 22.4004 -208c0 -174.399 -1.59961 -185.6 -32 -185.6s-32 11.2002 -32 176v176h-176c-164.8 0 -176 1.59961 -176 32z" />
    <glyph glyph-name="coschar_111000" unicode="&#xf13b;" 
d="M52.7998 388.8c28.7998 12.7998 371.2 12.7998 401.601 1.60059c35.1992 -14.4004 38.3994 -364.801 3.19922 -400c-33.5996 -32 -369.6 -32 -403.199 0c-30.4004 30.3994 -33.6006 387.199 -1.60059 398.399zM368 347.2c0 3.2002 -60.7998 4.7998 -136 4.7998h-136
v-139.2v-140.8l136 136c75.2002 75.2002 136 137.6 136 139.2zM416 160c0 80 -1.59961 144 -4.7998 144c-1.60059 0 -68.7998 -64 -147.2 -144l-144 -144h148.8h147.2v144z" />
    <glyph glyph-name="coschar_011001" unicode="&#xf11a;" 
d="M64 376c0 19.2002 30.4004 24 182.4 24c100.8 0 193.6 -4.7998 208 -9.59961c20.7998 -8 25.5996 -41.6006 25.5996 -200c0 -179.2 -1.59961 -190.4 -32 -190.4s-32 11.2002 -32 155.2v155.2l-64 -62.4004c-60.7998 -59.2002 -64 -68.7998 -64 -155.2
c0 -81.5996 -3.2002 -92.7998 -32 -92.7998c-25.5996 0 -32 11.2002 -32 59.2002v59.2002l-68.7998 -67.2002c-57.6006 -56 -73.6006 -64 -88 -46.4004c-14.4004 16 0 40 68.7998 107.2c81.5996 81.5996 88 91.2002 88 163.2v76.7998h-80c-60.7998 0 -80 6.40039 -80 24z
M368 347.2c0 3.2002 -17.5996 4.7998 -40 4.7998c-32 0 -40 -8 -40 -43.2002v-41.5996l40 36.7998c22.4004 20.7998 40 40 40 43.2002z" />
    <glyph glyph-name="coschar_011011" unicode="&#xf11c;" 
d="M54.4004 382.4c12.7998 19.1992 355.199 25.5996 400 8c20.7998 -8 25.5996 -41.6006 25.5996 -198.4c0 -225.6 -14.4004 -241.6 -123.2 -137.6l-68.7998 64v-59.2002c0 -48 -6.40039 -59.2002 -32 -59.2002s-32 11.2002 -32 59.2002v59.2002l-68.7998 -67.2002
c-54.4004 -52.7998 -72 -64 -88 -48s-1.60059 38.3994 64 104l83.2002 84.7998l-84.8008 86.4004c-46.3994 48 -80 94.3994 -75.1992 104zM224 312c0 32 -8 40 -43.2002 40h-41.5996l36.7998 -40c20.7998 -22.4004 40 -40 43.2002 -40s4.7998 17.5996 4.7998 40zM368 347.2
c0 3.2002 -17.5996 4.7998 -40 4.7998c-32 0 -40 -8 -40 -43.2002v-41.5996l40 36.7998c22.4004 20.7998 40 40 40 43.2002zM416 188.8c0 62.4004 -1.59961 115.2 -4.7998 115.2s-28.7998 -25.5996 -59.2002 -56l-54.4004 -56l59.2002 -60.7998l59.2002 -59.2002v116.8z" />
    <glyph glyph-name="coschar_011010" unicode="&#xf11b;" 
d="M54.4004 382.4c12.7998 19.1992 355.199 25.5996 400 8c20.7998 -8 25.5996 -41.6006 25.5996 -198.4c0 -232 -12.7998 -243.2 -139.2 -121.6l-84.7998 80l-84.7998 -83.2002c-67.2002 -65.6006 -88 -80 -104 -64s-1.60059 36.7998 64 104l83.2002 84.7998
l-84.8008 86.4004c-46.3994 48 -80 94.3994 -75.1992 104zM315.2 292.8l60.7998 59.2002h-120h-120l60.7998 -59.2002l59.2002 -60.7998zM416 188.8c0 62.4004 -1.59961 115.2 -4.7998 115.2s-28.7998 -25.5996 -59.2002 -56l-54.4004 -56l59.2002 -60.7998
l59.2002 -59.2002v116.8z" />
    <glyph glyph-name="coschar_11____" unicode="&#xf143;" 
d="M52.7998 392c28.7998 33.5996 371.2 33.5996 404.8 1.59961c32 -33.5996 32 -369.6 0 -403.199c-33.5996 -32 -369.6 -32 -403.199 0c-30.4004 30.3994 -32 368 -1.60059 401.6zM416 192v160h-160h-160v-160v-160h160h160v160z" />
    <glyph glyph-name="coschar_110100" unicode="&#xf137;" 
d="M52.7998 392c28.7998 33.5996 371.2 33.5996 404.8 1.59961c32 -33.5996 32 -369.6 0 -403.199c-33.5996 -32 -369.6 -32 -403.199 0c-30.4004 30.3994 -32 368 -1.60059 401.6zM416 288v64h-160h-160v-64v-64h160h160v64zM416 96v64h-160h-160v-64v-64h160h160v64z" />
    <glyph glyph-name="coschar_100010" unicode="&#xf124;" 
d="M52.7998 388.8c9.60059 4.7998 22.4004 9.60059 27.2002 9.60059c4.7998 1.59961 92.7998 -83.2002 196.8 -187.2c238.4 -238.4 238.4 -243.2 -16 -243.2c-137.6 0 -188.8 6.40039 -206.399 22.4004c-30.4004 30.3994 -33.6006 387.199 -1.60059 398.399zM248 160
c-78.4004 80 -145.6 144 -147.2 144c-3.2002 0 -4.7998 -64 -4.7998 -144v-144h147.2h148.8z" />
    <glyph glyph-name="coschar_100011" unicode="&#xf125;" 
d="M52.7998 388.8c9.60059 4.7998 22.4004 9.60059 27.2002 9.60059c3.2002 1.59961 38.4004 -28.8008 75.2002 -65.6006l68.7998 -67.2002v59.2002c0 48 6.40039 59.2002 32 59.2002c28.7998 0 32 -11.2002 32 -91.2002c0 -89.5996 1.59961 -94.3994 88 -180.8
c129.6 -129.6 118.4 -144 -115.2 -144c-137.6 0 -188.8 6.40039 -206.399 22.4004c-30.4004 30.3994 -33.6006 387.199 -1.60059 398.399zM224 100.8c0 78.4004 -4.7998 89.6006 -64 147.2l-64 62.4004v-147.2v-147.2h64h64v84.7998zM344 64
c-25.5996 27.2002 -48 48 -51.2002 48s-4.7998 -20.7998 -4.7998 -48c0 -43.2002 4.7998 -48 51.2002 -48h51.2002z" />
    <glyph glyph-name="coschar_010010" unicode="&#xf113;" 
d="M54.4004 382.4c12.7998 19.1992 353.6 25.5996 400 8c20.7998 -8 25.5996 -41.6006 25.5996 -198.4c0 -259.2 -6.40039 -259.2 -248 -16c-108.8 108.8 -184 196.8 -177.6 206.4zM416 216v136h-139.2h-140.8l136 -136c75.2002 -75.2002 137.6 -136 139.2 -136
c3.2002 0 4.7998 60.7998 4.7998 136z" />
    <glyph glyph-name="coschar_010011" unicode="&#xf114;" 
d="M54.4004 382.4c12.7998 19.1992 355.199 25.5996 400 8c20.7998 -8 25.5996 -41.6006 25.5996 -198.4c0 -225.6 -14.4004 -241.6 -123.2 -137.6l-68.7998 64v-59.2002c0 -48 -6.40039 -59.2002 -32 -59.2002c-28.7998 0 -32 11.2002 -32 91.2002
c0 89.5996 -1.59961 94.3994 -89.5996 182.399c-49.6006 51.2002 -84.8008 99.2002 -80 108.801zM224 312c0 32 -8 40 -43.2002 40h-41.5996l36.7998 -40c20.7998 -22.4004 40 -40 43.2002 -40s4.7998 17.5996 4.7998 40zM416 212.8v139.2h-64h-64v-76.7998
c0 -68.7998 6.40039 -83.2002 64 -139.2l64 -62.4004v139.2z" />
    <glyph glyph-name="coschar_100111" unicode="&#xf129;" 
d="M52.7998 388.8c9.60059 4.7998 22.4004 9.60059 27.2002 9.60059c3.2002 1.59961 38.4004 -28.8008 75.2002 -65.6006l68.7998 -67.2002v59.2002c0 48 6.40039 59.2002 32 59.2002c28.7998 0 32 -11.2002 32 -88v-88h80c60.7998 0 80 -6.40039 80 -24
s-17.5996 -24 -59.2002 -24h-59.2002l67.2002 -68.7998c105.601 -107.2 88 -123.2 -136 -123.2c-137.6 0 -188.8 6.40039 -206.399 22.4004c-30.4004 30.3994 -33.6006 387.199 -1.60059 398.399zM152 256c-25.5996 27.2002 -48 48 -51.2002 48
s-4.7998 -20.7998 -4.7998 -48c0 -43.2002 4.7998 -48 51.2002 -48h51.2002zM224 88v72h-64h-64v-72v-72h64h64v72zM344 64c-25.5996 27.2002 -48 48 -51.2002 48s-4.7998 -20.7998 -4.7998 -48c0 -43.2002 4.7998 -48 51.2002 -48h51.2002z" />
    <glyph glyph-name="coschar_100110" unicode="&#xf128;" 
d="M52.7998 388.8c9.60059 4.7998 22.4004 9.60059 27.2002 9.60059c4.7998 1.59961 51.2002 -41.6006 104 -94.4004c92.7998 -92.7998 97.5996 -96 179.2 -96c64 0 84.7998 -6.40039 84.7998 -24s-17.5996 -24 -59.2002 -24h-59.2002l67.2002 -68.7998
c105.601 -107.2 88 -123.2 -136 -123.2c-137.6 0 -188.8 6.40039 -206.399 22.4004c-30.4004 30.3994 -33.6006 387.199 -1.60059 398.399zM152 256c-25.5996 27.2002 -48 48 -51.2002 48s-4.7998 -20.7998 -4.7998 -48c0 -43.2002 4.7998 -48 51.2002 -48h51.2002zM320 88
c-64 65.5996 -76.7998 72 -147.2 72h-76.7998v-72v-72h147.2h147.2z" />
    <glyph glyph-name="coschar_010111" unicode="&#xf118;" 
d="M54.4004 382.4c12.7998 19.1992 355.199 25.5996 400 8c20.7998 -8 25.5996 -41.6006 25.5996 -198.4c0 -225.6 -14.4004 -241.6 -123.2 -137.6l-68.7998 64v-59.2002c0 -48 -6.40039 -59.2002 -32 -59.2002c-27.2002 0 -32 11.2002 -32 80v80h-80
c-60.7998 0 -80 6.40039 -80 24s17.5996 24 67.2002 24h67.2002l-76.8008 78.4004c-43.1992 43.1992 -72 86.3994 -67.1992 96zM224 312c0 32 -8 40 -43.2002 40h-41.5996l36.7998 -40c20.7998 -22.4004 40 -40 43.2002 -40s4.7998 17.5996 4.7998 40zM416 280v72h-64h-64
v-72v-72h64h64v72zM416 120c0 32 -8 40 -43.2002 40h-41.5996l36.7998 -40c20.7998 -22.4004 40 -40 43.2002 -40s4.7998 17.5996 4.7998 40z" />
    <glyph glyph-name="coschar_010110" unicode="&#xf117;" 
d="M54.4004 382.4c12.7998 19.1992 355.199 25.5996 400 8c20.7998 -8 25.5996 -41.6006 25.5996 -198.4c0 -171.2 -3.2002 -188.8 -30.4004 -196.8c-20.7998 -4.7998 -56 17.5996 -115.199 78.3994c-83.2002 84.8008 -86.4004 86.4004 -177.601 86.4004
c-72 0 -92.7998 4.7998 -92.7998 24c0 17.5996 17.5996 24 67.2002 24h67.2002l-76.8008 78.4004c-43.1992 43.1992 -72 86.3994 -67.1992 96zM416 280v72h-139.2h-139.2l70.4004 -72c62.4004 -62.4004 78.4004 -72 139.2 -72h68.7998v72zM416 120c0 32 -8 40 -43.2002 40
h-41.5996l36.7998 -40c20.7998 -22.4004 40 -40 43.2002 -40s4.7998 17.5996 4.7998 40z" />
    <glyph glyph-name="coschar_000110" unicode="&#xf106;" 
d="M54.4004 382.4c19.1992 28.7998 30.3994 22.3994 129.6 -78.4004c92.7998 -92.7998 97.5996 -96 179.2 -96c64 0 84.7998 -6.40039 84.7998 -24s-17.5996 -24 -59.2002 -24h-59.2002l67.2002 -68.7998c56 -57.6006 64 -73.6006 46.4004 -88
c-16 -14.4004 -40 0 -107.2 68.7998c-84.7998 86.4004 -88 88 -179.2 88c-72 0 -92.7998 4.7998 -92.7998 24c0 17.5996 17.5996 24 67.2002 24h67.2002l-76.8008 78.4004c-43.1992 43.1992 -72 86.3994 -67.1992 96z" />
    <glyph glyph-name="coschar_000111" unicode="&#xf107;" 
d="M54.4004 382.4c17.5996 27.1992 27.1992 22.3994 100.8 -49.6006l68.7998 -67.2002v59.2002c0 48 6.40039 59.2002 32 59.2002c28.7998 0 32 -11.2002 32 -88v-88h80c60.7998 0 80 -6.40039 80 -24s-17.5996 -24 -59.2002 -24h-59.2002l67.2002 -68.7998
c52.7998 -54.4004 62.4004 -73.6006 48 -88c-14.3994 -14.4004 -33.5996 -4.7998 -88 48l-68.7998 67.2002v-59.2002c0 -48 -6.40039 -59.2002 -32 -59.2002c-27.2002 0 -32 11.2002 -32 80v80h-80c-60.7998 0 -80 6.40039 -80 24s17.5996 24 67.2002 24h67.2002
l-76.8008 78.4004c-43.1992 43.1992 -72 86.3994 -67.1992 96z" />
    <glyph glyph-name="coschar_000011" unicode="&#xf103;" 
d="M54.4004 382.4c17.5996 27.1992 27.1992 22.3994 100.8 -49.6006l68.7998 -67.2002v59.2002c0 48 6.40039 59.2002 32 59.2002c28.7998 0 32 -11.2002 32 -92.7998c0 -91.2002 1.59961 -94.4004 88 -179.2c68.7998 -67.2002 83.2002 -91.2002 68.7998 -107.2
c-14.3994 -17.5996 -30.3994 -9.59961 -88 46.4004l-68.7998 67.2002v-59.2002c0 -48 -6.40039 -59.2002 -32 -59.2002c-28.7998 0 -32 11.2002 -32 91.2002c0 89.5996 -1.59961 94.3994 -89.5996 182.399c-49.6006 51.2002 -84.8008 99.2002 -80 108.801z" />
    <glyph glyph-name="coschar_000010" unicode="&#xf102;" 
d="M54.4004 382.4c6.39941 9.59961 16 17.5996 22.3994 17.5996c6.40039 0 96 -84.7998 200 -188.8c152 -153.601 185.601 -193.601 168 -208c-17.5996 -14.4004 -60.7998 20.7998 -211.2 171.2c-108.8 110.399 -185.6 198.399 -179.199 208z" />
    <glyph glyph-name="coschar_101101" unicode="&#xf12f;" 
d="M355.2 332.8c72 72 84.7998 76.7998 102.399 49.6006c4.80078 -9.60059 -24 -52.8008 -67.1992 -96l-76.8008 -78.4004h67.2002c49.6006 0 67.2002 -6.40039 67.2002 -24s-19.2002 -24 -80 -24h-80v-72v-72h80c60.7998 0 80 -6.40039 80 -24
c0 -33.5996 -358.4 -35.2002 -393.6 -1.59961c-16 17.5996 -22.4004 68.7998 -22.4004 208c0 174.399 1.59961 185.6 32 185.6c28.7998 0 32 -11.2002 32 -88v-88h64h64v88c0 76.7998 3.2002 88 32 88c25.5996 0 32 -11.2002 32 -59.2002v-60.7998zM176 155.2
c0 3.2002 -17.5996 4.7998 -40 4.7998c-32 0 -40 -8 -40 -43.2002v-41.5996l40 36.7998c22.4004 20.7998 40 40 40 43.2002zM224 64c0 27.2002 -1.59961 48 -4.7998 48s-25.6006 -20.7998 -51.2002 -48l-46.4004 -48h51.2002c46.4004 0 51.2002 4.7998 51.2002 48z" />
    <glyph glyph-name="coschar_101100" unicode="&#xf12e;" 
d="M328 304c52.7998 52.7998 100.8 96 107.2 96c40 0 22.3994 -46.4004 -44.7998 -113.6l-76.8008 -78.4004h67.2002c49.6006 0 67.2002 -6.40039 67.2002 -24c0 -19.2002 -20.7998 -24 -92.7998 -24c-88 0 -96 -3.2002 -163.2 -72l-70.4004 -72h163.2
c134.4 0 163.2 -4.7998 163.2 -24c0 -33.5996 -358.4 -35.2002 -393.6 -1.59961c-16 17.5996 -22.4004 68.7998 -22.4004 208c0 174.399 1.59961 185.6 32 185.6c28.7998 0 32 -11.2002 32 -88v-88h68.7998c62.4004 0 76.7998 8 163.2 96zM176 155.2
c0 3.2002 -17.5996 4.7998 -40 4.7998c-32 0 -40 -8 -40 -43.2002v-41.5996l40 36.7998c22.4004 20.7998 40 40 40 43.2002z" />
    <glyph glyph-name="coschar_011101" unicode="&#xf11e;" 
d="M64 376c0 19.2002 30.4004 24 182.4 24c100.8 0 193.6 -4.7998 208 -9.59961c20.7998 -8 25.5996 -41.6006 25.5996 -200c0 -179.2 -1.59961 -190.4 -32 -190.4c-27.2002 0 -32 11.2002 -32 80v80h-64h-64v-80c0 -68.7998 -4.7998 -80 -32 -80
c-25.5996 0 -32 11.2002 -32 59.2002v59.2002l-68.7998 -67.2002c-54.4004 -52.7998 -73.6006 -62.4004 -88 -48c-14.4004 14.3994 -4.7998 33.5996 48 88l67.2002 68.7998h-59.2002c-41.6006 0 -59.2002 6.40039 -59.2002 24s19.2002 24 80 24h80v72v72h-80
c-60.7998 0 -80 6.40039 -80 24zM368 347.2c0 3.2002 -17.5996 4.7998 -40 4.7998c-32 0 -40 -8 -40 -43.2002v-41.5996l40 36.7998c22.4004 20.7998 40 40 40 43.2002zM416 256c0 27.2002 -1.59961 48 -4.7998 48s-25.6006 -20.7998 -51.2002 -48l-46.4004 -48h51.2002
c46.4004 0 51.2002 4.7998 51.2002 48z" />
    <glyph glyph-name="coschar_011100" unicode="&#xf11d;" 
d="M64 376c0 19.2002 30.4004 24 182.4 24c100.8 0 193.6 -4.7998 208 -9.59961c20.7998 -8 25.5996 -41.6006 25.5996 -200c0 -179.2 -1.59961 -190.4 -32 -190.4c-27.2002 0 -32 11.2002 -32 80v80h-76.7998c-72 0 -81.6006 -6.40039 -163.2 -88
c-67.2002 -68.7998 -91.2002 -83.2002 -107.2 -68.7998c-17.5996 14.3994 -9.59961 30.3994 46.4004 88l67.2002 68.7998h-59.2002c-41.6006 0 -59.2002 6.40039 -59.2002 24s20.7998 24 84.7998 24c78.4004 0 89.6006 4.7998 155.2 72l70.4004 72h-155.2
c-128 0 -155.2 4.7998 -155.2 24zM416 256c0 27.2002 -1.59961 48 -4.7998 48s-25.6006 -20.7998 -51.2002 -48l-46.4004 -48h51.2002c46.4004 0 51.2002 4.7998 51.2002 48z" />
    <glyph glyph-name="coschar_111001" unicode="&#xf13c;" 
d="M52.7998 388.8c28.7998 12.7998 371.2 12.7998 401.601 1.60059c35.1992 -14.4004 38.3994 -364.801 3.19922 -400c-33.5996 -32 -369.6 -32 -403.199 0c-30.4004 30.3994 -33.6006 387.199 -1.60059 398.399zM224 275.2v76.7998h-64h-64v-139.2v-139.2l64 62.4004
c57.5996 56 64 70.4004 64 139.2zM368 347.2c0 3.2002 -17.5996 4.7998 -40 4.7998c-32 0 -40 -8 -40 -43.2002v-41.5996l40 36.7998c22.4004 20.7998 40 40 40 43.2002zM416 160c0 80 -1.59961 144 -4.7998 144s-32 -27.2002 -64 -60.7998
c-52.7998 -54.4004 -59.2002 -68.7998 -59.2002 -144v-83.2002h64h64v144zM224 64c0 27.2002 -1.59961 48 -4.7998 48s-25.6006 -20.7998 -51.2002 -48l-46.4004 -48h51.2002c46.4004 0 51.2002 4.7998 51.2002 48z" />
  </font>
</defs>
</svg>
