<?xml version="1.0" standalone="no"?>
<!DOCTYPE svg PUBLIC "-//W3C//DTD SVG 1.1//EN" "http://www.w3.org/Graphics/SVG/1.1/DTD/svg11.dtd" >
<!--
2019-11-2: Created with FontForge (http://fontforge.org)
-->
<svg xmlns="http://www.w3.org/2000/svg" xmlns:xlink="http://www.w3.org/1999/xlink" version="1.1">
<metadata>
Created by FontForge 20170924 at Sat Nov  2 03:55:43 2019


</metadata>
<defs>
<font id="cosmic_spider" horiz-adv-x="244" >
  <font-face 
    font-family="cosmic_spider"
    font-weight="400"
    font-stretch="normal"
    units-per-em="512"
    panose-1="2 0 5 3 0 0 0 0 0 0"
    ascent="448"
    descent="-64"
    bbox="-0.52369 -34.522 451.798 417.756"
    underline-thickness="25.6"
    underline-position="-51.2"
    unicode-range="U+0020-F24B"
  />
    <missing-glyph />
    <glyph glyph-name="space" unicode=" " horiz-adv-x="200" 
 />
    <glyph glyph-name="coschar_1_octo_22_____1" unicode="&#xf245;" horiz-adv-x="249" 
d="M0 382c0 5 13 6 83 6c110 0 127 -4 146 -42c11 -22 14 -59 17 -205l3 -141h-9c-8 0 -8 0 -8 141c0 144 -3 177 -15 202c-14 28 -24 31 -126 32c-76 1 -91 2 -91 7z" />
    <glyph glyph-name="coschar_0_spider_100010" unicode="&#xf122;" horiz-adv-x="423" 
d="M23 389c10 5 22 9 27 9c5 2 93 -83 197 -187c238 -238 238 -243 -16 -243c-138 0 -189 6 -207 22c-30 30 -33 388 -1 399zM218 160c-78 80 -145 144 -147 144c-3 0 -5 -64 -5 -144v-144h147h149z" />
    <glyph glyph-name="coschar_0_spider_100011" unicode="&#xf123;" horiz-adv-x="429" 
d="M23 389c10 5 22 9 27 9c3 2 38 -28 75 -65l69 -67v59c0 48 6 59 32 59c29 0 32 -11 32 -91c0 -90 2 -95 88 -181c130 -130 119 -144 -115 -144c-138 0 -189 6 -207 22c-30 30 -33 388 -1 399zM194 101c0 78 -5 89 -64 147l-64 62v-147v-147h64h64v85zM314 64
c-26 27 -48 48 -51 48s-5 -21 -5 -48c0 -43 5 -48 51 -48h51z" />
    <glyph glyph-name="coschar_1_octo_10011110" unicode="&#xf1e2;" 
d="M39 382c1 3 4 6 6 6c5 0 60 -112 68 -138c4 -12 8 -22 9 -22s5 10 9 23c8 27 63 137 68 137c10 0 4 -16 -18 -60c-27 -54 -41 -90 -45 -113l-3 -15h54c72 0 73 0 16 -56l-44 -43l24 -47c21 -42 25 -58 16 -58c-2 0 -14 23 -28 50l-26 49l-12 -4c-8 -3 -15 -3 -23 0l-12 5
l-25 -50c-14 -27 -26 -50 -28 -50c-9 0 -5 16 16 58l23 47l-43 43c-57 56 -56 56 16 56h53l-3 15c-4 23 -18 59 -45 113c-14 27 -24 51 -23 54zM108 171l3 13h-45h-45l11 -14c14 -18 54 -54 58 -52c3 2 14 33 18 53zM211 170l11 14h-44h-45l3 -13c4 -20 14 -51 17 -53
c4 -2 44 34 58 52zM131 133c-4 13 -8 23 -9 23c-2 0 -16 -41 -16 -48c0 -5 32 -6 32 -1c0 2 -3 14 -7 26zM82 382c0 5 7 6 40 6s40 -1 40 -6s-7 -6 -40 -6s-40 1 -40 6z" />
    <glyph glyph-name="coschar_1_octo_11001110" unicode="&#xf212;" horiz-adv-x="240" 
d="M80 384c0 8 3 8 40 8s40 0 40 -8s-3 -8 -40 -8s-40 0 -40 8zM38 382c1 3 3 6 5 6c5 0 60 -112 68 -138c4 -12 8 -22 9 -22s5 10 9 23c8 27 63 137 68 137c10 0 5 -16 -17 -60c-27 -54 -42 -90 -46 -113l-2 -15h54c51 0 54 0 54 -8s-3 -8 -54 -8h-54l2 -15
c4 -24 19 -59 46 -113c22 -44 27 -60 17 -60c-5 0 -60 110 -68 137c-4 13 -8 23 -9 23s-5 -10 -9 -22c-8 -26 -63 -138 -68 -138c-10 0 -5 16 17 60c27 54 42 89 46 113l2 15h-54c-51 0 -54 0 -54 8s3 8 54 8h54l-2 15c-4 23 -19 59 -46 113c-14 27 -23 51 -22 54zM80 -2
c0 5 7 6 40 6s40 -1 40 -6s-7 -6 -40 -6s-40 1 -40 6z" />
    <glyph glyph-name="coschar_1_octo_11001111" unicode="&#xf213;" horiz-adv-x="240" 
d="M80 384c0 8 3 8 40 8s40 0 40 -8c0 -7 -3 -8 -16 -8h-16v-61c0 -48 2 -59 5 -51c15 34 62 124 64 124c10 0 5 -16 -17 -60c-27 -54 -42 -90 -46 -113l-2 -15h54c51 0 54 0 54 -8s-3 -8 -54 -8h-54l2 -15c4 -24 19 -59 46 -113c22 -44 27 -60 17 -60c-2 0 -49 90 -64 124
c-3 8 -5 -4 -5 -53v-63h16c12 0 16 -2 16 -6c0 -5 -7 -6 -40 -6s-40 1 -40 6c0 4 4 6 16 6h16v63v63l-16 -34c-28 -58 -50 -100 -53 -100c-10 0 -5 16 17 60c27 54 42 89 46 113l2 15h-54c-51 0 -54 0 -54 8s3 8 54 8h54l-2 15c-4 23 -19 59 -46 113c-22 44 -27 60 -17 60
c3 0 25 -42 53 -100l16 -34v61v61h-16c-13 0 -16 1 -16 8z" />
    <glyph glyph-name="coschar_1_octo_01111100" unicode="&#xf1c0;" horiz-adv-x="248" 
d="M42 382c1 3 3 6 5 6s15 -23 29 -50l25 -49l12 4c21 8 44 -5 92 -52c24 -23 43 -45 43 -49c0 -10 -76 -85 -98 -96c-14 -7 -22 -8 -35 -6l-17 2l-24 -48c-13 -26 -25 -48 -27 -48c-10 0 -5 16 17 60c14 26 22 48 20 48c-6 0 -84 81 -84 88c0 4 19 26 43 49l43 42l-23 47
c-13 26 -22 49 -21 52zM159 266c-15 11 -23 14 -35 14c-18 0 -19 -1 -8 -32c4 -12 8 -28 8 -35v-13h50h51l-12 15c-15 18 -29 32 -54 51zM102 245c-4 10 -8 20 -10 21c-4 2 -44 -34 -58 -52l-10 -14h44h45l-3 13c-1 7 -5 22 -8 32zM112 181c0 2 -20 3 -44 3h-44l16 -19
c9 -11 24 -26 34 -34c17 -14 18 -14 22 -7c4 8 16 51 16 57zM208 164l16 20h-50h-50v-13c0 -7 -4 -23 -8 -35s-8 -25 -8 -27c0 -8 28 -6 40 2c22 14 44 34 60 53zM84 -2c0 5 7 6 40 6s40 -1 40 -6s-7 -6 -40 -6s-40 1 -40 6z" />
    <glyph glyph-name="coschar_1_octo_01111101" unicode="&#xf1c1;" horiz-adv-x="248" 
d="M42 382c1 3 3 6 5 6s15 -23 29 -50c21 -41 26 -49 32 -47c7 2 8 6 8 47c0 43 0 46 8 46s8 -3 8 -45v-45l15 -6c18 -6 101 -86 101 -96s-77 -85 -98 -95l-18 -9v-42v-42h16c12 0 16 -2 16 -6c0 -5 -7 -6 -40 -6s-40 1 -40 6c0 4 4 6 16 6h16l-1 43c-1 40 -2 43 -9 44
c-6 1 -12 -8 -32 -47c-13 -26 -25 -48 -27 -48c-10 0 -5 16 17 60c14 26 22 48 20 48c-6 0 -84 81 -84 88c0 4 19 26 43 49l43 42l-23 47c-13 26 -22 49 -21 52zM116 267c0 7 -2 13 -4 13c-5 0 -5 -12 0 -20c3 -4 4 -3 4 7zM159 266c-11 8 -21 14 -23 14s-4 -18 -4 -40v-40
h46h47l-12 15c-15 18 -29 32 -54 51zM102 245c-4 10 -8 20 -10 21c-4 2 -44 -34 -58 -52l-10 -14h44h45l-3 13c-1 7 -5 22 -8 32zM112 181c0 2 -20 3 -44 3h-44l16 -19c9 -11 24 -26 34 -34c17 -14 18 -14 22 -7c4 8 16 51 16 57zM208 164l16 20h-46h-46v-40
c0 -22 1 -40 3 -40c9 0 53 36 73 60zM114 105c1 2 2 8 1 14l-1 11l-4 -11c-3 -11 -1 -19 4 -14z" />
    <glyph glyph-name="coschar_1_octo_11110111" unicode="&#xf23b;" horiz-adv-x="248" 
d="M84 384c0 8 3 8 40 8s40 0 40 -8c0 -7 -3 -8 -16 -8h-16l1 -41c1 -38 2 -41 9 -42c6 -1 12 8 32 47c13 26 25 48 27 48c9 0 5 -16 -17 -60c-14 -26 -22 -48 -20 -48c6 0 84 -81 84 -87c0 -7 -46 -59 -69 -77l-18 -14l24 -48c21 -42 25 -58 16 -58c-2 0 -14 22 -27 48
c-20 39 -26 48 -32 47c-7 -1 -8 -4 -9 -44l-1 -43h16c12 0 16 -2 16 -6c0 -5 -7 -6 -40 -6s-40 1 -40 6c0 4 4 6 16 6h16l-1 43c-1 40 -2 43 -9 44c-6 1 -12 -8 -32 -47c-13 -26 -25 -48 -27 -48c-10 0 -5 15 16 58l24 48l-18 14c-22 18 -69 70 -69 77c0 6 78 87 84 87
c2 0 -6 22 -20 48c-22 44 -27 60 -17 60c2 0 14 -22 27 -48c20 -39 26 -48 32 -47c7 1 8 4 9 42l1 41h-16c-13 0 -16 1 -16 8zM116 267c0 7 -2 13 -4 13c-5 0 -5 -12 0 -20c3 -4 4 -3 4 7zM140 273c0 4 -2 7 -4 7s-4 -6 -4 -13c0 -10 1 -11 4 -7c2 3 4 9 4 13zM102 245
c-4 10 -8 20 -10 21c-4 2 -76 -69 -76 -74c0 -2 17 -19 38 -40l38 -38l6 15c16 38 18 76 4 116zM212 216c-12 13 -29 30 -39 38l-17 14l-6 -14c-16 -40 -16 -85 0 -124l6 -15l19 17c10 10 28 27 39 39l19 21zM116 115c0 15 -2 17 -6 5c-2 -5 0 -11 2 -13c3 -3 4 -1 4 8z
M137 107c3 3 3 7 0 14c-4 9 -5 8 -5 -5c0 -11 1 -13 5 -9z" />
    <glyph glyph-name="coschar_1_octo_22_____7" unicode="&#xf24b;" horiz-adv-x="167" 
d="M22 231c8 11 13 13 23 12c11 -1 15 -6 41 -45c18 -26 33 -44 37 -45c6 -1 12 5 21 19c7 11 15 20 18 20c8 0 6 -4 -10 -28c-13 -19 -16 -22 -28 -22c-13 0 -15 2 -43 44c-18 26 -33 44 -37 45c-6 1 -11 -5 -20 -19c-7 -11 -16 -20 -19 -20c-10 0 -7 6 17 39z" />
    <glyph glyph-name="coschar_1_octo_11011010" unicode="&#xf21e;" horiz-adv-x="245" 
d="M83 384c0 8 3 8 40 8s40 0 40 -8s-3 -8 -40 -8s-40 0 -40 8zM168 331c16 31 30 57 32 57c10 0 4 -16 -18 -60c-27 -54 -41 -90 -45 -113l-3 -15h54c67 0 68 -2 36 -38c-13 -13 -32 -32 -43 -42l-21 -18l24 -48c21 -42 25 -58 16 -58c-2 0 -14 22 -27 48l-24 48l-17 -2
c-28 -4 -54 13 -114 76c-30 31 -27 34 45 34h60v12c0 20 14 58 45 119zM123 171v13h-51h-50l17 -20c16 -19 37 -39 59 -53c12 -8 41 -10 41 -2c0 2 -4 15 -8 27s-8 28 -8 35zM207 165l16 19h-44c-24 0 -44 -1 -44 -3c0 -6 12 -49 16 -57c4 -7 5 -7 22 7c10 8 25 23 34 34z
M83 -2c0 5 7 6 40 6s40 -1 40 -6s-7 -6 -40 -6s-40 1 -40 6z" />
    <glyph glyph-name="coschar_1_octo_11010011" unicode="&#xf217;" 
d="M82 384c0 8 3 8 40 8s40 0 40 -8c0 -7 -3 -8 -16 -8h-16v-61v-61l33 66c18 36 33 67 34 68s4 -1 6 -3c4 -4 -2 -20 -26 -68c-35 -72 -44 -105 -41 -137c3 -24 12 -59 18 -62c2 -1 22 16 44 39c30 30 41 40 45 36c5 -5 -25 -39 -63 -73l-20 -18l23 -48
c21 -43 26 -58 16 -58c-2 0 -14 22 -27 48c-20 40 -25 48 -32 47s-8 -4 -9 -44l-1 -43h16c12 0 16 -2 16 -6c0 -5 -7 -6 -40 -6s-40 1 -40 6c0 4 4 6 16 6h16v42v42l-16 8c-17 8 -45 32 -82 71c-16 16 -18 22 -14 26s12 -2 38 -29c31 -32 63 -60 71 -60c2 0 3 61 3 136v136
h-16c-13 0 -16 1 -16 8zM138 111c0 4 -2 10 -4 13c-3 4 -4 3 -4 -7c0 -7 2 -13 4 -13s4 3 4 7z" />
    <glyph glyph-name="coschar_1_octo_00111011" unicode="&#xf17f;" horiz-adv-x="248" 
d="M173 338c14 27 26 50 28 50c9 0 5 -16 -16 -58l-24 -47l44 -42c24 -23 43 -45 43 -49s-19 -26 -43 -49l-43 -42l23 -47c21 -42 25 -58 16 -58c-2 0 -14 23 -28 50c-22 43 -26 49 -33 47c-8 -2 -8 -5 -8 -47c0 -43 0 -46 -8 -46s-8 3 -8 45v45l-15 6
c-18 6 -101 86 -101 96s85 90 102 96l14 6v45c0 42 0 45 8 45s8 -3 8 -46c0 -42 0 -45 8 -47c7 -2 11 4 33 47zM116 240c0 22 -1 40 -3 40c-8 0 -41 -26 -67 -52l-28 -28h49h49v40zM140 273c0 4 -2 7 -4 7s-4 -6 -4 -13c0 -10 1 -11 4 -7c2 3 4 9 4 13zM204 226
c-14 14 -31 30 -37 34c-11 8 -11 8 -15 0c-4 -7 -16 -51 -16 -57c0 -2 21 -3 47 -3h47zM116 144v40h-46h-47l12 -15c19 -24 68 -65 77 -65c2 0 4 18 4 40zM214 170l10 14h-44h-45l3 -13c4 -20 15 -51 18 -53c4 -2 44 34 58 52zM140 111c0 4 -2 10 -4 13c-3 4 -4 3 -4 -7
c0 -7 2 -13 4 -13s4 3 4 7z" />
    <glyph glyph-name="coschar_1_octo_10011000" unicode="&#xf1dc;" 
d="M82 382c0 5 7 6 40 6s40 -1 40 -6s-7 -6 -40 -6s-40 1 -40 6zM0 193c3 6 12 7 122 7s119 -1 122 -7c4 -11 -78 -89 -103 -99c-18 -7 -20 -7 -38 0c-26 10 -107 88 -103 99zM211 169l12 15h-101h-101l12 -15c15 -18 29 -32 54 -51c26 -20 44 -20 70 0c25 19 39 33 54 51z
" />
    <glyph glyph-name="coschar_1_octo_10101011" unicode="&#xf1ef;" 
d="M82 382c0 5 7 6 40 6s40 -1 40 -6c0 -4 -4 -6 -16 -6h-16v-42c0 -38 1 -41 8 -43s11 4 33 47c14 27 26 50 28 50c9 0 5 -16 -16 -58l-24 -47l44 -43c57 -56 56 -56 -16 -56c-30 0 -53 -1 -53 -3c0 -15 17 -62 43 -114c24 -48 30 -64 26 -68c-2 -2 -6 -4 -7 -3
s-16 32 -34 68l-32 66v-65c0 -62 0 -65 -8 -65s-8 3 -8 92v92h-56c-48 0 -56 1 -58 7c-4 10 70 82 95 94l18 9l1 41v41h-16c-12 0 -16 2 -16 6zM114 240c0 22 -2 40 -4 40c-9 0 -58 -41 -77 -65l-12 -15h46h47v40zM138 273c0 4 -2 7 -4 7s-4 -6 -4 -13c0 -10 1 -11 4 -7
c2 3 4 9 4 13zM209 217c-8 9 -22 24 -34 34c-19 16 -21 17 -25 9c-4 -7 -16 -50 -16 -57c0 -2 20 -3 44 -3h45z" />
    <glyph glyph-name="coschar_1_octo_00100000" unicode="&#xf164;" horiz-adv-x="243" 
d="M85 280c13 9 23 12 37 12c24 0 43 -12 90 -60c27 -27 34 -38 30 -40s-14 6 -37 30c-18 18 -41 39 -51 46c-35 23 -59 14 -116 -46c-23 -24 -33 -32 -37 -30s4 13 31 40c20 20 43 41 53 48z" />
    <glyph glyph-name="coschar_1_octo_00100001" unicode="&#xf165;" horiz-adv-x="242" 
d="M113 339c0 42 0 45 8 45s8 -3 8 -45v-45l14 -6c20 -7 106 -91 98 -96c-4 -2 -14 6 -37 30c-29 30 -63 58 -72 58c-2 0 -3 -63 -3 -140c0 -137 0 -140 -8 -140s-8 3 -8 140c0 77 -1 140 -3 140c-9 0 -43 -28 -72 -58c-23 -24 -34 -32 -38 -30c-8 5 78 89 98 96l15 6v45z
" />
    <glyph glyph-name="coschar_0_spider_111010" unicode="&#xf13a;" horiz-adv-x="452" 
d="M23 389c29 13 371 12 401 1c35 -14 38 -365 3 -400c-34 -32 -369 -32 -403 0c-30 30 -33 388 -1 399zM285 293l61 59h-120h-120l61 -59l59 -61zM125 133l61 59l-61 59l-59 61v-120v-120zM386 189c0 62 -2 115 -5 115s-29 -26 -59 -56l-55 -56l60 -61l59 -59v117zM298 80
c-34 35 -67 64 -72 64s-38 -29 -72 -64l-63 -64h135h134z" />
    <glyph glyph-name="coschar_0_spider_111011" unicode="&#xf13b;" horiz-adv-x="452" 
d="M23 389c29 13 371 12 401 1c35 -14 38 -365 3 -400c-34 -32 -369 -32 -403 0c-30 30 -33 388 -1 399zM194 312c0 32 -8 40 -43 40h-42l37 -40c21 -22 40 -40 43 -40s5 18 5 40zM338 347c0 3 -18 5 -40 5c-32 0 -40 -8 -40 -43v-42l40 37c22 21 40 40 40 43zM125 133
l61 59l-61 59l-59 61v-120v-120zM386 189c0 62 -2 115 -5 115s-29 -26 -59 -56l-55 -56l60 -61l59 -59v117zM194 64c0 27 -2 48 -5 48s-25 -21 -51 -48l-47 -48h52c46 0 51 5 51 48zM314 64c-26 27 -48 48 -51 48s-5 -21 -5 -48c0 -43 5 -48 51 -48h51z" />
    <glyph glyph-name="coschar_1_octo_10001100" unicode="&#xf1d0;" horiz-adv-x="240" 
d="M38 382c1 3 3 6 5 6c5 0 56 -106 67 -138c5 -15 10 -33 10 -39v-11h60c57 0 60 0 60 -8s-3 -8 -60 -8h-60v-11c0 -6 -5 -24 -10 -39c-11 -32 -62 -138 -67 -138c-10 0 -5 16 20 66c26 53 37 80 43 109l3 13h-55c-52 0 -54 0 -54 8s2 8 54 8h55l-3 13
c-6 28 -17 56 -43 109c-15 30 -26 57 -25 60zM80 382c0 5 7 6 40 6s40 -1 40 -6s-7 -6 -40 -6s-40 1 -40 6z" />
    <glyph glyph-name="coschar_1_octo_10001101" unicode="&#xf1d1;" horiz-adv-x="240" 
d="M38 382c1 3 3 6 5 6c3 0 61 -116 67 -132c1 -3 2 22 2 57v63h-16c-12 0 -16 2 -16 6c0 5 7 6 40 6s40 -1 40 -6c0 -4 -4 -6 -16 -6h-16v-88v-88h56c53 0 56 0 56 -8s-3 -8 -56 -8h-56v-92c0 -89 0 -92 -8 -92s-8 3 -8 67c0 37 -1 64 -2 61c-6 -16 -64 -132 -67 -132
c-10 0 -5 16 20 66c26 53 37 80 43 109l3 13h-55c-52 0 -54 0 -54 8s2 8 54 8h55l-3 13c-6 28 -17 56 -43 109c-15 30 -26 57 -25 60z" />
    <glyph glyph-name="coschar_1_octo_10000110" unicode="&#xf1ca;" horiz-adv-x="163" 
d="M2 384c4 3 11 -7 31 -47c14 -28 31 -65 37 -82s12 -30 13 -28s4 10 6 19c7 22 65 142 69 142c10 0 5 -16 -20 -66c-36 -72 -43 -93 -43 -130s7 -58 43 -130c25 -50 30 -66 20 -66c-4 0 -62 120 -69 142c-2 9 -5 17 -6 19s-7 -11 -13 -28s-23 -54 -37 -82
c-20 -40 -27 -50 -31 -47c-5 3 0 14 23 61c36 72 42 93 42 131s-6 59 -42 131c-23 47 -28 58 -23 61zM41 382c0 5 7 6 40 6s40 -1 40 -6s-7 -6 -40 -6s-40 1 -40 6z" />
    <glyph glyph-name="coschar_1_octo_10000111" unicode="&#xf1cb;" horiz-adv-x="163" 
d="M2 384c4 3 10 -5 25 -35c11 -21 25 -53 33 -69l13 -30v63v63h-16c-12 0 -16 2 -16 6c0 5 7 6 40 6s40 -1 40 -6c0 -4 -4 -6 -16 -6h-16l1 -63c0 -35 1 -60 2 -57c6 16 63 132 66 132c10 0 5 -16 -20 -66c-36 -72 -43 -93 -43 -130s7 -58 43 -130c25 -50 30 -66 20 -66
c-3 0 -60 116 -66 132c-1 3 -2 -24 -2 -61c0 -64 -1 -67 -9 -67s-8 3 -8 67v67l-13 -30c-8 -16 -22 -48 -33 -69c-15 -30 -21 -38 -25 -35c-5 3 0 14 23 61c36 72 42 93 42 131s-6 59 -42 131c-23 47 -28 58 -23 61z" />
    <glyph glyph-name="coschar_1_octo_11011011" unicode="&#xf21f;" horiz-adv-x="245" 
d="M83 384c0 8 3 8 40 8s40 0 40 -8c0 -7 -3 -8 -16 -8h-16v-61c0 -48 1 -59 4 -51c15 34 62 124 64 124c10 0 5 -16 -17 -60c-27 -54 -41 -90 -45 -113l-3 -15h54c67 0 68 -2 36 -38c-13 -13 -32 -32 -43 -42l-21 -18l23 -48c21 -42 26 -58 17 -58c-2 0 -14 22 -27 48
c-20 39 -26 48 -32 47c-7 -1 -9 -5 -10 -44l-1 -43h17c12 0 16 -2 16 -6c0 -5 -7 -6 -40 -6s-40 1 -40 6c0 4 4 6 16 6h16v42v42l-17 8c-17 8 -45 32 -81 70c-29 31 -26 34 42 34h56v88v88h-16c-13 0 -16 1 -16 8zM115 144v40h-47h-46l17 -20c20 -24 64 -60 73 -60
c2 0 3 18 3 40zM207 165l16 19h-44c-24 0 -44 -1 -44 -3c0 -6 12 -49 16 -57c4 -7 5 -7 22 7c10 8 25 23 34 34zM139 111c0 4 -2 10 -4 13c-3 4 -4 3 -4 -7c0 -7 2 -13 4 -13s4 3 4 7z" />
    <glyph glyph-name="coschar_1_octo_11101010" unicode="&#xf22e;" horiz-adv-x="245" 
d="M83 384c0 8 3 8 40 8s40 0 40 -8s-3 -8 -40 -8s-40 0 -40 8zM173 340c13 26 25 48 27 48c9 0 5 -16 -16 -58l-24 -48l21 -18c11 -10 30 -29 43 -42c32 -36 31 -38 -36 -38h-54l3 -15c4 -24 18 -59 45 -113c22 -44 28 -60 18 -60c-4 0 -59 110 -69 139c-5 14 -8 30 -8 37
v12h-60c-72 0 -75 3 -45 34c60 63 86 80 114 76l17 -2zM139 275c0 7 -29 6 -41 -2c-22 -14 -43 -34 -59 -53l-17 -20h50h51v13c0 7 4 23 8 35s8 24 8 27zM208 218c-8 10 -24 25 -34 34c-18 15 -19 15 -23 8c-4 -8 -16 -51 -16 -57c0 -2 20 -3 44 -3h44zM83 -2c0 5 7 6 40 6
s40 -1 40 -6s-7 -6 -40 -6s-40 1 -40 6z" />
    <glyph glyph-name="coschar_1_octo_11010110" unicode="&#xf21a;" horiz-adv-x="243" 
d="M82 384c0 8 3 8 40 8s40 0 40 -8s-3 -8 -40 -8s-40 0 -40 8zM40 383c1 3 3 5 5 5c5 0 60 -112 68 -138c4 -12 8 -22 9 -22s5 10 9 23c6 18 60 131 66 137c1 1 4 -1 6 -3c4 -4 -2 -20 -26 -68c-35 -72 -45 -105 -42 -137c3 -24 13 -59 19 -62c2 -1 22 16 44 39
c30 30 41 40 45 36c5 -5 -25 -39 -63 -73l-21 -18l24 -48c21 -42 25 -58 16 -58c-2 0 -14 21 -27 47l-24 47h-26h-27l-23 -47c-13 -26 -25 -47 -27 -47c-10 0 -5 16 17 60c14 26 23 48 21 48c-4 0 -38 33 -67 63c-15 16 -19 22 -15 26s14 -4 45 -36c22 -23 42 -40 44 -39
c6 3 16 38 19 62c3 32 -6 65 -41 136c-16 34 -29 64 -28 67zM131 133c-4 13 -8 23 -9 23c-2 0 -16 -41 -16 -48c0 -5 32 -6 32 -1c0 2 -3 14 -7 26zM82 -2c0 5 7 6 40 6s40 -1 40 -6s-7 -6 -40 -6s-40 1 -40 6z" />
    <glyph glyph-name="coschar_1_octo_10001001" unicode="&#xf1cd;" horiz-adv-x="240" 
d="M80 384c0 8 3 8 40 8s40 0 40 -8c0 -7 -3 -8 -16 -8h-16v-88v-88h56c53 0 56 0 56 -8s-3 -8 -56 -8h-56v-92c0 -89 0 -92 -8 -92s-8 3 -8 92v92h-56c-53 0 -56 0 -56 8s3 8 56 8h56v88v88h-16c-13 0 -16 1 -16 8z" />
    <glyph glyph-name="coschar_0_spider_011000" unicode="&#xf118;" horiz-adv-x="417" 
d="M1 376c0 19 30 24 182 24c101 0 194 -5 208 -10c21 -8 26 -42 26 -200c0 -179 -2 -190 -32 -190s-32 11 -32 155v157l-165 -165c-130 -130 -168 -160 -184 -144s14 54 144 184l165 165h-157c-128 0 -155 5 -155 24z" />
    <glyph glyph-name="coschar_0_spider_011001" unicode="&#xf119;" horiz-adv-x="418" 
d="M2 376c0 19 30 24 182 24c101 0 194 -5 208 -10c21 -8 26 -42 26 -200c0 -179 -2 -190 -32 -190s-32 11 -32 155v155l-64 -62c-61 -59 -64 -69 -64 -155c0 -82 -3 -93 -32 -93c-26 0 -32 11 -32 59v59l-69 -67c-58 -56 -74 -64 -88 -46c-14 16 0 40 69 107
c82 82 88 91 88 163v77h-80c-61 0 -80 6 -80 24zM306 347c0 3 -18 5 -40 5c-32 0 -40 -8 -40 -43v-42l40 37c22 21 40 40 40 43z" />
    <glyph glyph-name="coschar_1_octo_11010100" unicode="&#xf218;" 
d="M82 384c0 8 3 8 40 8s40 0 40 -8s-3 -8 -40 -8s-40 0 -40 8zM40 383c1 3 3 5 5 5c5 0 59 -110 69 -140c11 -34 12 -77 1 -110s-12 -34 6 -34c20 0 41 15 84 60c26 26 34 33 38 29s-1 -10 -19 -30c-54 -59 -83 -77 -111 -73l-17 2l-24 -48c-13 -26 -25 -48 -27 -48
c-10 0 -5 16 17 60c14 26 23 48 21 48c-4 0 -38 33 -67 63c-15 16 -19 22 -15 26s14 -4 45 -36c22 -23 42 -40 44 -39c6 3 16 38 19 62c3 32 -6 65 -41 136c-16 34 -29 64 -28 67zM82 -2c0 5 7 6 40 6s40 -1 40 -6s-7 -6 -40 -6s-40 1 -40 6z" />
    <glyph glyph-name="coschar_1_octo_10000011" unicode="&#xf1c7;" horiz-adv-x="121" 
d="M0 382c0 5 7 6 40 6s40 -1 40 -6c0 -4 -4 -6 -16 -6h-16v-63v-63l13 30c8 16 22 48 33 69c15 30 22 38 26 35c5 -3 0 -14 -23 -61c-36 -72 -43 -93 -43 -131s7 -59 43 -131c23 -47 28 -58 23 -61c-4 -3 -11 5 -26 35c-11 21 -25 53 -33 69l-13 30v-67c0 -64 0 -67 -8 -67
s-8 3 -8 188v188h-16c-12 0 -16 2 -16 6z" />
    <glyph glyph-name="coschar_1_octo_10101010" unicode="&#xf1ee;" horiz-adv-x="243" 
d="M82 382c0 5 7 6 40 6s40 -1 40 -6s-7 -6 -40 -6s-40 1 -40 6zM171 338c14 27 26 50 28 50c9 0 5 -16 -16 -58l-24 -47l44 -43c57 -56 56 -56 -16 -56h-54l3 -15c4 -24 18 -59 45 -113c22 -44 27 -60 17 -60c-4 0 -67 130 -72 150c-2 9 -4 21 -4 27v11h-60
c-78 0 -78 1 -26 53c47 47 74 63 96 56l14 -4zM138 275c0 3 -6 5 -16 5c-12 0 -20 -3 -35 -14c-25 -19 -39 -33 -54 -51l-12 -15h50h51v13c0 7 4 23 8 35s8 24 8 27zM209 217c-8 9 -23 24 -35 34c-19 16 -20 17 -24 9c-4 -7 -16 -50 -16 -57c0 -2 20 -3 44 -3h45z" />
    <glyph glyph-name="coschar_1_octo_01001001" unicode="&#xf18d;" horiz-adv-x="240" 
d="M112 292c0 89 0 92 8 92s8 -3 8 -92v-92h56c53 0 56 0 56 -8s-3 -8 -56 -8h-56v-88v-88h16c13 0 16 -1 16 -8c0 -8 -3 -8 -40 -8s-40 0 -40 8c0 7 3 8 16 8h16v88v88h-56c-53 0 -56 0 -56 8s3 8 56 8h56v92z" />
    <glyph glyph-name="coschar_1_octo_01001000" unicode="&#xf18c;" horiz-adv-x="240" 
d="M0 192c0 8 3 8 120 8s120 0 120 -8s-3 -8 -120 -8s-120 0 -120 8zM80 0c0 8 3 8 40 8s40 0 40 -8s-3 -8 -40 -8s-40 0 -40 8z" />
    <glyph glyph-name="coschar_1_octo_00011111" unicode="&#xf163;" 
d="M40 382c1 3 3 6 5 6c3 0 61 -116 67 -132c1 -3 2 24 2 61c0 64 0 67 8 67s8 -3 8 -65v-65l32 66c18 36 33 67 34 68s5 -1 7 -3c4 -4 -2 -20 -26 -68c-26 -52 -43 -99 -43 -114c0 -2 24 -3 54 -3c72 0 72 0 15 -56l-44 -43l24 -47c21 -42 25 -58 16 -58
c-2 0 -14 23 -28 50c-22 43 -26 49 -33 47c-8 -2 -8 -5 -8 -47c0 -43 0 -46 -8 -46s-8 3 -8 46c0 42 0 45 -8 47c-7 2 -11 -4 -33 -47c-14 -27 -26 -50 -28 -50c-9 0 -5 16 16 58l24 47l-44 43c-57 56 -57 56 16 56h54l-3 13c-6 28 -17 56 -43 109c-15 30 -26 57 -25 60z
M108 171l3 13h-48h-47l35 -34c19 -19 36 -34 38 -34c3 0 14 30 19 55zM193 150l35 34h-47h-48l3 -13c4 -22 14 -51 18 -53c2 -2 20 13 39 32zM112 105c1 2 2 8 1 16l-1 13l-4 -13c-3 -13 -1 -21 4 -16zM138 111c0 4 -2 10 -4 13c-3 4 -4 3 -4 -7c0 -7 2 -13 4 -13s4 3 4 7z
" />
    <glyph glyph-name="coschar_1_octo_00011110" unicode="&#xf162;" 
d="M40 382c1 3 3 6 5 6c4 0 63 -121 69 -143c6 -20 10 -22 14 -4c3 16 66 147 71 147c10 0 5 -16 -17 -60c-27 -54 -42 -90 -46 -113l-2 -15h53c73 0 73 0 16 -56l-44 -43l24 -47c21 -42 25 -58 16 -58c-2 0 -14 21 -27 48l-24 49l-26 1h-25l-25 -49
c-13 -27 -25 -49 -27 -49c-9 0 -5 16 16 58l24 47l-44 43c-57 56 -57 56 16 56h54l-3 13c-6 28 -17 56 -43 109c-15 30 -26 57 -25 60zM108 171l3 13h-48h-47l35 -34c19 -19 36 -34 38 -34c3 0 14 30 19 55zM193 150l35 34h-47h-48l3 -13c4 -22 14 -51 18 -53
c2 -2 20 13 39 32zM131 133c-4 13 -8 23 -9 23c-2 0 -16 -40 -16 -47c0 -5 32 -7 32 -2c0 2 -3 14 -7 26z" />
    <glyph glyph-name="coschar_1_octo_10010001" unicode="&#xf1d5;" 
d="M82 382c0 5 7 6 40 6s40 -1 40 -6c0 -4 -4 -6 -16 -6h-16v-136c0 -80 1 -136 3 -136c8 0 45 30 74 61c25 26 32 32 36 28s-3 -13 -35 -45c-25 -25 -47 -43 -59 -49l-19 -9v-45c0 -42 0 -45 -8 -45s-8 3 -8 45l-1 45l-18 9c-12 6 -34 24 -59 49c-32 32 -39 41 -35 45
s11 -2 36 -28c29 -31 65 -61 73 -61c2 0 4 56 4 136v136h-16c-12 0 -16 2 -16 6z" />
    <glyph glyph-name="coschar_1_octo_10010000" unicode="&#xf1d4;" 
d="M83 382c0 5 7 6 40 6s40 -1 40 -6s-7 -6 -40 -6s-40 1 -40 6zM0 191c5 8 9 6 35 -23c14 -15 35 -36 48 -46c41 -31 61 -24 124 43c25 27 32 32 36 28c8 -8 -75 -89 -101 -99c-18 -7 -20 -7 -38 0c-14 6 -31 19 -63 50c-27 26 -43 44 -41 47z" />
    <glyph glyph-name="coschar_1_octo_01100001" unicode="&#xf1a5;" 
d="M114 339c0 42 0 45 8 45s8 -3 8 -45v-45l19 -9c12 -6 34 -24 59 -49c32 -32 39 -41 35 -45s-11 2 -36 28c-29 31 -66 61 -74 61c-2 0 -3 -56 -3 -138v-138h16c12 0 16 -2 16 -6c0 -5 -7 -6 -40 -6s-40 1 -40 6c0 4 4 6 16 6h16v138c0 82 -2 138 -4 138
c-8 0 -44 -30 -73 -61c-25 -26 -32 -32 -36 -28s3 13 35 45c25 25 47 43 59 49l18 9z" />
    <glyph glyph-name="coschar_1_octo_01100000" unicode="&#xf1a4;" 
d="M95 286c11 6 23 10 27 10c16 0 48 -22 86 -60c32 -32 39 -41 35 -45s-11 2 -36 28c-76 81 -94 81 -170 0c-25 -26 -32 -32 -36 -28s3 13 35 45c24 24 47 44 59 50zM82 -2c0 5 7 6 40 6s40 -1 40 -6s-7 -6 -40 -6s-40 1 -40 6z" />
    <glyph glyph-name="coschar_1_octo_00110001" unicode="&#xf175;" horiz-adv-x="248" 
d="M116 339c0 42 0 45 8 45s8 -3 8 -45v-45l14 -6c17 -6 102 -86 102 -96s-83 -90 -101 -96l-15 -6v-45c0 -42 0 -45 -8 -45s-8 3 -8 45v45l-15 6c-18 6 -101 86 -101 96s85 90 102 96l14 6v45zM116 192c0 48 -2 88 -4 88c-11 0 -96 -76 -96 -86c0 -12 83 -90 96 -90
c2 0 4 38 4 88zM154 270c-8 6 -16 10 -18 10s-4 -40 -4 -88c0 -50 2 -88 4 -88c13 0 96 78 96 90c0 6 -60 64 -78 76z" />
    <glyph glyph-name="coschar_1_octo_00110000" unicode="&#xf174;" horiz-adv-x="248" 
d="M90 282c11 8 20 10 34 10s23 -2 34 -10c22 -15 90 -82 90 -90c0 -4 -19 -26 -43 -49c-31 -30 -48 -44 -62 -49c-18 -7 -20 -7 -38 0c-14 5 -31 19 -62 49c-24 23 -43 45 -43 49c0 8 68 75 90 90zM154 270c-10 6 -21 10 -30 10s-20 -4 -30 -10c-18 -12 -78 -70 -78 -76
c0 -7 44 -54 68 -72c33 -25 47 -25 80 0c24 18 68 65 68 72c0 6 -60 64 -78 76z" />
    <glyph glyph-name="coschar_1_octo_10110101" unicode="&#xf1f9;" horiz-adv-x="248" 
d="M42 382c1 3 3 6 5 6s14 -23 28 -50c21 -43 26 -49 33 -47s8 5 8 43v42h-16c-12 0 -16 2 -16 6c0 5 7 6 40 6s40 -1 40 -6c0 -4 -4 -6 -16 -6h-16v-41v-41l15 -6c18 -6 101 -86 101 -96s-77 -85 -98 -95l-18 -9v-44c0 -41 0 -44 -8 -44c-7 0 -8 3 -9 45c-1 41 -2 45 -9 46
c-6 1 -12 -7 -32 -47c-13 -26 -25 -48 -27 -48c-10 0 -5 16 17 60c14 26 22 48 20 48c-6 0 -84 81 -84 88c0 4 19 26 43 49l43 42l-23 47c-13 26 -22 49 -21 52zM116 267c0 7 -2 13 -4 13c-5 0 -5 -12 0 -20c3 -4 4 -3 4 7zM164 262c-14 10 -26 18 -28 18s-4 -38 -4 -88
c0 -48 1 -88 3 -88c9 0 50 34 76 64l22 24l-23 26c-12 14 -33 34 -46 44zM103 243c-4 12 -9 22 -11 23c-4 2 -76 -68 -76 -74s72 -76 76 -74c2 1 7 11 11 23c9 28 9 74 0 102zM114 105c1 2 2 8 1 14l-1 11l-4 -11c-3 -11 -1 -19 4 -14z" />
    <glyph glyph-name="coschar_1_octo_10110100" unicode="&#xf1f8;" horiz-adv-x="248" 
d="M42 382c1 3 3 6 5 6s14 -23 28 -50l25 -50l12 5c22 8 45 -5 93 -52c24 -23 43 -45 43 -49c0 -10 -76 -85 -98 -96c-14 -7 -22 -8 -35 -6l-17 2l-24 -48c-13 -26 -25 -48 -27 -48c-10 0 -5 16 17 60c14 26 22 48 20 48c-6 0 -84 81 -84 88c0 4 19 26 43 49l43 42l-23 47
c-13 26 -22 49 -21 52zM164 262c-19 14 -28 18 -40 18c-8 0 -16 -2 -16 -4s3 -15 8 -29c11 -33 11 -77 0 -109c-11 -33 -11 -34 7 -34c21 0 51 22 88 64l22 24l-23 26c-12 14 -33 34 -46 44zM103 243c-4 12 -9 22 -11 23c-4 2 -76 -68 -76 -74s72 -76 76 -74c2 1 7 11 11 23
c9 28 9 74 0 102zM84 382c0 5 7 6 40 6s40 -1 40 -6s-7 -6 -40 -6s-40 1 -40 6z" />
    <glyph glyph-name="coschar_1_octo_01110000" unicode="&#xf1b4;" horiz-adv-x="248" 
d="M100 288c22 10 26 10 48 0c20 -9 100 -86 100 -96s-77 -85 -97 -95c-22 -11 -32 -11 -54 0c-20 10 -97 85 -97 95s80 87 100 96zM164 262c-33 25 -47 25 -80 0c-13 -10 -34 -30 -46 -44l-23 -26l22 -24c36 -42 67 -64 87 -64s51 22 87 64l22 24l-23 26
c-12 14 -33 34 -46 44zM84 -2c0 5 7 6 40 6s40 -1 40 -6s-7 -6 -40 -6s-40 1 -40 6z" />
    <glyph glyph-name="coschar_1_octo_11100000" unicode="&#xf224;" 
d="M82 384c0 8 3 8 40 8s40 0 40 -8s-3 -8 -40 -8s-40 0 -40 8zM96 287c9 5 20 9 26 9c22 0 55 -25 102 -75c18 -20 23 -26 19 -30s-12 3 -38 29c-60 63 -81 72 -115 47c-10 -7 -32 -28 -50 -47c-26 -27 -34 -33 -38 -29s-2 10 14 26c36 38 63 61 80 70zM82 -2c0 5 7 6 40 6
s40 -1 40 -6s-7 -6 -40 -6s-40 1 -40 6z" />
    <glyph glyph-name="coschar_1_octo_01101000" unicode="&#xf1ac;" 
d="M95 286c11 6 23 10 27 10c16 0 48 -22 85 -59c29 -29 38 -41 36 -46c-2 -6 -13 -7 -121 -7s-120 1 -122 7c-4 10 69 82 95 95zM161 262c-33 25 -46 25 -79 0c-13 -10 -32 -28 -42 -39l-18 -21l50 -1h100l50 1l-18 21c-10 11 -30 29 -43 39zM82 -2c0 5 7 6 40 6
s40 -1 40 -6s-7 -6 -40 -6s-40 1 -40 6z" />
    <glyph glyph-name="coschar_1_octo_10111010" unicode="&#xf1fe;" horiz-adv-x="248" 
d="M84 382c0 5 7 6 40 6s40 -1 40 -6s-7 -6 -40 -6s-40 1 -40 6zM173 338c14 27 26 50 28 50c9 0 5 -16 -16 -58l-23 -47l43 -42c24 -23 43 -45 43 -49c0 -7 -78 -88 -84 -88c-2 0 6 -22 20 -48c22 -44 26 -60 17 -60c-2 0 -14 22 -27 48l-24 48l-17 -2c-13 -2 -21 -1 -35 6
c-21 11 -98 86 -98 96c0 4 19 26 43 49c48 47 71 60 93 52l11 -4zM140 275c0 3 -6 5 -16 5c-12 0 -20 -3 -35 -14c-25 -19 -39 -33 -54 -51l-12 -15h51h50v13c0 7 4 23 8 35s8 24 8 27zM211 217c-8 9 -22 24 -34 34c-19 16 -21 17 -25 9c-4 -7 -16 -50 -16 -57
c0 -2 20 -3 44 -3h45zM124 171v13h-50h-50l16 -20c16 -19 38 -39 60 -53c12 -8 40 -10 40 -2c0 2 -4 15 -8 27s-8 28 -8 35zM208 165l16 19h-44c-24 0 -44 -1 -44 -3c0 -6 12 -49 16 -57c4 -7 5 -7 22 7c10 8 25 23 34 34z" />
    <glyph glyph-name="coschar_1_octo_01110001" unicode="&#xf1b5;" horiz-adv-x="248" 
d="M116 339c0 42 0 45 8 45s8 -3 8 -45v-45l15 -6c18 -6 101 -86 101 -96s-77 -85 -98 -95l-18 -9v-42v-42h16c12 0 16 -2 16 -6c0 -5 -7 -6 -40 -6s-40 1 -40 6c0 4 4 6 16 6h16v42v42l-18 8c-21 10 -98 86 -98 96s84 90 101 96l15 6v45zM116 192c0 50 -2 88 -4 88
c-8 0 -52 -38 -74 -62l-23 -26l22 -24c26 -30 66 -64 76 -64c2 0 3 40 3 88zM164 262c-14 10 -26 18 -28 18s-4 -38 -4 -88c0 -48 1 -88 3 -88c9 0 50 34 76 64l22 24l-23 26c-12 14 -33 34 -46 44z" />
    <glyph glyph-name="coschar_1_octo_11010101" unicode="&#xf219;" 
d="M82 384c0 8 3 8 40 8s40 0 40 -8c0 -7 -3 -8 -16 -8h-16v-136c0 -75 1 -136 3 -136c8 0 41 28 72 60c26 26 34 33 38 29s-1 -10 -19 -30c-33 -36 -57 -57 -77 -67l-17 -9v-41v-42h16c12 0 16 -2 16 -6c0 -5 -7 -6 -40 -6s-40 1 -40 6c0 4 4 6 16 6h17l-2 43
c-1 39 -2 43 -9 44c-6 1 -12 -7 -32 -47c-13 -26 -25 -48 -27 -48c-10 0 -5 16 17 60c14 26 23 48 21 48c-4 0 -38 33 -67 63c-15 16 -19 22 -15 26s14 -4 45 -36c22 -23 42 -40 44 -39c6 3 16 38 19 62c3 32 -7 65 -42 137c-24 48 -30 64 -26 68c2 2 6 4 7 3
c2 -2 54 -107 61 -124c4 -8 5 3 5 51v61h-16c-13 0 -16 1 -16 8zM113 105c1 2 1 8 0 14l-1 11l-3 -11c-3 -11 -1 -19 4 -14z" />
    <glyph glyph-name="coschar_1_octo_10000010" unicode="&#xf1c6;" horiz-adv-x="124" 
d="M0 382c0 5 7 6 40 6s40 -1 40 -6s-7 -6 -40 -6s-40 1 -40 6zM83 325c21 44 31 62 35 60c3 -1 6 -3 6 -5s-12 -26 -27 -56c-35 -69 -43 -94 -43 -132s7 -59 43 -131c23 -47 28 -58 23 -61c-4 -3 -12 8 -33 50c-35 70 -47 106 -47 141c0 38 7 60 43 134z" />
    <glyph glyph-name="coschar_1_octo_22_____3" unicode="&#xf247;" horiz-adv-x="255" 
d="M5 386c2 1 45 1 95 1c81 -1 92 -2 106 -9c17 -9 31 -27 38 -50c2 -8 7 -80 9 -169c4 -143 3 -155 -3 -161s-15 -7 -89 -5c-90 2 -106 5 -127 23c-27 24 -34 75 -34 259c0 83 1 109 5 111zM204 366c-13 7 -23 8 -101 9l-87 1v-132c0 -178 6 -210 39 -226
c13 -6 26 -8 100 -9l85 -2v138c0 176 -4 203 -36 221z" />
    <glyph glyph-name="coschar_0_spider_101011" unicode="&#xf12b;" horiz-adv-x="428" 
d="M23 389c10 5 22 9 27 9c3 2 38 -28 75 -65l69 -67v59c0 48 6 59 32 59s32 -11 32 -59v-59l72 70c56 56 77 65 91 51c16 -16 0 -38 -67 -107l-87 -88l84 -85c123 -125 112 -139 -120 -139c-138 0 -189 6 -207 22c-30 30 -33 388 -1 399zM125 133l61 59l-61 59l-59 61v-120
v-120zM194 64c0 27 -2 48 -5 48s-25 -21 -51 -48l-47 -48h52c46 0 51 5 51 48zM314 64c-26 27 -48 48 -51 48s-5 -21 -5 -48c0 -43 5 -48 51 -48h51z" />
    <glyph glyph-name="coschar_0_spider_101010" unicode="&#xf12a;" horiz-adv-x="428" 
d="M23 389c10 5 22 9 27 9c3 2 45 -35 91 -81l85 -83l88 86c69 69 91 83 107 67s2 -38 -67 -107l-87 -88l84 -85c123 -125 112 -139 -120 -139c-138 0 -189 6 -207 22c-30 30 -33 388 -1 399zM125 133l61 59l-61 59l-59 61v-120v-120zM298 80c-34 35 -67 64 -72 64
s-38 -29 -72 -64l-63 -64h135h134z" />
    <glyph glyph-name="coschar_1_octo_01000000" unicode="&#xf184;" horiz-adv-x="176" 
d="M41 258c23 38 43 66 47 66s24 -28 47 -66l41 -66l-42 -68c-24 -38 -44 -68 -46 -68s-22 30 -46 68l-42 68zM125 248c-20 31 -36 56 -37 56s-17 -25 -37 -56l-35 -56l35 -56c20 -31 36 -56 37 -56s17 25 37 56l35 56zM48 -2c0 5 7 6 40 6s40 -1 40 -6s-7 -6 -40 -6
s-40 1 -40 6z" />
    <glyph glyph-name="coschar_1_octo_00000111" unicode="&#xf14b;" horiz-adv-x="168" 
d="M127 325c21 44 31 62 35 60c3 -1 6 -3 6 -5s-12 -26 -27 -56c-35 -69 -43 -94 -43 -132s7 -59 43 -131c23 -47 28 -58 23 -61c-4 -3 -11 5 -26 35c-11 21 -25 53 -33 69l-13 30v-67c0 -64 0 -67 -8 -67s-8 3 -8 67c0 51 -2 65 -5 57c-21 -48 -61 -124 -65 -124
c-3 0 -6 1 -6 2s12 26 26 54c61 121 61 151 0 272c-14 28 -26 53 -26 54s3 2 6 2c4 0 44 -76 65 -124c3 -8 5 5 5 57c0 64 0 67 8 67s8 -3 8 -67c0 -37 2 -64 3 -61s16 34 32 69z" />
    <glyph glyph-name="coschar_1_octo_00000110" unicode="&#xf14a;" horiz-adv-x="168" 
d="M127 325c21 44 31 62 35 60c3 -1 6 -3 6 -5s-12 -26 -27 -56c-35 -69 -43 -94 -43 -132s7 -59 43 -131c23 -47 28 -58 23 -61c-4 -3 -12 7 -32 47c-14 28 -30 65 -36 82s-12 32 -13 33s-4 -4 -5 -12c-6 -32 -63 -150 -73 -150c-3 0 -5 1 -5 2s12 26 26 54
c61 121 61 151 0 272c-14 28 -26 53 -26 54s2 2 5 2c10 0 67 -118 73 -150c3 -17 7 -14 14 10c3 10 18 46 35 81z" />
    <glyph glyph-name="coschar_1_octo_01000001" unicode="&#xf185;" horiz-adv-x="80" 
d="M32 196c0 185 0 188 8 188s8 -3 8 -188v-188h16c13 0 16 -1 16 -8c0 -8 -3 -8 -40 -8s-40 0 -40 8c0 7 3 8 16 8h16v188z" />
    <glyph glyph-name="coschar_1_octo_11111010" unicode="&#xf23e;" horiz-adv-x="248" 
d="M84 384c0 8 3 8 40 8s40 0 40 -8s-3 -8 -40 -8s-40 0 -40 8zM174 340c13 26 25 48 27 48c9 0 5 -16 -17 -60c-14 -26 -22 -48 -20 -48c6 0 84 -81 84 -87c0 -7 -46 -59 -69 -77l-18 -14l24 -48c21 -42 25 -58 16 -58c-2 0 -14 22 -27 48l-24 48l-17 -3
c-26 -3 -48 10 -94 56c-22 22 -39 43 -39 47c0 10 77 85 98 96c14 7 22 9 35 7l17 -3zM140 275c0 7 -28 6 -40 -2c-22 -14 -44 -34 -60 -53l-16 -20h50h50v13c0 7 4 23 8 35s8 24 8 27zM209 218c-8 10 -24 25 -34 34c-18 15 -19 15 -23 8c-4 -8 -16 -51 -16 -57
c0 -2 20 -3 44 -3h44zM124 172v12h-51h-51l34 -34c34 -35 51 -46 69 -46c15 0 16 5 7 32c-4 13 -8 29 -8 36zM224 182c1 1 -19 2 -44 2h-45l3 -13c4 -20 15 -51 18 -53c2 -2 48 42 68 64zM84 -2c0 5 7 6 40 6s40 -1 40 -6s-7 -6 -40 -6s-40 1 -40 6z" />
    <glyph glyph-name="coschar_1_octo_11101110" unicode="&#xf232;" horiz-adv-x="245" 
d="M83 384c0 8 3 8 40 8s40 0 40 -8s-3 -8 -40 -8s-40 0 -40 8zM40 382c1 3 4 6 6 6s14 -21 27 -47l24 -47h26h26l24 47c13 26 25 47 27 47c9 0 5 -16 -16 -58l-24 -48l21 -18c11 -10 30 -29 43 -42c32 -36 31 -38 -36 -38h-54l3 -15c4 -24 18 -59 45 -113
c22 -45 28 -60 18 -60c-5 0 -60 110 -68 137c-4 13 -8 23 -9 23s-5 -10 -9 -23c-9 -27 -63 -137 -68 -137c-10 0 -6 15 17 60c27 54 41 89 45 113l3 15h-53c-66 0 -69 3 -40 34c28 30 62 62 66 62c2 0 -8 22 -22 48c-13 27 -23 51 -22 54zM139 277c0 2 -7 3 -16 3
s-16 -1 -16 -3c0 -6 14 -49 16 -49s16 43 16 49zM100 245c-4 10 -7 20 -8 21c-4 2 -40 -31 -57 -51l-13 -15h45h45l-3 13c-1 7 -6 22 -9 32zM208 218c-8 10 -24 25 -34 34c-18 15 -19 15 -23 8c-4 -8 -16 -51 -16 -57c0 -2 20 -3 44 -3h44zM83 -2c0 5 7 6 40 6s40 -1 40 -6
s-7 -6 -40 -6s-40 1 -40 6z" />
    <glyph glyph-name="coschar_1_octo_11100001" unicode="&#xf225;" horiz-adv-x="243" 
d="M82 384c0 8 3 8 40 8s40 0 40 -8c0 -7 -3 -8 -16 -8h-16v-40v-39l17 -9c33 -17 104 -89 96 -97c-4 -4 -12 3 -38 29c-31 32 -63 60 -71 60c-2 0 -4 -62 -4 -138v-138h16c12 0 16 -2 16 -6c0 -5 -7 -6 -40 -6s-40 1 -40 6c0 4 4 6 16 6h16v138c0 76 -1 138 -3 138
c-8 0 -40 -28 -71 -60c-26 -27 -34 -33 -38 -29s-2 10 14 26c39 41 65 63 82 71l16 8v40v40h-16c-13 0 -16 1 -16 8z" />
    <glyph glyph-name="coschar_1_octo_01101001" unicode="&#xf1ad;" 
d="M114 339c0 42 0 45 8 45s8 -3 8 -45v-45l19 -9c25 -12 98 -84 94 -94c-2 -6 -10 -7 -58 -7h-55v-90v-90h16c12 0 16 -2 16 -6c0 -5 -7 -6 -40 -6s-40 1 -40 6c0 4 4 6 16 6h16v90v90h-56c-48 0 -56 1 -58 7c-4 10 70 82 95 94l18 9zM114 240c0 22 -2 40 -4 40
c-9 0 -58 -41 -77 -65l-12 -15h46h47v40zM157 266c-11 8 -22 14 -24 14s-3 -18 -3 -40v-40h46h47l-12 15c-15 18 -29 32 -54 51z" />
    <glyph glyph-name="coschar_1_octo_10111011" unicode="&#xf1ff;" horiz-adv-x="248" 
d="M84 382c0 5 7 6 40 6s40 -1 40 -6c0 -4 -4 -6 -16 -6h-16v-42c0 -38 1 -41 8 -43s12 5 33 47c14 27 26 50 28 50c9 0 5 -16 -16 -58l-23 -47l43 -42c24 -23 43 -45 43 -49c0 -7 -78 -88 -84 -88c-2 0 6 -22 20 -48c22 -44 26 -60 17 -60c-2 0 -14 22 -27 48
c-20 39 -26 48 -32 47c-7 -1 -8 -5 -9 -46c-1 -42 -2 -45 -9 -45c-8 0 -8 3 -8 44v44l-18 9c-21 10 -98 85 -98 95s84 90 101 96l15 6v41v41h-16c-12 0 -16 2 -16 6zM116 240c0 22 -2 40 -4 40c-9 0 -58 -41 -77 -65l-12 -15h47h46v40zM140 273c0 4 -2 7 -4 7s-4 -6 -4 -13
c0 -10 1 -11 4 -7c2 3 4 9 4 13zM211 217c-8 9 -22 24 -34 34c-19 16 -21 17 -25 9c-4 -7 -16 -50 -16 -57c0 -2 20 -3 44 -3h45zM116 144v40h-46h-46l16 -20c20 -24 64 -60 73 -60c2 0 3 18 3 40zM208 165l16 19h-44c-24 0 -44 -1 -44 -3c0 -6 12 -49 16 -57
c4 -7 5 -7 22 7c10 8 25 23 34 34zM140 111c0 4 -2 10 -4 13c-3 4 -4 3 -4 -7c0 -7 2 -13 4 -13s4 3 4 7z" />
    <glyph glyph-name="coschar_1_octo_01010001" unicode="&#xf195;" 
d="M114 244c0 137 0 140 8 140s8 -3 8 -140c0 -83 1 -140 3 -140c8 0 45 30 74 61c25 26 32 32 36 28s-3 -13 -35 -45c-25 -25 -47 -43 -59 -49l-19 -9v-43v-43h16c12 0 16 -2 16 -6c0 -5 -7 -6 -40 -6s-40 1 -40 6c0 4 4 6 16 6h16v43l-1 43l-18 9c-12 6 -34 24 -59 49
c-32 32 -39 41 -35 45s11 -2 36 -28c29 -31 65 -61 73 -61c2 0 4 57 4 140z" />
    <glyph glyph-name="coschar_1_octo_01010000" unicode="&#xf194;" 
d="M0 191c5 8 9 6 35 -23c14 -15 35 -36 48 -46c41 -31 61 -24 124 43c25 27 32 32 36 28c8 -8 -75 -89 -101 -99c-18 -7 -20 -7 -38 0c-14 6 -31 19 -63 50c-27 26 -43 44 -41 47zM83 -2c0 5 7 6 40 6s40 -1 40 -6s-7 -6 -40 -6s-40 1 -40 6z" />
    <glyph glyph-name="coschar_1_octo_11001011" unicode="&#xf20f;" horiz-adv-x="240" 
d="M80 384c0 8 3 8 40 8s40 0 40 -8c0 -7 -3 -8 -16 -8h-16v-61v-61l32 66c18 36 33 67 34 68s5 -1 7 -3c4 -4 -2 -20 -26 -68c-26 -52 -43 -99 -43 -114c0 -2 24 -3 54 -3c51 0 54 0 54 -8s-3 -8 -54 -8c-30 0 -54 -1 -54 -3c0 -15 17 -62 43 -114c24 -48 30 -64 26 -68
c-2 -2 -6 -4 -7 -3s-16 32 -34 68l-32 66v-63v-63h16c12 0 16 -2 16 -6c0 -5 -7 -6 -40 -6s-40 1 -40 6c0 4 4 6 16 6h16v90v90h-56c-53 0 -56 0 -56 8s3 8 56 8h56v88v88h-16c-13 0 -16 1 -16 8z" />
    <glyph glyph-name="coschar_1_octo_00101111" unicode="&#xf173;" 
d="M40 382c1 3 3 6 5 6s14 -23 28 -50c22 -43 26 -49 33 -47c8 2 8 5 8 47c0 43 0 46 8 46s8 -3 8 -46c0 -42 0 -45 8 -47c7 -2 11 4 33 47c14 27 26 50 28 50c9 0 5 -16 -16 -58l-24 -47l44 -43c57 -56 57 -56 -15 -56c-30 0 -54 -1 -54 -3c0 -15 17 -62 43 -114
c24 -48 30 -64 26 -68c-2 -2 -6 -4 -7 -3s-16 32 -34 68l-32 66v-65c0 -62 0 -65 -8 -65s-8 3 -8 67c0 37 -1 64 -2 61c-6 -16 -64 -132 -67 -132c-10 0 -5 16 20 66c26 53 37 80 43 109l3 13h-54c-73 0 -73 0 -16 56l44 43l-24 47c-13 26 -22 49 -21 52zM114 265
c0 8 -2 15 -4 15c-5 0 -5 -11 0 -22c3 -6 4 -5 4 7zM138 273c0 4 -2 7 -4 7s-4 -6 -4 -13c0 -10 1 -11 4 -7c2 3 4 9 4 13zM99 247c-3 11 -8 21 -10 21s-19 -15 -38 -34l-35 -34h47h48l-3 13c-2 7 -5 22 -9 34zM202 226c-14 14 -31 30 -37 34c-11 8 -11 8 -15 0
c-4 -7 -16 -51 -16 -57c0 -2 21 -3 47 -3h47z" />
    <glyph glyph-name="coschar_1_octo_01110010" unicode="&#xf1b6;" horiz-adv-x="248" 
d="M173 338c14 28 26 50 28 50c9 0 5 -16 -16 -58l-23 -47l43 -42c24 -23 43 -45 43 -49c0 -7 -78 -88 -84 -88c-2 0 6 -22 20 -48c22 -44 27 -60 17 -60c-2 0 -14 22 -27 48l-24 48l-17 -2c-13 -2 -20 -1 -35 6c-21 11 -98 86 -98 96c0 4 19 26 43 49c49 47 71 60 93 52
l12 -5zM140 276c0 2 -8 4 -16 4c-20 0 -53 -24 -86 -62l-23 -26l22 -24c20 -23 41 -43 63 -57c11 -8 40 -10 40 -3c0 2 -3 15 -8 29c-11 33 -11 77 0 110c5 14 8 27 8 29zM214 214c-10 12 -28 29 -39 38l-19 17l-6 -15c-16 -39 -16 -85 0 -124l6 -14l17 14c10 8 28 25 39 38
l20 24zM84 -2c0 5 7 6 40 6s40 -1 40 -6s-7 -6 -40 -6s-40 1 -40 6z" />
    <glyph glyph-name="coschar_1_octo_00001101" unicode="&#xf151;" horiz-adv-x="240" 
d="M40 384c4 3 11 -5 26 -35c11 -21 25 -53 33 -69l13 -30v67c0 64 0 67 8 67s8 -3 8 -94v-94h56c47 0 56 -1 56 -6s-9 -6 -56 -6h-56v-92c0 -89 0 -92 -8 -92s-8 3 -8 67v67l-13 -30c-8 -16 -22 -48 -33 -69c-15 -30 -22 -38 -26 -35c-5 3 0 14 23 61c28 58 38 80 43 108
l3 15h-55c-46 0 -54 1 -54 6s8 6 54 6h55l-3 16c-4 28 -14 52 -43 111c-23 47 -28 58 -23 61z" />
    <glyph glyph-name="coschar_1_octo_00001100" unicode="&#xf150;" horiz-adv-x="240" 
d="M40 384c4 3 13 -9 37 -59c18 -36 33 -75 37 -91c4 -15 7 -31 8 -33c1 -4 17 -5 60 -5c49 0 58 -1 58 -6s-9 -6 -60 -6h-60v-10c0 -31 -69 -181 -80 -174c-5 3 0 14 23 61c28 58 38 80 43 108l3 15h-55c-46 0 -54 1 -54 6s8 6 54 6h55l-3 16c-4 28 -14 52 -43 111
c-23 47 -28 58 -23 61z" />
    <glyph glyph-name="coschar_1_octo_11001010" unicode="&#xf20e;" horiz-adv-x="240" 
d="M80 384c0 8 3 8 40 8s40 0 40 -8s-3 -8 -40 -8s-40 0 -40 8zM161 321c18 37 34 67 36 67c10 0 5 -16 -17 -60c-27 -54 -42 -90 -46 -113l-2 -15h54c51 0 54 0 54 -8s-3 -8 -54 -8h-54l2 -15c4 -24 19 -59 46 -113c22 -44 27 -60 17 -60c-4 0 -68 130 -73 150
c-2 9 -4 21 -4 27v11h-60c-57 0 -60 0 -60 8s3 8 60 8h60v11c0 20 9 42 41 110zM80 -2c0 5 7 6 40 6s40 -1 40 -6s-7 -6 -40 -6s-40 1 -40 6z" />
    <glyph glyph-name="coschar_1_octo_00011100" unicode="&#xf160;" 
d="M40 382c1 3 3 6 5 6c5 0 56 -106 67 -138c5 -15 10 -33 10 -39v-11h60c77 0 77 -1 29 -49c-50 -50 -66 -60 -93 -58l-21 1l-25 -49c-13 -27 -25 -49 -27 -49c-9 0 -5 16 16 58l24 47l-44 43c-57 56 -57 56 16 56h54l-3 13c-6 28 -17 56 -43 109c-15 30 -26 57 -25 60z
M108 171l3 13h-48h-47l35 -34c19 -19 36 -34 38 -34c3 0 14 30 19 55zM200 156l28 28h-53h-53v-11c0 -6 -4 -22 -8 -35c-11 -32 -11 -34 7 -34c20 0 42 15 79 52z" />
    <glyph glyph-name="coschar_1_octo_00011101" unicode="&#xf161;" 
d="M40 382c1 3 3 6 5 6c3 0 61 -116 67 -132c1 -3 2 24 2 61c0 64 0 67 8 67s8 -3 8 -92v-92h56c74 0 75 0 17 -56c-26 -26 -50 -45 -59 -48l-14 -6v-45c0 -42 0 -45 -8 -45s-8 3 -8 46c0 42 0 45 -8 47c-7 2 -11 -4 -33 -47c-14 -27 -26 -50 -28 -50c-9 0 -5 16 16 58
l24 47l-44 43c-57 56 -57 56 16 56h54l-3 13c-6 28 -17 56 -43 109c-15 30 -26 57 -25 60zM108 171l3 13h-48h-47l35 -34c19 -19 36 -34 38 -34c3 0 14 30 19 55zM200 156l28 28h-49h-49v-40c0 -22 1 -40 3 -40c8 0 41 26 67 52zM112 105c1 2 2 8 1 16l-1 13l-4 -13
c-3 -13 -1 -21 4 -16z" />
    <glyph glyph-name="coschar_1_octo_01111001" unicode="&#xf1bd;" horiz-adv-x="248" 
d="M116 339c0 42 0 45 8 45s8 -3 8 -45v-45l15 -6c18 -6 101 -86 101 -96s-77 -85 -98 -95l-18 -9v-42v-42h16c12 0 16 -2 16 -6c0 -5 -7 -6 -40 -6s-40 1 -40 6c0 4 4 6 16 6h16v42v42l-18 8c-21 10 -98 86 -98 96s84 90 101 96l15 6v45zM116 240c0 22 -2 40 -4 40
c-9 0 -58 -41 -77 -65l-12 -15h47h46v40zM159 266c-11 8 -21 14 -23 14s-4 -18 -4 -40v-40h46h47l-12 15c-15 18 -29 32 -54 51zM116 144v40h-46h-46l16 -20c20 -24 64 -60 73 -60c2 0 3 18 3 40zM208 164l16 20h-46h-46v-40c0 -22 1 -40 3 -40c9 0 53 36 73 60z" />
    <glyph glyph-name="coschar_1_octo_01111000" unicode="&#xf1bc;" horiz-adv-x="248" 
d="M100 288c22 10 26 10 48 0c20 -9 100 -86 100 -96s-77 -85 -97 -95c-22 -11 -32 -11 -54 0c-20 10 -97 85 -97 95s80 87 100 96zM164 262c-33 25 -47 25 -80 0c-13 -10 -32 -28 -42 -39l-18 -21l50 -1h100l50 1l-18 21c-10 11 -29 29 -42 39zM208 164l16 20h-100h-100
l16 -20c16 -19 38 -39 60 -53c13 -9 35 -9 48 0c22 14 44 34 60 53zM84 -2c0 5 7 6 40 6s40 -1 40 -6s-7 -6 -40 -6s-40 1 -40 6z" />
    <glyph glyph-name="coschar_1_octo_11111001" unicode="&#xf23d;" horiz-adv-x="248" 
d="M84 384c0 8 3 8 40 8s40 0 40 -8c0 -7 -3 -8 -16 -8h-16v-40v-40l18 -9c21 -10 98 -85 98 -95c0 -11 -76 -86 -97 -96l-19 -9v-41v-42h16c12 0 16 -2 16 -6c0 -5 -7 -6 -40 -6s-40 1 -40 6c0 4 4 6 16 6h16v42v41l-19 9c-21 10 -97 86 -97 96s77 85 98 96l18 8v40v40h-16
c-13 0 -16 1 -16 8zM116 240c0 22 -1 40 -3 40c-9 0 -53 -36 -73 -60l-16 -20h46h46v40zM148 273c-6 4 -11 7 -13 7s-3 -18 -3 -40v-40h46h46l-16 20c-16 19 -38 39 -60 53zM116 144v40h-47h-47l38 -37c21 -21 42 -39 47 -40c9 -2 9 -2 9 37zM210 167l15 17h-47h-46v-40
c0 -40 0 -39 9 -36c10 4 46 34 69 59z" />
    <glyph glyph-name="coschar_1_octo_11100111" unicode="&#xf22b;" horiz-adv-x="243" 
d="M82 384c0 8 3 8 40 8s40 0 40 -8c0 -7 -3 -8 -16 -8h-16l1 -41c1 -38 2 -41 9 -42c6 -1 12 8 32 47c13 26 25 48 27 48c9 0 5 -16 -16 -58l-24 -48l21 -18c38 -34 68 -68 63 -73c-4 -4 -15 6 -45 36c-22 23 -42 40 -44 39c-6 -3 -16 -38 -19 -62c-3 -32 7 -65 42 -137
c24 -48 30 -64 26 -68c-2 -2 -5 -4 -6 -3c-2 2 -56 109 -62 124c-3 8 -4 -4 -4 -53l-1 -63h16c12 0 16 -2 16 -6c0 -5 -7 -6 -40 -6s-40 1 -40 6c0 4 4 6 16 6h16v63c0 50 -1 61 -5 53c-7 -17 -59 -122 -61 -124c-1 -1 -5 1 -7 3c-4 4 2 20 26 68c35 72 45 105 42 137
c-3 24 -13 59 -19 62c-2 1 -22 -16 -44 -39c-31 -32 -41 -40 -45 -36s0 10 15 26c29 30 63 63 67 63c2 0 -7 22 -21 48c-22 44 -27 60 -17 60c2 0 14 -22 27 -48c20 -40 26 -48 32 -47c7 1 8 4 9 42l2 41h-17c-13 0 -16 1 -16 8zM114 267c0 7 -2 13 -4 13c-5 0 -5 -12 0 -20
c3 -4 4 -3 4 7zM138 273c0 4 -2 7 -4 7s-4 -6 -4 -13c0 -10 1 -11 4 -7c2 3 4 9 4 13z" />
    <glyph glyph-name="coschar_1_octo_00110010" unicode="&#xf176;" horiz-adv-x="248" 
d="M174 339c13 27 25 49 27 49c9 0 5 -16 -16 -58l-24 -47l43 -42c24 -23 44 -45 44 -49s-19 -25 -43 -49l-44 -42l24 -47c21 -42 25 -58 16 -58c-2 0 -14 22 -28 50l-25 50l-12 -5c-22 -8 -45 5 -93 52c-24 23 -43 45 -43 49c0 8 78 84 96 94c9 4 19 6 33 5l20 -1zM140 275
c0 10 -29 7 -46 -5c-18 -12 -78 -70 -78 -76c0 -7 44 -54 68 -72c19 -14 28 -18 40 -18c18 0 20 1 8 34c-5 16 -8 34 -8 54s3 38 8 54c5 13 8 26 8 29zM196 234c-20 19 -37 34 -39 34c-6 0 -19 -50 -19 -76s13 -76 19 -76s75 72 75 78c0 3 -16 21 -36 40z" />
    <glyph glyph-name="coschar_1_octo_00110011" unicode="&#xf177;" horiz-adv-x="248" 
d="M173 338c14 27 26 50 28 50c9 0 5 -16 -16 -58l-24 -47l43 -42c24 -23 44 -45 44 -49s-19 -25 -43 -49l-44 -42l24 -47c21 -42 25 -58 16 -58c-2 0 -14 23 -28 50c-22 43 -26 49 -33 47c-8 -2 -8 -5 -8 -47c0 -43 0 -46 -8 -46s-8 3 -8 45v45l-15 6
c-18 6 -101 86 -101 96s85 90 102 96l14 6v45c0 42 0 45 8 45s8 -3 8 -46c0 -42 0 -45 8 -47c7 -2 11 4 33 47zM116 192c0 48 -2 88 -4 88c-11 0 -96 -76 -96 -86c0 -12 83 -90 96 -90c2 0 4 38 4 88zM140 273c0 4 -2 7 -4 7s-4 -7 -4 -15c0 -12 1 -13 4 -7c2 4 4 11 4 15z
M196 234c-20 19 -37 34 -39 34c-6 0 -19 -50 -19 -76s13 -76 19 -76s75 72 75 78c0 3 -16 21 -36 40zM140 111c0 4 -2 11 -4 15c-3 6 -4 5 -4 -7c0 -8 2 -15 4 -15s4 3 4 7z" />
    <glyph glyph-name="coschar_0_spider_000101" unicode="&#xf105;" horiz-adv-x="384" 
d="M160 304c0 69 5 80 32 80s32 -11 32 -80v-80h80c69 0 80 -5 80 -32s-11 -32 -80 -32h-80v-80c0 -69 -5 -80 -32 -80s-32 11 -32 80v80h-80c-69 0 -80 5 -80 32s11 32 80 32h80v80z" />
    <glyph glyph-name="coschar_0_spider_000100" unicode="&#xf104;" horiz-adv-x="384" 
d="M0 192c0 30 11 32 192 32s192 -2 192 -32s-11 -32 -192 -32s-192 2 -192 32z" />
    <glyph glyph-name="coschar_1_octo_01001010" unicode="&#xf18e;" horiz-adv-x="240" 
d="M166 333c15 30 29 55 31 55c10 0 5 -16 -20 -66c-26 -53 -37 -81 -43 -109l-3 -13h55c52 0 54 0 54 -8s-2 -8 -54 -8h-55l3 -13c6 -29 17 -56 43 -109c25 -50 30 -66 20 -66c-5 0 -56 106 -67 138c-5 15 -10 33 -10 39v11h-60c-57 0 -60 0 -60 8s3 8 60 8h60v11
c0 18 16 63 46 122zM80 -2c0 5 7 6 40 6s40 -1 40 -6s-7 -6 -40 -6s-40 1 -40 6z" />
    <glyph glyph-name="coschar_1_octo_01001011" unicode="&#xf18f;" horiz-adv-x="240" 
d="M163 325c17 34 32 63 34 63c10 0 5 -16 -20 -66c-26 -53 -37 -81 -43 -109l-3 -13h55c52 0 54 0 54 -8s-2 -8 -54 -8h-55l3 -13c6 -29 17 -56 43 -109c25 -50 30 -66 20 -66c-3 0 -61 116 -67 132c-1 3 -2 -23 -2 -59v-65h16c12 0 16 -2 16 -6c0 -5 -7 -6 -40 -6
s-40 1 -40 6c0 4 4 6 16 6h16v90v90h-56c-53 0 -56 0 -56 8s3 8 56 8h56v92c0 89 0 92 8 92s8 -3 8 -67c0 -37 1 -64 2 -61s16 34 33 69z" />
    <glyph glyph-name="coschar_1_octo_11000010" unicode="&#xf206;" horiz-adv-x="122" 
d="M0 384c0 8 3 8 40 8s40 0 40 -8s-3 -8 -40 -8s-40 0 -40 8zM83 325c17 34 32 63 34 63c10 0 5 -16 -20 -66c-36 -72 -43 -93 -43 -130s7 -58 43 -130c25 -50 30 -66 20 -66c-4 0 -63 120 -71 147s-8 71 0 98c4 12 20 49 37 84zM0 -2c0 5 7 6 40 6s40 -1 40 -6
s-7 -6 -40 -6s-40 1 -40 6z" />
    <glyph glyph-name="coschar_1_octo_00100101" unicode="&#xf169;" horiz-adv-x="242" 
d="M41 384c5 3 11 -6 31 -46c22 -43 26 -49 33 -47c8 2 8 5 8 47c0 43 0 46 8 46s8 -3 8 -45v-45l15 -6c20 -7 106 -91 98 -96c-4 -2 -14 6 -37 30c-29 30 -63 58 -72 58c-2 0 -4 -63 -4 -140c0 -137 0 -140 -8 -140s-8 3 -8 67v67l-13 -30c-8 -16 -22 -48 -33 -69
c-15 -30 -21 -38 -25 -35c-5 3 0 14 23 61c36 72 42 93 42 131c0 31 -11 76 -19 76c-2 0 -21 -17 -43 -39c-27 -27 -40 -38 -44 -36s7 16 39 47l45 44l-24 48c-21 40 -25 49 -20 52zM113 265c0 8 -1 15 -3 15c-7 0 -8 -6 -2 -18l5 -12v15z" />
    <glyph glyph-name="coschar_1_octo_00100100" unicode="&#xf168;" horiz-adv-x="243" 
d="M41 384c5 3 11 -6 31 -45l24 -49l22 2c28 1 43 -10 93 -60c27 -27 35 -38 31 -40s-14 6 -37 30c-40 41 -64 58 -84 58c-8 0 -15 -1 -16 -2s2 -14 7 -29c20 -58 12 -101 -37 -199c-21 -42 -29 -53 -33 -50c-5 3 0 14 23 61c36 72 42 93 42 131c0 31 -11 76 -19 76
c-2 0 -21 -17 -43 -39c-27 -27 -40 -38 -44 -36s7 16 39 47l45 44l-24 48c-21 40 -25 49 -20 52z" />
    <glyph glyph-name="coschar_1_octo_01100010" unicode="&#xf1a6;" 
d="M171 338c14 27 26 50 28 50c9 0 5 -16 -16 -58l-24 -47l44 -43c35 -34 44 -44 40 -48s-14 3 -45 35c-22 22 -41 41 -43 41c-7 0 -19 -50 -19 -78c0 -35 8 -58 43 -128c25 -50 30 -66 20 -66c-4 0 -63 120 -71 147c-9 29 -9 73 1 103c12 33 11 34 -7 34
c-20 0 -43 -17 -85 -61c-25 -26 -32 -32 -36 -28s3 13 35 45c48 48 74 64 96 57l14 -4zM82 -2c0 5 7 6 40 6s40 -1 40 -6s-7 -6 -40 -6s-40 1 -40 6z" />
    <glyph glyph-name="coschar_1_octo_01100011" unicode="&#xf1a7;" 
d="M171 338c14 27 26 50 28 50c9 0 5 -16 -16 -58l-24 -47l44 -43c35 -34 44 -44 40 -48s-14 3 -45 35c-22 22 -41 41 -43 41c-7 0 -19 -50 -19 -78c0 -35 8 -58 43 -128c25 -50 30 -66 20 -66c-3 0 -61 116 -67 132c-1 3 -2 -23 -2 -59v-65h16c12 0 16 -2 16 -6
c0 -5 -7 -6 -40 -6s-40 1 -40 6c0 4 4 6 16 6h16v138c0 82 -2 138 -4 138c-8 0 -44 -30 -73 -61c-25 -26 -32 -32 -36 -28s3 13 35 45c25 25 47 43 59 49l18 9l1 45c0 42 0 45 8 45s8 -3 8 -46c0 -42 0 -45 8 -47c7 -2 11 4 33 47zM137 273c0 4 -1 7 -3 7s-4 -7 -4 -15
c0 -12 1 -13 4 -7c2 4 3 11 3 15z" />
    <glyph glyph-name="coschar_0_spider_101000" unicode="&#xf128;" horiz-adv-x="423" 
d="M227 237c91 90 170 163 176 163c50 0 9 -58 -141 -210l-174 -174h165c134 0 163 -5 163 -24c0 -34 -359 -36 -394 -2c-16 18 -22 69 -22 208c0 174 2 186 32 186s32 -11 32 -155v-157z" />
    <glyph glyph-name="coschar_0_spider_101001" unicode="&#xf129;" horiz-adv-x="426" 
d="M323 333c72 72 85 76 103 49c5 -10 -30 -57 -80 -108c-86 -86 -90 -95 -90 -175v-83h80c61 0 80 -6 80 -24c0 -34 -359 -36 -394 -2c-16 18 -22 69 -22 208c0 174 2 186 32 186s32 -11 32 -155v-155l64 62c61 59 64 69 64 155c0 82 3 93 32 93c26 0 32 -11 32 -59v-61z
M192 64c0 27 -2 48 -5 48s-25 -21 -51 -48l-46 -48h51c46 0 51 5 51 48z" />
    <glyph glyph-name="coschar_1_octo_10011001" unicode="&#xf1dd;" 
d="M82 382c0 5 7 6 40 6s40 -1 40 -6c0 -4 -4 -6 -16 -6h-16v-88v-88h55c48 0 56 -1 58 -7c4 -10 -69 -82 -94 -94l-19 -9v-45c0 -42 0 -45 -8 -45s-8 3 -8 45l-1 45l-18 9c-25 12 -99 84 -95 94c2 6 10 7 58 7h56v88v88h-16c-12 0 -16 2 -16 6zM114 144v40h-47h-46l12 -15
c19 -24 68 -65 77 -65c2 0 4 18 4 40zM211 169l12 15h-47h-46v-40c0 -22 1 -40 3 -40c9 0 59 41 78 65z" />
    <glyph glyph-name="coschar_1_octo_10111111" unicode="&#xf203;" horiz-adv-x="248" 
d="M42 382c1 3 3 6 5 6s15 -23 29 -50c21 -41 26 -49 32 -47c7 2 8 6 8 43v42h-16c-12 0 -16 2 -16 6c0 5 7 6 40 6s40 -1 40 -6c0 -4 -4 -6 -16 -6h-16v-42c0 -37 1 -41 7 -43s12 7 33 47c14 27 27 50 29 50c9 0 5 -16 -16 -58l-23 -47l43 -42c24 -23 43 -45 43 -49
c0 -7 -78 -88 -84 -88c-2 0 6 -22 20 -48c22 -44 26 -60 17 -60c-2 0 -14 22 -27 48c-20 39 -26 48 -32 47c-8 -1 -8 -4 -9 -46s-2 -45 -9 -45s-8 3 -9 45s-2 45 -9 46c-6 1 -12 -8 -32 -47c-13 -26 -25 -48 -27 -48c-10 0 -5 16 17 60c14 26 22 48 20 48
c-6 0 -84 81 -84 88c0 4 19 26 43 49l43 42l-23 47c-13 26 -22 49 -21 52zM116 267c0 7 -2 13 -4 13c-5 0 -5 -12 0 -20c3 -4 4 -3 4 7zM140 273c0 4 -2 7 -4 7s-4 -6 -4 -13c0 -10 1 -11 4 -7c2 3 4 9 4 13zM102 245c-4 10 -8 20 -10 21c-4 2 -44 -34 -58 -52l-10 -14h44
h45l-3 13c-1 7 -5 22 -8 32zM211 217c-8 9 -22 24 -34 34c-19 16 -21 17 -25 9c-4 -7 -16 -50 -16 -57c0 -2 20 -3 44 -3h45zM112 181c0 2 -20 3 -44 3h-44l16 -19c9 -11 24 -26 34 -34c17 -14 18 -14 22 -7c4 8 16 51 16 57zM208 165l16 19h-44c-24 0 -44 -1 -44 -3
c0 -6 12 -49 16 -57c4 -7 5 -7 22 7c10 8 25 23 34 34zM114 105c1 2 2 8 1 14l-1 11l-4 -11c-3 -11 -1 -19 4 -14zM140 111c0 4 -2 10 -4 13c-3 4 -4 3 -4 -7c0 -7 2 -13 4 -13s4 3 4 7z" />
    <glyph glyph-name="coschar_0_spider_110011" unicode="&#xf133;" horiz-adv-x="452" 
d="M23 389c29 13 371 12 401 1c35 -14 38 -365 3 -400c-34 -32 -369 -32 -403 0c-30 30 -33 388 -1 399zM194 312c0 32 -8 40 -43 40h-42l37 -40c21 -22 40 -40 43 -40s5 18 5 40zM386 213v139h-64h-64v-77c0 -69 6 -83 64 -139l64 -62v139zM194 101c0 78 -5 89 -64 147
l-64 62v-147v-147h64h64v85zM314 64c-26 27 -48 48 -51 48s-5 -21 -5 -48c0 -43 5 -48 51 -48h51z" />
    <glyph glyph-name="coschar_0_spider_110010" unicode="&#xf132;" horiz-adv-x="452" 
d="M23 389c29 13 371 12 401 1c35 -14 38 -365 3 -400c-34 -32 -369 -32 -403 0c-30 30 -33 388 -1 399zM386 216v136h-139h-141l136 -136c75 -75 137 -136 139 -136c3 0 5 61 5 136zM218 160c-78 80 -145 144 -147 144c-3 0 -5 -64 -5 -144v-144h147h149z" />
    <glyph glyph-name="coschar_1_octo_10100101" unicode="&#xf1e9;" 
d="M40 382c1 3 3 6 5 6s14 -23 28 -50c22 -43 26 -49 33 -47s8 5 8 43v42h-16c-12 0 -16 2 -16 6c0 5 7 6 40 6s40 -1 40 -6c0 -4 -4 -6 -16 -6h-16v-41v-41l19 -9c12 -6 34 -24 59 -49c32 -32 39 -41 35 -45s-11 2 -36 28c-29 31 -65 61 -73 61c-2 0 -4 -57 -4 -140
c0 -137 0 -140 -8 -140s-8 3 -8 67c0 37 -1 64 -2 61c-6 -16 -64 -132 -67 -132c-10 0 -5 16 20 66c35 70 43 93 43 128c0 28 -12 78 -19 78c-2 0 -21 -19 -43 -41c-31 -32 -41 -39 -45 -35s4 14 39 48l45 43l-24 47c-13 26 -22 49 -21 52zM114 265c0 8 -2 15 -4 15
c-5 0 -5 -11 0 -22c3 -6 4 -5 4 7z" />
    <glyph glyph-name="coschar_1_octo_11000110" unicode="&#xf20a;" horiz-adv-x="164" 
d="M42 384c0 8 3 8 40 8s40 0 40 -8s-3 -8 -40 -8s-40 0 -40 8zM0 382c1 3 4 6 6 6c4 0 63 -121 69 -143c6 -21 10 -22 13 -4c2 11 63 141 69 147c1 1 4 -1 6 -3c4 -4 -2 -20 -26 -68c-56 -116 -56 -134 0 -250c24 -48 30 -64 26 -68c-2 -2 -5 -4 -6 -3
c-6 6 -67 136 -69 147c-3 18 -7 16 -13 -4c-6 -22 -65 -143 -69 -143c-10 0 -5 16 20 66c36 72 42 93 42 130s-6 58 -42 130c-15 30 -27 57 -26 60zM42 -2c0 5 7 6 40 6s40 -1 40 -6s-7 -6 -40 -6s-40 1 -40 6z" />
    <glyph glyph-name="coschar_1_octo_11000000" unicode="&#xf204;" horiz-adv-x="177" 
d="M48 384c0 8 3 8 40 8s40 0 40 -8s-3 -8 -40 -8s-40 0 -40 8zM41 258c24 38 43 66 47 66s24 -28 48 -66l41 -66l-43 -70c-24 -38 -45 -70 -46 -70s-21 32 -45 70l-43 70zM125 248c-19 31 -36 56 -37 56s-17 -25 -36 -56l-35 -56l35 -56c19 -31 35 -56 36 -56s18 25 37 56
l35 56zM48 -2c0 5 7 6 40 6s40 -1 40 -6s-7 -6 -40 -6s-40 1 -40 6z" />
    <glyph glyph-name="coschar_1_octo_10111100" unicode="&#xf200;" horiz-adv-x="248" 
d="M42 382c1 3 3 6 5 6s15 -23 29 -50l25 -49l12 4c21 8 44 -5 92 -52c24 -23 43 -45 43 -49c0 -10 -76 -85 -98 -96c-14 -7 -22 -8 -35 -6l-17 2l-24 -48c-13 -26 -25 -48 -27 -48c-10 0 -5 16 17 60c14 26 22 48 20 48c-6 0 -84 81 -84 88c0 4 19 26 43 49l43 42l-23 47
c-13 26 -22 49 -21 52zM159 266c-15 11 -23 14 -35 14c-18 0 -19 -1 -8 -32c4 -12 8 -28 8 -35v-13h50h51l-12 15c-15 18 -29 32 -54 51zM102 245c-4 10 -8 20 -10 21c-4 2 -44 -34 -58 -52l-10 -14h44h45l-3 13c-1 7 -5 22 -8 32zM112 181c0 2 -20 3 -44 3h-44l16 -19
c9 -11 24 -26 34 -34c17 -14 18 -14 22 -7c4 8 16 51 16 57zM208 164l16 20h-50h-50v-13c0 -7 -4 -23 -8 -35s-8 -25 -8 -27c0 -8 28 -6 40 2c22 14 44 34 60 53zM84 382c0 5 7 6 40 6s40 -1 40 -6s-7 -6 -40 -6s-40 1 -40 6z" />
    <glyph glyph-name="coschar_0_spider_010111" unicode="&#xf117;" horiz-adv-x="426" 
d="M1 382c13 19 355 26 400 8c21 -8 25 -41 25 -198c0 -226 -14 -242 -123 -138l-69 64v-59c0 -48 -6 -59 -32 -59c-27 0 -32 11 -32 80v80h-80c-61 0 -80 6 -80 24s17 24 67 24h68l-77 78c-43 43 -72 86 -67 96zM170 312c0 32 -8 40 -43 40h-42l37 -40
c21 -22 40 -40 43 -40s5 18 5 40zM362 280v72h-64h-64v-72v-72h64h64v72zM362 120c0 32 -8 40 -43 40h-42l37 -40c21 -22 40 -40 43 -40s5 18 5 40z" />
    <glyph glyph-name="coschar_0_spider_010110" unicode="&#xf116;" horiz-adv-x="426" 
d="M1 382c13 19 355 26 400 8c21 -8 25 -41 25 -198c0 -171 -3 -189 -30 -197c-21 -5 -56 18 -115 79c-83 85 -87 86 -178 86c-72 0 -93 5 -93 24c0 18 17 24 67 24h68l-77 78c-43 43 -72 86 -67 96zM362 280v72h-139h-139l70 -72c62 -62 78 -72 139 -72h69v72zM362 120
c0 32 -8 40 -43 40h-42l37 -40c21 -22 40 -40 43 -40s5 18 5 40z" />
    <glyph glyph-name="coschar_0_spider_011101" unicode="&#xf11d;" horiz-adv-x="419" 
d="M3 376c0 19 30 24 182 24c101 0 194 -5 208 -10c21 -8 26 -42 26 -200c0 -179 -2 -190 -32 -190c-27 0 -32 11 -32 80v80h-64h-64v-80c0 -69 -5 -80 -32 -80c-26 0 -32 11 -32 59v59l-69 -67c-54 -53 -74 -62 -88 -48s-5 34 48 88l67 69h-59c-42 0 -59 6 -59 24
s19 24 80 24h80v72v72h-80c-61 0 -80 6 -80 24zM307 347c0 3 -18 5 -40 5c-32 0 -40 -8 -40 -43v-42l40 37c22 21 40 40 40 43zM355 256c0 27 -2 48 -5 48s-25 -21 -51 -48l-47 -48h52c46 0 51 5 51 48z" />
    <glyph glyph-name="coschar_0_spider_011100" unicode="&#xf11c;" horiz-adv-x="420" 
d="M4 376c0 19 30 24 182 24c101 0 194 -5 208 -10c21 -8 26 -42 26 -200c0 -179 -2 -190 -32 -190c-27 0 -32 11 -32 80v80h-77c-72 0 -81 -6 -163 -88c-67 -69 -92 -83 -108 -69c-18 14 -9 30 47 88l67 69h-59c-42 0 -59 6 -59 24s20 24 84 24c78 0 90 5 156 72l70 72
h-155c-128 0 -155 5 -155 24zM356 256c0 27 -2 48 -5 48s-25 -21 -51 -48l-47 -48h51c46 0 52 5 52 48z" />
    <glyph glyph-name="coschar_1_octo_01010010" unicode="&#xf196;" 
d="M165 325c17 34 32 63 34 63c10 0 5 -16 -20 -66c-35 -70 -43 -93 -43 -128c0 -28 12 -78 19 -78c2 0 21 19 43 41c31 32 41 39 45 35s-5 -14 -40 -48l-44 -43l24 -47c21 -42 25 -58 16 -58c-2 0 -14 23 -28 50l-25 49l-14 -4c-22 -7 -48 9 -96 57c-32 32 -39 41 -35 45
s11 -2 36 -28c42 -44 65 -61 85 -61c18 0 19 1 7 34c-10 30 -10 74 -1 103c4 12 20 49 37 84zM82 -2c0 5 7 6 40 6s40 -1 40 -6s-7 -6 -40 -6s-40 1 -40 6z" />
    <glyph glyph-name="coschar_1_octo_01010011" unicode="&#xf197;" 
d="M165 325c17 34 32 63 34 63c10 0 5 -16 -20 -66c-35 -70 -43 -93 -43 -128c0 -28 12 -78 19 -78c2 0 21 19 43 41c31 32 41 39 45 35s-5 -14 -40 -48l-44 -43l24 -47c21 -42 25 -58 16 -58c-2 0 -14 23 -28 50c-22 43 -26 49 -33 47c-8 -2 -8 -5 -8 -45v-44h16
c12 0 16 -2 16 -6c0 -5 -7 -6 -40 -6s-40 1 -40 6c0 4 4 6 16 6h16v43l-1 43l-18 9c-12 6 -34 24 -59 49c-32 32 -39 41 -35 45s11 -2 36 -28c29 -31 65 -61 73 -61c2 0 4 57 4 140c0 137 0 140 8 140s8 -3 8 -67c0 -37 1 -64 2 -61s16 34 33 69zM137 111c0 4 -1 11 -3 15
c-3 6 -4 5 -4 -7c0 -8 2 -15 4 -15s3 3 3 7z" />
    <glyph glyph-name="coschar_1_octo_00000100" unicode="&#xf148;" horiz-adv-x="82" 
d="M0 382c0 1 3 2 6 2c6 0 57 -100 69 -136c5 -14 7 -34 7 -56s-2 -42 -7 -56c-12 -36 -63 -136 -69 -136c-3 0 -6 1 -6 2s12 26 26 54c61 121 61 151 0 272c-14 28 -26 53 -26 54z" />
    <glyph glyph-name="coschar_1_octo_00000101" unicode="&#xf149;" horiz-adv-x="92" 
d="M0 382c0 1 3 2 6 2c4 0 44 -76 65 -124c3 -8 5 5 5 57c0 64 0 67 8 67s8 -3 8 -192s0 -192 -8 -192s-8 3 -8 67c0 51 -2 65 -5 57c-21 -48 -61 -124 -65 -124c-3 0 -6 1 -6 2s12 26 26 54c61 121 61 151 0 272c-14 28 -26 53 -26 54z" />
    <glyph glyph-name="coschar_0_spider_001111" unicode="&#xf10f;" horiz-adv-x="403" 
d="M1 382c18 27 26 23 100 -49l69 -67v59c0 48 6 59 32 59s32 -11 32 -59v-59l72 70c56 54 77 65 91 51s2 -37 -59 -99l-78 -80h67c50 0 67 -6 67 -24s-17 -24 -59 -24h-59l67 -69c53 -54 62 -74 48 -88s-34 -5 -88 48l-69 67v-59c0 -48 -6 -59 -32 -59s-32 11 -32 59v59
l-69 -67c-54 -53 -74 -62 -88 -48s-5 34 48 88l68 69h-60c-42 0 -59 6 -59 24s17 24 67 24h68l-77 78c-43 43 -72 86 -67 96z" />
    <glyph glyph-name="coschar_0_spider_001110" unicode="&#xf10e;" horiz-adv-x="404" 
d="M1 382c18 27 26 23 116 -65l85 -83l88 86c69 67 91 83 107 67s3 -37 -59 -99l-78 -80h67c50 0 67 -6 67 -24s-17 -24 -59 -24h-59l67 -69c53 -54 64 -72 48 -88s-38 -2 -104 64l-85 83l-85 -83c-66 -66 -88 -80 -104 -64s-5 34 48 88l68 69h-60c-42 0 -59 6 -59 24
s17 24 67 24h68l-77 78c-43 43 -72 86 -67 96z" />
    <glyph glyph-name="coschar_1_octo_00001110" unicode="&#xf152;" horiz-adv-x="240" 
d="M40 384c4 3 12 -7 32 -47c14 -28 30 -65 36 -82s12 -30 13 -28s5 10 7 19c7 22 65 142 69 142c10 0 5 -16 -19 -64c-28 -56 -39 -84 -44 -111l-3 -17h55c46 0 54 -1 54 -6s-8 -6 -54 -6h-55l3 -13c6 -29 17 -56 43 -109c25 -50 30 -66 20 -66c-4 0 -62 120 -69 142
c-2 9 -6 17 -7 19s-7 -11 -13 -28s-22 -54 -36 -82c-20 -40 -28 -50 -32 -47c-5 3 0 14 23 61c28 58 38 80 43 108l3 15h-55c-46 0 -54 1 -54 6s8 6 54 6h55l-3 16c-4 28 -14 52 -43 111c-23 47 -28 58 -23 61z" />
    <glyph glyph-name="coschar_1_octo_00001111" unicode="&#xf153;" horiz-adv-x="240" 
d="M40 384c4 3 11 -5 26 -35c11 -21 25 -53 33 -69l13 -30v67c0 64 0 67 8 67s8 -3 8 -67c0 -37 1 -64 2 -61c6 16 64 132 67 132c10 0 5 -16 -19 -64c-28 -56 -39 -84 -44 -111l-3 -17h55c46 0 54 -1 54 -6s-8 -6 -54 -6h-55l3 -13c6 -29 17 -56 43 -109
c25 -50 30 -66 20 -66c-3 0 -61 116 -67 132c-1 3 -2 -24 -2 -61c0 -64 0 -67 -8 -67s-8 3 -8 67v67l-13 -30c-8 -16 -22 -48 -33 -69c-15 -30 -22 -38 -26 -35c-5 3 0 14 23 61c28 58 38 80 43 108l3 15h-55c-46 0 -54 1 -54 6s8 6 54 6h55l-3 16c-4 28 -14 52 -43 111
c-23 47 -28 58 -23 61z" />
    <glyph glyph-name="coschar_1_octo_10100100" unicode="&#xf1e8;" 
d="M40 382c1 3 3 6 5 6s14 -23 28 -50l25 -49l14 4c22 7 48 -9 96 -57c32 -32 39 -41 35 -45s-11 2 -36 28c-42 44 -65 61 -85 61c-18 0 -20 -1 -8 -34c10 -30 11 -74 2 -103c-8 -27 -67 -147 -71 -147c-10 0 -5 16 20 66c35 70 43 93 43 128c0 28 -12 78 -19 78
c-2 0 -21 -19 -43 -41c-31 -32 -41 -39 -45 -35s4 14 39 48l45 43l-24 47c-13 26 -22 49 -21 52zM82 382c0 5 7 6 40 6s40 -1 40 -6s-7 -6 -40 -6s-40 1 -40 6z" />
    <glyph glyph-name="coschar_1_octo_11101111" unicode="&#xf233;" horiz-adv-x="245" 
d="M83 384c0 8 3 8 40 8s40 0 40 -8c0 -7 -3 -8 -16 -8h-17l2 -41c1 -38 2 -41 9 -42c6 -1 12 8 32 47c13 26 25 48 27 48c9 0 5 -16 -16 -58l-24 -48l21 -18c11 -10 30 -29 43 -42c32 -36 31 -38 -36 -38h-54l3 -15c4 -24 18 -59 45 -113c22 -45 28 -60 18 -60
c-3 0 -50 92 -64 124c-3 8 -5 -5 -5 -53v-63h16c12 0 16 -2 16 -6c0 -5 -7 -6 -40 -6s-40 1 -40 6c0 4 4 6 16 6h16l-1 63c0 49 -1 61 -4 53c-15 -35 -61 -124 -64 -124c-10 0 -6 15 17 60c27 54 41 89 45 113l3 15h-53c-66 0 -69 3 -40 34c28 30 62 62 66 62
c2 0 -8 22 -22 48c-22 44 -26 60 -16 60c2 0 14 -22 27 -48c20 -39 26 -48 32 -47c7 1 8 4 9 42l1 41h-16c-13 0 -16 1 -16 8zM115 267c0 7 -2 13 -4 13c-5 0 -5 -12 0 -20c3 -4 4 -3 4 7zM139 273c0 4 -2 7 -4 7s-4 -6 -4 -13c0 -10 1 -11 4 -7c2 3 4 9 4 13zM100 245
c-4 10 -7 20 -8 21c-4 2 -40 -31 -57 -51l-13 -15h45h45l-3 13c-1 7 -6 22 -9 32zM208 218c-8 10 -24 25 -34 34c-18 15 -19 15 -23 8c-4 -8 -16 -51 -16 -57c0 -2 20 -3 44 -3h44z" />
    <glyph glyph-name="coschar_1_octo_11101000" unicode="&#xf22c;" horiz-adv-x="245" 
d="M83 384c0 8 3 8 40 8s40 0 40 -8s-3 -8 -40 -8s-40 0 -40 8zM96 287c9 5 21 9 27 9c22 0 55 -24 101 -74c36 -39 39 -38 -101 -38c-139 0 -137 0 -105 34c36 37 61 60 78 69zM156 267c-12 9 -23 13 -33 13c-18 0 -40 -15 -75 -52l-26 -26l51 -1h101l50 1l-26 26
c-14 14 -32 32 -42 39zM83 -2c0 5 7 6 40 6s40 -1 40 -6s-7 -6 -40 -6s-40 1 -40 6z" />
    <glyph glyph-name="coschar_1_octo_01111010" unicode="&#xf1be;" horiz-adv-x="248" 
d="M173 338c14 27 26 50 28 50c9 0 5 -16 -16 -58l-23 -47l43 -42c24 -23 43 -45 43 -49c0 -7 -78 -88 -84 -88c-2 0 6 -22 20 -48c22 -44 26 -60 17 -60c-2 0 -14 22 -27 48l-24 48l-17 -2c-13 -2 -21 -1 -35 6c-21 11 -98 86 -98 96c0 4 19 26 43 49c48 47 71 60 93 52
l11 -4zM140 275c0 3 -6 5 -16 5c-12 0 -20 -3 -35 -14c-25 -19 -39 -33 -54 -51l-12 -15h51h50v13c0 7 4 23 8 35s8 24 8 27zM211 217c-8 9 -22 24 -34 34c-19 16 -21 17 -25 9c-4 -7 -16 -50 -16 -57c0 -2 20 -3 44 -3h45zM124 171v13h-50h-50l16 -20c16 -19 38 -39 60 -53
c12 -8 40 -10 40 -2c0 2 -4 15 -8 27s-8 28 -8 35zM208 165l16 19h-44c-24 0 -44 -1 -44 -3c0 -6 12 -49 16 -57c4 -7 5 -7 22 7c10 8 25 23 34 34zM84 -2c0 5 7 6 40 6s40 -1 40 -6s-7 -6 -40 -6s-40 1 -40 6z" />
    <glyph glyph-name="coschar_1_octo_01111011" unicode="&#xf1bf;" horiz-adv-x="248" 
d="M173 338c14 27 26 50 28 50c9 0 5 -16 -16 -58l-23 -47l43 -42c24 -23 43 -45 43 -49c0 -7 -78 -88 -84 -88c-2 0 6 -22 20 -48c22 -44 26 -60 17 -60c-2 0 -14 22 -27 48c-20 39 -26 48 -32 47c-7 -1 -8 -5 -9 -44l-1 -43h16c12 0 16 -2 16 -6c0 -5 -7 -6 -40 -6
s-40 1 -40 6c0 4 4 6 16 6h16v42v42l-18 9c-21 10 -98 85 -98 95s84 90 101 96l15 6v45c0 42 0 45 8 45s8 -3 8 -46c0 -42 1 -45 8 -47s12 5 33 47zM116 240c0 22 -2 40 -4 40c-9 0 -58 -41 -77 -65l-12 -15h47h46v40zM140 273c0 4 -2 7 -4 7s-4 -6 -4 -13c0 -10 1 -11 4 -7
c2 3 4 9 4 13zM211 217c-8 9 -22 24 -34 34c-19 16 -21 17 -25 9c-4 -7 -16 -50 -16 -57c0 -2 20 -3 44 -3h45zM116 144v40h-46h-46l16 -20c20 -24 64 -60 73 -60c2 0 3 18 3 40zM208 165l16 19h-44c-24 0 -44 -1 -44 -3c0 -6 12 -49 16 -57c4 -7 5 -7 22 7
c10 8 25 23 34 34zM140 111c0 4 -2 10 -4 13c-3 4 -4 3 -4 -7c0 -7 2 -13 4 -13s4 3 4 7z" />
    <glyph glyph-name="coschar_1_octo_11001100" unicode="&#xf210;" horiz-adv-x="240" 
d="M80 384c0 8 3 8 40 8s40 0 40 -8s-3 -8 -40 -8s-40 0 -40 8zM38 382c1 3 3 6 5 6c5 0 59 -110 69 -139c5 -14 8 -30 8 -37v-12h60c57 0 60 0 60 -8s-3 -8 -60 -8h-60v-11c0 -6 -3 -23 -8 -37c-10 -30 -64 -140 -69 -140c-10 0 -5 16 17 60c27 54 42 89 46 113l2 15h-54
c-51 0 -54 0 -54 8s3 8 54 8h54l-2 15c-4 23 -19 59 -46 113c-14 27 -23 51 -22 54zM80 -2c0 5 7 6 40 6s40 -1 40 -6s-7 -6 -40 -6s-40 1 -40 6z" />
    <glyph glyph-name="coschar_0_spider_001100" unicode="&#xf10c;" horiz-adv-x="396" 
d="M268 304c53 53 101 96 107 96c40 0 22 -47 -45 -114l-77 -78h67c50 0 68 -6 68 -24c0 -19 -21 -24 -93 -24c-91 0 -94 -2 -179 -88c-67 -69 -92 -83 -108 -69c-18 14 -9 30 47 88l67 69h-59c-42 0 -59 6 -59 24s20 24 84 24c82 0 87 3 180 96z" />
    <glyph glyph-name="coschar_0_spider_001101" unicode="&#xf10d;" horiz-adv-x="397" 
d="M294 333c72 72 84 76 102 49c5 -10 -24 -53 -67 -96l-77 -78h68c50 0 67 -6 67 -24s-19 -24 -80 -24h-80v-80c0 -69 -5 -80 -32 -80c-26 0 -32 11 -32 59v59l-69 -67c-54 -53 -74 -62 -88 -48s-5 34 48 88l67 69h-59c-42 0 -59 6 -59 24s19 24 80 24h80v88
c0 77 3 88 32 88c26 0 32 -11 32 -59v-61z" />
    <glyph glyph-name="coschar_1_octo_11111101" unicode="&#xf241;" horiz-adv-x="248" 
d="M84 384c0 8 3 8 40 8s40 0 40 -8c0 -7 -3 -8 -16 -8h-16v-40v-40l18 -9c21 -10 98 -85 98 -95c0 -11 -76 -86 -97 -96l-19 -9v-41v-42h16c12 0 16 -2 16 -6c0 -5 -7 -6 -40 -6s-40 1 -40 6c0 4 4 6 16 6h16l-1 43c-1 40 -2 43 -9 44c-6 1 -12 -8 -32 -47
c-13 -26 -25 -48 -27 -48c-9 0 -5 16 16 58l24 48l-18 14c-22 18 -69 70 -69 77c0 6 78 87 84 87c2 0 -6 22 -20 48c-22 44 -26 60 -17 60c2 0 14 -22 27 -48c20 -39 26 -48 32 -47c7 1 8 4 9 42l1 41h-16c-13 0 -16 1 -16 8zM116 267c0 7 -2 13 -4 13c-5 0 -5 -12 0 -20
c3 -4 4 -3 4 7zM148 273c-6 4 -11 7 -13 7s-3 -18 -3 -40v-40h46h46l-16 20c-16 19 -38 39 -60 53zM102 245c-4 10 -8 20 -9 21c-4 2 -40 -31 -57 -51l-13 -15h45h45l-3 13c-1 7 -5 22 -8 32zM110 171l3 13h-45h-46l34 -34c19 -19 34 -33 36 -32c3 2 14 33 18 53zM210 167
l15 17h-47h-46v-40c0 -40 0 -39 9 -36c10 4 46 34 69 59zM116 115c0 15 -2 17 -6 5c-2 -5 0 -11 2 -13c3 -3 4 -1 4 8z" />
    <glyph glyph-name="coschar_1_octo_10010100" unicode="&#xf1d8;" 
d="M40 382c1 3 3 6 5 6c4 0 63 -120 71 -147c9 -29 8 -73 -2 -103c-12 -33 -10 -34 8 -34c20 0 43 17 85 61c25 26 32 32 36 28s-3 -13 -35 -45c-48 -48 -74 -64 -96 -57l-14 4l-25 -49c-14 -27 -26 -50 -28 -50c-9 0 -5 16 16 58l24 47l-45 43c-35 34 -43 44 -39 48
s14 -3 45 -35c22 -22 41 -41 43 -41c7 0 19 50 19 78c0 35 -8 58 -43 128c-15 30 -26 57 -25 60zM82 382c0 5 7 6 40 6s40 -1 40 -6s-7 -6 -40 -6s-40 1 -40 6z" />
    <glyph glyph-name="coschar_0_spider_000110" unicode="&#xf106;" horiz-adv-x="398" 
d="M1 382c19 29 30 23 129 -78c93 -93 97 -96 179 -96c64 0 85 -6 85 -24s-17 -24 -59 -24h-59l67 -69c56 -58 64 -74 46 -88c-16 -14 -40 0 -107 69c-85 86 -88 88 -179 88c-72 0 -93 5 -93 24c0 18 17 24 67 24h68l-77 78c-43 43 -72 86 -67 96z" />
    <glyph glyph-name="coschar_0_spider_000111" unicode="&#xf107;" horiz-adv-x="397" 
d="M1 382c18 27 26 23 100 -49l69 -67v59c0 48 6 59 32 59c29 0 32 -11 32 -88v-88h80c61 0 80 -6 80 -24s-17 -24 -59 -24h-59l67 -69c53 -54 62 -74 48 -88s-34 -5 -88 48l-69 67v-59c0 -48 -6 -59 -32 -59c-27 0 -32 11 -32 80v80h-80c-61 0 -80 6 -80 24s17 24 67 24h68
l-77 78c-43 43 -72 86 -67 96z" />
    <glyph glyph-name="coschar_1_octo_11100110" unicode="&#xf22a;" horiz-adv-x="243" 
d="M82 384c0 8 3 8 40 8s40 0 40 -8s-3 -8 -40 -8s-40 0 -40 8zM40 382c1 3 3 6 5 6s14 -21 27 -47l23 -47h27h26l24 47c13 26 25 47 27 47c9 0 5 -16 -16 -58l-24 -48l21 -18c38 -34 68 -68 63 -73c-4 -4 -15 6 -45 36c-22 23 -42 40 -44 39c-6 -3 -16 -38 -19 -62
c-3 -32 7 -65 42 -137c24 -48 30 -64 26 -68c-2 -2 -5 -4 -6 -3c-6 6 -60 119 -66 137c-4 13 -8 23 -9 23s-5 -10 -9 -22c-6 -18 -59 -132 -65 -138c-1 -1 -5 1 -7 3c-4 4 2 20 26 68c35 72 45 105 42 137c-3 24 -13 59 -19 62c-2 1 -22 -16 -44 -39
c-31 -32 -41 -40 -45 -36s0 10 15 26c29 30 63 63 67 63c2 0 -7 22 -21 48c-13 27 -23 51 -22 54zM138 277c0 2 -7 3 -16 3s-16 -1 -16 -3c0 -6 14 -49 16 -49s16 43 16 49zM82 -2c0 5 7 6 40 6s40 -1 40 -6s-7 -6 -40 -6s-40 1 -40 6z" />
    <glyph glyph-name="coschar_1_octo_00101100" unicode="&#xf170;" 
d="M40 382c1 3 3 6 5 6s14 -22 27 -49l25 -49l21 1c27 2 43 -8 93 -58c48 -48 48 -49 -29 -49h-60v-11c0 -6 -5 -24 -10 -39c-11 -32 -62 -138 -67 -138c-10 0 -5 16 20 66c26 53 37 80 43 109l3 13h-54c-73 0 -73 0 -16 56l44 43l-24 47c-13 26 -22 49 -21 52zM154 268
c-12 8 -23 12 -33 12c-18 0 -18 -2 -7 -34c4 -13 8 -29 8 -35v-11h53h53l-28 28c-16 15 -36 33 -46 40zM99 247c-3 11 -8 21 -10 21s-19 -15 -38 -34l-35 -34h47h48l-3 13c-2 7 -5 22 -9 34z" />
    <glyph glyph-name="coschar_1_octo_00101101" unicode="&#xf171;" 
d="M40 382c1 3 3 6 5 6s14 -23 28 -50c22 -43 26 -49 33 -47c8 2 8 5 8 47c0 43 0 46 8 46s8 -3 8 -45v-45l14 -6c9 -3 33 -22 59 -48c58 -56 57 -56 -17 -56h-56v-92c0 -89 0 -92 -8 -92s-8 3 -8 67c0 37 -1 64 -2 61c-6 -16 -64 -132 -67 -132c-10 0 -5 16 20 66
c26 53 37 80 43 109l3 13h-54c-73 0 -73 0 -16 56l44 43l-24 47c-13 26 -22 49 -21 52zM114 265c0 8 -2 15 -4 15c-5 0 -5 -11 0 -22c3 -6 4 -5 4 7zM154 268c-10 6 -19 12 -21 12s-3 -18 -3 -40v-40h49h49l-28 28c-16 15 -36 33 -46 40zM99 247c-3 11 -8 21 -10 21
s-19 -15 -38 -34l-35 -34h47h48l-3 13c-2 7 -5 22 -9 34z" />
    <glyph glyph-name="coschar_1_octo_00010011" unicode="&#xf157;" horiz-adv-x="243" 
d="M164 325c21 44 31 62 35 60c3 -1 6 -3 6 -5s-12 -26 -27 -56c-35 -69 -43 -94 -43 -132c0 -31 11 -76 19 -76c2 0 22 18 44 40c29 29 41 39 44 36s-8 -16 -40 -48l-45 -44l25 -48c21 -40 24 -49 19 -52s-11 6 -31 46c-22 43 -26 49 -33 47c-8 -2 -8 -5 -8 -47
c0 -43 0 -46 -8 -46s-8 3 -8 45v45l-15 6c-20 7 -106 91 -98 96c4 2 15 -6 38 -30c29 -30 63 -58 72 -58c2 0 3 63 3 140c0 137 0 140 8 140s8 -3 8 -67c0 -37 2 -64 3 -61s16 34 32 69zM138 107c1 2 -1 9 -4 15l-5 12v-15c0 -14 5 -20 9 -12z" />
    <glyph glyph-name="coschar_1_octo_00010010" unicode="&#xf156;" 
d="M164 325c21 44 32 62 36 60c3 -1 6 -3 6 -5s-13 -26 -28 -56c-35 -69 -42 -94 -42 -132c0 -31 11 -76 19 -76c2 0 22 18 44 40c29 29 41 39 44 36s-8 -16 -40 -48l-45 -44l24 -48c21 -40 25 -49 20 -52s-11 6 -31 45l-24 49l-22 -2c-28 -1 -43 10 -93 60
c-27 27 -35 38 -31 40s14 -6 37 -30c40 -41 64 -58 84 -58c8 0 15 1 16 2s-2 14 -7 29c-11 32 -12 73 -3 105c3 12 19 50 36 85z" />
    <glyph glyph-name="coschar_1_octo_00100110" unicode="&#xf16a;" horiz-adv-x="243" 
d="M41 384c5 3 11 -6 31 -44l24 -49l25 -1h26l24 49c13 27 26 49 28 49c9 0 4 -16 -17 -58l-23 -47l44 -43c32 -31 43 -45 39 -47s-17 9 -44 36c-22 22 -41 39 -43 39c-7 0 -20 -49 -20 -78c0 -35 8 -58 43 -128c25 -50 30 -66 20 -66c-4 0 -62 120 -69 142
c-2 9 -5 17 -6 19s-7 -11 -13 -28s-23 -54 -37 -82c-20 -40 -27 -50 -31 -47c-5 3 0 14 23 61c36 72 42 93 42 131c0 31 -11 76 -19 76c-2 0 -21 -17 -43 -39c-27 -27 -40 -38 -44 -36s7 16 39 47l45 44l-24 48c-21 40 -25 49 -20 52zM137 274c0 6 -30 9 -32 3
c-1 -2 2 -15 7 -29c5 -15 10 -24 11 -20c9 24 14 42 14 46z" />
    <glyph glyph-name="coschar_1_octo_00100111" unicode="&#xf16b;" horiz-adv-x="243" 
d="M41 384c5 3 11 -6 31 -46c22 -43 26 -49 33 -47c8 2 8 5 8 47c0 43 0 46 8 46s8 -3 8 -46c0 -42 0 -45 8 -47c7 -2 12 4 34 47c14 27 26 50 28 50c9 0 4 -16 -17 -58l-23 -47l44 -43c32 -31 43 -45 39 -47s-17 9 -44 36c-22 22 -41 39 -43 39c-7 0 -20 -49 -20 -78
c0 -35 8 -58 43 -128c25 -50 30 -66 20 -66c-3 0 -60 116 -66 132c-1 3 -2 -24 -2 -61c0 -64 -1 -67 -9 -67s-8 3 -8 67v67l-13 -30c-8 -16 -22 -48 -33 -69c-15 -30 -21 -38 -25 -35c-5 3 0 14 23 61c36 72 42 93 42 131c0 31 -11 76 -19 76c-2 0 -21 -17 -43 -39
c-27 -27 -40 -38 -44 -36s7 16 39 47l45 44l-24 48c-21 40 -25 49 -20 52zM113 265c0 8 -1 15 -3 15c-7 0 -8 -6 -2 -18l5 -12v15zM137 273c0 4 -2 7 -4 7s-3 -7 -3 -15c0 -12 0 -13 3 -7c2 4 4 11 4 15z" />
    <glyph glyph-name="coschar_1_octo_00101001" unicode="&#xf16d;" 
d="M114 339c0 42 0 45 8 45s8 -3 8 -45v-45l14 -6c9 -3 33 -22 59 -48c58 -56 57 -56 -17 -56h-56v-92c0 -89 0 -92 -8 -92s-8 3 -8 92v92h-56c-74 0 -75 0 -17 56c26 26 50 45 59 48l14 6v45zM114 240c0 22 -1 40 -3 40c-8 0 -41 -26 -67 -52l-28 -28h49h49v40zM154 268
c-10 6 -19 12 -21 12s-3 -18 -3 -40v-40h49h49l-28 28c-16 15 -36 33 -46 40z" />
    <glyph glyph-name="coschar_1_octo_01011011" unicode="&#xf19f;" 
d="M163 321c18 37 34 67 36 67c10 0 4 -16 -18 -60c-27 -54 -41 -90 -45 -113l-3 -15h54c72 0 73 0 16 -56l-44 -43l24 -47c21 -42 25 -58 16 -58c-2 0 -14 23 -28 50c-22 43 -26 49 -33 47c-8 -2 -8 -5 -8 -45v-44h16c12 0 16 -2 16 -6c0 -5 -7 -6 -40 -6s-40 1 -40 6
c0 4 4 6 16 6h16v43l-1 43l-18 9c-25 12 -99 84 -95 94c2 6 10 7 58 7h56v92c0 89 0 92 8 92s8 -3 8 -65v-65zM114 144v40h-47h-46l12 -15c19 -24 68 -65 77 -65c2 0 4 18 4 40zM211 170l11 14h-44h-45l3 -13c4 -20 14 -51 17 -53c4 -2 44 34 58 52zM138 111
c0 4 -2 10 -4 13c-3 4 -4 3 -4 -7c0 -7 2 -13 4 -13s4 3 4 7z" />
    <glyph glyph-name="coschar_1_octo_01000011" unicode="&#xf187;" horiz-adv-x="124" 
d="M83 325c21 44 31 62 35 60c3 -1 6 -3 6 -5s-12 -26 -27 -56c-35 -69 -43 -94 -43 -132s7 -59 43 -131c23 -47 28 -58 23 -61c-4 -3 -11 5 -26 35c-11 21 -25 53 -33 69l-13 30v-65v-65h16c12 0 16 -2 16 -6c0 -5 -7 -6 -40 -6s-40 1 -40 6c0 4 4 6 16 6h16v190
c0 187 0 190 8 190s8 -3 8 -67c0 -37 2 -64 3 -61s16 34 32 69z" />
    <glyph glyph-name="coschar_1_octo_01000010" unicode="&#xf186;" horiz-adv-x="124" 
d="M83 325c21 44 31 62 35 60c3 -1 6 -3 6 -5s-12 -26 -27 -56c-35 -69 -43 -94 -43 -132s7 -59 43 -131c23 -47 28 -58 23 -61c-4 -3 -12 8 -33 50c-35 70 -47 106 -47 141c0 38 7 60 43 134zM0 -2c0 5 7 6 40 6s40 -1 40 -6s-7 -6 -40 -6s-40 1 -40 6z" />
    <glyph glyph-name="coschar_1_octo_01011010" unicode="&#xf19e;" horiz-adv-x="243" 
d="M162 321c18 37 34 67 36 67c10 0 5 -16 -17 -60c-27 -54 -41 -90 -45 -113l-3 -15h54c72 0 73 0 16 -56l-44 -43l24 -47c21 -42 25 -58 16 -58c-2 0 -14 23 -28 50l-25 49l-14 -4c-22 -7 -49 9 -96 56c-52 52 -52 53 26 53h60v11c0 20 8 42 40 110zM122 171v13h-51h-50
l12 -15c15 -18 29 -32 54 -51c15 -11 23 -14 35 -14c18 0 19 1 8 32c-4 12 -8 28 -8 35zM211 170l11 14h-44h-45l3 -13c4 -20 14 -51 17 -53c4 -2 44 34 58 52zM82 -2c0 5 7 6 40 6s40 -1 40 -6s-7 -6 -40 -6s-40 1 -40 6z" />
    <glyph glyph-name="coschar_1_octo_10011011" unicode="&#xf1df;" 
d="M82 382c0 5 7 6 40 6s40 -1 40 -6c0 -4 -4 -6 -16 -6h-16v-61v-61l32 66c18 36 33 67 34 68s5 -1 7 -3c4 -4 -2 -20 -26 -68c-26 -52 -43 -99 -43 -114c0 -2 23 -3 53 -3c72 0 73 0 16 -56l-44 -43l24 -47c21 -42 25 -58 16 -58c-2 0 -14 23 -28 50c-22 43 -26 49 -33 47
c-8 -2 -8 -5 -8 -47c0 -43 0 -46 -8 -46s-8 3 -8 45l-1 45l-18 9c-25 12 -99 84 -95 94c2 6 10 7 58 7h56v88v88h-16c-12 0 -16 2 -16 6zM114 144v40h-47h-46l12 -15c19 -24 68 -65 77 -65c2 0 4 18 4 40zM211 170l11 14h-44h-45l3 -13c4 -20 14 -51 17 -53
c4 -2 44 34 58 52zM138 111c0 4 -2 10 -4 13c-3 4 -4 3 -4 -7c0 -7 2 -13 4 -13s4 3 4 7z" />
    <glyph glyph-name="coschar_1_octo_01110011" unicode="&#xf1b7;" horiz-adv-x="248" 
d="M173 338c14 27 26 50 28 50c9 0 5 -16 -16 -58l-23 -47l43 -42c24 -23 43 -45 43 -49c0 -7 -78 -88 -84 -88c-2 0 6 -22 20 -48c22 -44 27 -60 17 -60c-2 0 -14 22 -27 48c-20 40 -25 48 -32 47s-8 -4 -9 -44l-1 -43h16c12 0 16 -2 16 -6c0 -5 -7 -6 -40 -6s-40 1 -40 6
c0 4 4 6 16 6h16v42v42l-18 9c-21 10 -98 85 -98 95s84 90 101 96l15 6v45c0 42 0 45 8 45s8 -3 8 -46c0 -42 0 -45 8 -47c7 -2 11 4 33 47zM116 192c0 50 -2 88 -4 88c-8 0 -52 -38 -74 -62l-23 -26l22 -24c26 -30 66 -64 76 -64c2 0 3 40 3 88zM140 273c0 4 -2 7 -4 7
s-4 -6 -4 -13c0 -10 1 -11 4 -7c2 3 4 9 4 13zM214 214c-10 12 -28 29 -39 38l-19 17l-6 -15c-16 -39 -16 -85 0 -124l6 -14l17 14c10 8 28 25 39 38l20 24zM140 111c0 4 -2 10 -4 13c-3 4 -4 3 -4 -7c0 -7 2 -13 4 -13s4 3 4 7z" />
    <glyph glyph-name="coschar_1_octo_01101011" unicode="&#xf1af;" 
d="M171 338c14 27 26 50 28 50c9 0 5 -16 -16 -58l-24 -47l44 -43c57 -56 56 -56 -16 -56c-30 0 -53 -1 -53 -3c0 -15 17 -62 43 -114c24 -48 30 -64 26 -68c-2 -2 -6 -4 -7 -3s-16 32 -34 68l-32 66v-63v-63h16c12 0 16 -2 16 -6c0 -5 -7 -6 -40 -6s-40 1 -40 6
c0 4 4 6 16 6h16v90v90h-56c-48 0 -56 1 -58 7c-4 10 70 82 95 94l18 9l1 45c0 42 0 45 8 45s8 -3 8 -46c0 -42 0 -45 8 -47c7 -2 11 4 33 47zM114 240c0 22 -2 40 -4 40c-9 0 -58 -41 -77 -65l-12 -15h46h47v40zM138 273c0 4 -2 7 -4 7s-4 -6 -4 -13c0 -10 1 -11 4 -7
c2 3 4 9 4 13zM209 217c-8 9 -22 24 -34 34c-19 16 -21 17 -25 9c-4 -7 -16 -50 -16 -57c0 -2 20 -3 44 -3h45z" />
    <glyph glyph-name="coschar_1_octo_01100100" unicode="&#xf1a8;" 
d="M40 382c1 3 3 6 5 6s14 -23 28 -50l25 -49l14 4c22 7 48 -9 96 -57c32 -32 39 -41 35 -45s-11 2 -36 28c-42 44 -65 61 -85 61c-18 0 -20 -1 -8 -34c10 -30 11 -74 2 -103c-8 -27 -67 -147 -71 -147c-10 0 -5 16 20 66c35 70 43 93 43 128c0 28 -12 78 -19 78
c-2 0 -21 -19 -43 -41c-31 -32 -41 -39 -45 -35s4 14 39 48l45 43l-24 47c-13 26 -22 49 -21 52zM82 -2c0 5 7 6 40 6s40 -1 40 -6s-7 -6 -40 -6s-40 1 -40 6z" />
    <glyph glyph-name="coschar_1_octo_10011010" unicode="&#xf1de;" horiz-adv-x="243" 
d="M82 382c0 5 7 6 40 6s40 -1 40 -6s-7 -6 -40 -6s-40 1 -40 6zM162 321c18 37 34 67 36 67c10 0 5 -16 -17 -60c-27 -54 -41 -90 -45 -113l-3 -15h54c72 0 73 0 16 -56l-44 -43l24 -47c21 -42 25 -58 16 -58c-2 0 -14 23 -28 50l-25 49l-14 -4c-22 -7 -49 9 -96 56
c-52 52 -52 53 26 53h60v11c0 20 8 42 40 110zM122 171v13h-51h-50l12 -15c15 -18 29 -32 54 -51c15 -11 23 -14 35 -14c18 0 19 1 8 32c-4 12 -8 28 -8 35zM211 170l11 14h-44h-45l3 -13c4 -20 14 -51 17 -53c4 -2 44 34 58 52z" />
    <glyph glyph-name="coschar_1_octo_10111110" unicode="&#xf202;" horiz-adv-x="248" 
d="M42 382c1 3 3 6 5 6s15 -23 29 -50l25 -49l11 4c8 3 16 3 23 0l12 -4l25 49c14 27 27 50 29 50c9 0 5 -16 -16 -58l-23 -47l43 -42c24 -23 43 -45 43 -49c0 -7 -78 -88 -84 -88c-2 0 6 -22 20 -48c22 -44 26 -60 17 -60c-2 0 -14 21 -27 47l-24 47h-26h-26l-24 -47
c-13 -26 -25 -47 -27 -47c-10 0 -5 16 17 60c14 26 22 48 20 48c-6 0 -84 81 -84 88c0 4 19 26 43 49l43 42l-23 47c-13 26 -22 49 -21 52zM140 277c0 2 -7 3 -16 3s-16 -1 -16 -3c0 -6 14 -49 16 -49s16 43 16 49zM102 245c-4 10 -8 20 -10 21c-4 2 -44 -34 -58 -52
l-10 -14h44h45l-3 13c-1 7 -5 22 -8 32zM211 217c-8 9 -22 24 -34 34c-19 16 -21 17 -25 9c-4 -7 -16 -50 -16 -57c0 -2 20 -3 44 -3h45zM112 181c0 2 -20 3 -44 3h-44l16 -19c9 -11 24 -26 34 -34c17 -14 18 -14 22 -7c4 8 16 51 16 57zM208 165l16 19h-44
c-24 0 -44 -1 -44 -3c0 -6 12 -49 16 -57c4 -7 5 -7 22 7c10 8 25 23 34 34zM133 133c-4 13 -8 23 -9 23c-2 0 -16 -43 -16 -49c0 -2 7 -3 16 -3s16 1 16 3s-3 14 -7 26zM84 382c0 5 7 6 40 6s40 -1 40 -6s-7 -6 -40 -6s-40 1 -40 6z" />
    <glyph glyph-name="coschar_0_spider_22___3" unicode="&#xf143;" horiz-adv-x="451" 
d="M22 392c29 34 371 34 405 2c32 -34 32 -370 0 -404c-34 -32 -369 -32 -403 0c-30 30 -32 368 -2 402zM385 192v160h-160h-160v-160v-160h160h160v160z" />
    <glyph glyph-name="coschar_0_spider_22___2" unicode="&#xf142;" horiz-adv-x="416" 
d="M0 198c0 174 2 186 32 186s32 -11 32 -176v-176h176c165 0 176 -2 176 -32s-12 -32 -186 -32c-139 0 -190 6 -208 22c-16 18 -22 69 -22 208z" />
    <glyph glyph-name="coschar_0_spider_22___1" unicode="&#xf141;" horiz-adv-x="416" 
d="M0 384c0 30 12 32 186 32c139 0 190 -6 208 -22c16 -18 22 -69 22 -208c0 -174 -2 -186 -32 -186s-32 11 -32 176v176h-176c-165 0 -176 2 -176 32z" />
    <glyph glyph-name="coschar_0_spider_22___0" unicode="&#xf140;" horiz-adv-x="0" 
d="M2 -62z" />
    <glyph glyph-name="coschar_1_octo_10111101" unicode="&#xf201;" horiz-adv-x="248" 
d="M42 382c1 3 3 6 5 6s15 -23 29 -50c21 -41 26 -49 32 -47c7 2 8 6 8 43v42h-16c-12 0 -16 2 -16 6c0 5 7 6 40 6s40 -1 40 -6c0 -4 -4 -6 -16 -6h-16v-41v-41l15 -6c18 -6 101 -86 101 -96s-77 -85 -98 -95l-18 -9v-44c0 -41 0 -44 -8 -44c-7 0 -8 3 -9 45s-2 45 -9 46
c-6 1 -12 -8 -32 -47c-13 -26 -25 -48 -27 -48c-10 0 -5 16 17 60c14 26 22 48 20 48c-6 0 -84 81 -84 88c0 4 19 26 43 49l43 42l-23 47c-13 26 -22 49 -21 52zM116 267c0 7 -2 13 -4 13c-5 0 -5 -12 0 -20c3 -4 4 -3 4 7zM159 266c-11 8 -21 14 -23 14s-4 -18 -4 -40v-40
h46h47l-12 15c-15 18 -29 32 -54 51zM102 245c-4 10 -8 20 -10 21c-4 2 -44 -34 -58 -52l-10 -14h44h45l-3 13c-1 7 -5 22 -8 32zM112 181c0 2 -20 3 -44 3h-44l16 -19c9 -11 24 -26 34 -34c17 -14 18 -14 22 -7c4 8 16 51 16 57zM208 164l16 20h-46h-46v-40
c0 -22 1 -40 3 -40c9 0 53 36 73 60zM114 105c1 2 2 8 1 14l-1 11l-4 -11c-3 -11 -1 -19 4 -14z" />
    <glyph glyph-name="coschar_1_octo_10101000" unicode="&#xf1ec;" 
d="M82 382c0 5 7 6 40 6s40 -1 40 -6s-7 -6 -40 -6s-40 1 -40 6zM95 286c11 6 23 10 27 10c16 0 48 -22 85 -59c29 -29 38 -41 36 -46c-2 -6 -13 -7 -121 -7s-120 1 -122 7c-4 10 69 82 95 95zM161 262c-33 25 -46 25 -79 0c-13 -10 -32 -28 -42 -39l-18 -21l50 -1h100l50 1
l-18 21c-10 11 -30 29 -43 39z" />
    <glyph glyph-name="coschar_0_spider_010100" unicode="&#xf114;" horiz-adv-x="416" 
d="M0 384c0 30 12 32 186 32c139 0 190 -6 208 -22c16 -18 22 -69 22 -208c0 -174 -2 -186 -32 -186c-27 0 -32 11 -32 80v80h-176c-165 0 -176 2 -176 32s11 32 176 32h176v64v64h-176c-165 0 -176 2 -176 32z" />
    <glyph glyph-name="coschar_0_spider_010101" unicode="&#xf115;" horiz-adv-x="416" 
d="M0 384c0 30 12 32 186 32c139 0 190 -6 208 -22c16 -18 22 -69 22 -208c0 -174 -2 -186 -32 -186c-27 0 -32 11 -32 80v80h-64h-64v-80c0 -69 -5 -80 -32 -80s-32 11 -32 80v80h-80c-69 0 -80 5 -80 32s11 32 80 32h80v64v64h-80c-69 0 -80 5 -80 32zM352 288v64h-64h-64
v-64v-64h64h64v64z" />
    <glyph glyph-name="coschar_1_octo_10101001" unicode="&#xf1ed;" 
d="M82 382c0 5 7 6 40 6s40 -1 40 -6c0 -4 -4 -6 -16 -6h-16v-41v-41l19 -9c25 -12 98 -84 94 -94c-2 -6 -10 -7 -58 -7h-55v-92c0 -89 0 -92 -8 -92s-8 3 -8 92v92h-56c-48 0 -56 1 -58 7c-4 10 70 82 95 94l18 9l1 41v41h-16c-12 0 -16 2 -16 6zM114 240c0 22 -2 40 -4 40
c-9 0 -58 -41 -77 -65l-12 -15h46h47v40zM157 266c-11 8 -22 14 -24 14s-3 -18 -3 -40v-40h46h47l-12 15c-15 18 -29 32 -54 51z" />
    <glyph glyph-name="coschar_0_spider_011110" unicode="&#xf11e;" horiz-adv-x="426" 
d="M1 382c13 19 355 26 400 8c21 -8 25 -41 25 -198c0 -232 -13 -244 -139 -122l-85 80l-85 -83c-66 -66 -88 -80 -104 -64s-5 34 48 88l68 69h-60c-42 0 -59 6 -59 24s17 24 67 24h68l-77 78c-43 43 -72 86 -67 96zM261 293l61 59h-120h-120l61 -59l59 -61zM362 256
c0 27 -2 48 -5 48s-25 -21 -51 -48l-46 -48h51c46 0 51 5 51 48zM362 120c0 32 -8 40 -43 40h-42l37 -40c21 -22 40 -40 43 -40s5 18 5 40z" />
    <glyph glyph-name="coschar_0_spider_011111" unicode="&#xf11f;" horiz-adv-x="426" 
d="M1 382c13 19 355 26 400 8c21 -8 25 -41 25 -198c0 -226 -14 -242 -123 -138l-69 64v-59c0 -48 -6 -59 -32 -59s-32 11 -32 59v59l-69 -67c-54 -53 -74 -62 -88 -48s-5 34 48 88l68 69h-60c-42 0 -59 6 -59 24s17 24 67 24h68l-77 78c-43 43 -72 86 -67 96zM170 312
c0 32 -8 40 -43 40h-42l37 -40c21 -22 40 -40 43 -40s5 18 5 40zM314 347c0 3 -18 5 -40 5c-32 0 -40 -8 -40 -43v-42l40 37c22 21 40 40 40 43zM362 256c0 27 -2 48 -5 48s-25 -21 -51 -48l-46 -48h51c46 0 51 5 51 48zM362 120c0 32 -8 40 -43 40h-42l37 -40
c21 -22 40 -40 43 -40s5 18 5 40z" />
    <glyph glyph-name="coschar_1_octo_10101101" unicode="&#xf1f1;" 
d="M39 382c1 3 4 6 6 6s14 -23 28 -50c21 -43 26 -49 33 -47s8 5 8 43v42h-16c-12 0 -16 2 -16 6c0 5 7 6 40 6s40 -1 40 -6c0 -4 -4 -6 -16 -6h-16v-41v-41l19 -9c25 -12 98 -84 94 -94c-2 -6 -10 -7 -58 -7h-55v-92c0 -89 0 -92 -8 -92s-8 3 -8 65l-1 65l-16 -34
c-28 -58 -49 -100 -52 -100c-10 0 -5 16 17 60c27 54 41 89 45 113l3 15h-53c-72 0 -73 0 -16 56l43 43l-23 47c-13 26 -23 49 -22 52zM114 267c0 7 -2 13 -4 13c-5 0 -5 -12 0 -20c3 -4 4 -3 4 7zM157 266c-11 8 -22 14 -24 14s-3 -18 -3 -40v-40h46h47l-12 15
c-15 18 -29 32 -54 51zM99 245c-4 10 -7 20 -9 21c-4 2 -44 -34 -58 -52l-11 -14h45h45l-3 13c-1 7 -6 22 -9 32z" />
    <glyph glyph-name="coschar_1_octo_01110110" unicode="&#xf1ba;" horiz-adv-x="248" 
d="M42 382c1 3 3 6 5 6s14 -23 28 -50l25 -50l12 5c8 3 16 3 24 0l11 -4l26 49c14 27 26 50 28 50c9 0 5 -16 -16 -58l-23 -47l43 -42c24 -23 43 -45 43 -49c0 -7 -78 -88 -84 -88c-2 0 6 -22 20 -48c22 -44 26 -60 17 -60c-2 0 -14 21 -27 47l-24 47h-26h-27l-23 -47
c-13 -26 -25 -47 -27 -47c-10 0 -5 16 17 60c14 26 22 48 20 48c-6 0 -84 81 -84 88c0 4 19 26 43 49l43 42l-23 47c-13 26 -22 49 -21 52zM140 277c0 2 -7 3 -16 3s-16 -1 -16 -3c0 -6 14 -49 16 -49s16 43 16 49zM103 243c-4 12 -9 22 -11 23c-4 2 -76 -68 -76 -74
s72 -76 76 -74c2 1 7 11 11 23c9 28 9 74 0 102zM214 214c-10 12 -28 29 -39 38l-19 17l-6 -15c-16 -39 -16 -85 0 -124l6 -14l17 14c10 8 28 25 39 38l20 24zM133 133c-4 13 -8 23 -9 23c-2 0 -16 -41 -16 -48c0 -5 32 -6 32 -1c0 2 -3 14 -7 26zM84 -2c0 5 7 6 40 6
s40 -1 40 -6s-7 -6 -40 -6s-40 1 -40 6z" />
    <glyph glyph-name="coschar_0_spider_110000" unicode="&#xf130;" horiz-adv-x="452" 
d="M23 389c29 13 371 12 401 1c35 -14 38 -365 3 -400c-34 -32 -369 -32 -403 0c-30 30 -33 388 -1 399zM146 347c0 3 -18 5 -40 5c-32 0 -40 -8 -40 -43v-42l40 37c22 21 40 40 40 43zM386 312c0 32 -8 40 -43 40h-42l37 -40c21 -22 40 -40 43 -40s5 18 5 40zM306 264
c-38 40 -75 72 -80 72s-42 -32 -80 -72l-71 -72l76 -77l75 -75l75 75l75 77zM122 64c-26 27 -48 48 -51 48s-5 -21 -5 -48c0 -43 5 -48 51 -48h51zM386 64c0 27 -2 48 -5 48s-25 -21 -51 -48l-47 -48h52c46 0 51 5 51 48z" />
    <glyph glyph-name="coschar_0_spider_110001" unicode="&#xf131;" horiz-adv-x="451" 
d="M22 392c29 34 371 34 405 2c32 -34 32 -370 0 -404c-34 -32 -369 -32 -403 0c-30 30 -32 368 -2 402zM193 192v160h-64h-64v-160v-160h64h64v160zM385 192v160h-64h-64v-160v-160h64h64v160z" />
    <glyph glyph-name="coschar_1_octo_10000000" unicode="&#xf1c4;" horiz-adv-x="176" 
d="M48 382c0 5 7 6 40 6s40 -1 40 -6s-7 -6 -40 -6s-40 1 -40 6zM41 258c23 38 43 66 47 66s24 -28 47 -66l41 -66l-42 -68c-24 -38 -44 -68 -46 -68s-22 30 -46 68l-42 68zM125 248c-20 31 -36 56 -37 56s-17 -25 -37 -56l-35 -56l35 -56c20 -31 36 -56 37 -56s17 25 37 56
l35 56z" />
    <glyph glyph-name="coschar_1_octo_00111101" unicode="&#xf181;" horiz-adv-x="248" 
d="M42 382c1 3 3 6 5 6s14 -23 28 -50c21 -43 26 -49 33 -47c8 2 8 5 8 47c0 43 0 46 8 46s8 -3 8 -45v-45l14 -6c17 -6 102 -86 102 -96s-83 -90 -101 -96l-15 -6v-45c0 -42 0 -45 -8 -45s-8 3 -8 46c0 42 0 45 -8 47c-7 2 -12 -4 -33 -47c-14 -27 -26 -50 -28 -50
c-9 0 -5 16 16 58l23 47l-43 42c-24 23 -43 45 -43 49s19 26 43 49l44 42l-24 47c-13 26 -22 49 -21 52zM116 267c0 7 -2 13 -4 13c-5 0 -5 -12 0 -20c3 -4 4 -3 4 7zM156 268c-10 6 -19 12 -21 12s-3 -18 -3 -40v-40h49h49l-28 28c-16 15 -36 33 -46 40zM102 245
c-4 10 -8 20 -10 21c-2 2 -20 -13 -39 -32l-35 -34h47h48l-3 13c-1 7 -5 22 -8 32zM110 171l3 13h-45h-44l10 -14c14 -18 54 -54 58 -52c3 2 14 33 18 53zM213 169l12 15h-47h-46v-40c0 -22 2 -40 4 -40c9 0 58 41 77 65zM114 105c1 2 2 8 1 14l-1 11l-4 -11
c-3 -11 -1 -19 4 -14z" />
    <glyph glyph-name="coschar_1_octo_00111100" unicode="&#xf180;" horiz-adv-x="248" 
d="M42 382c1 3 3 6 5 6s14 -22 28 -49l24 -49l20 1c13 1 24 -1 33 -5c18 -10 96 -86 96 -94c0 -4 -19 -26 -43 -49c-48 -47 -71 -60 -93 -52l-12 5l-25 -50c-14 -27 -26 -50 -28 -50c-9 0 -5 16 16 58l23 47l-43 42c-24 23 -43 45 -43 49s19 26 43 49l44 42l-24 47
c-13 26 -22 49 -21 52zM156 268c-12 8 -23 12 -33 12c-18 0 -18 -2 -7 -32c4 -12 8 -28 8 -35v-13h53h53l-28 28c-16 15 -36 33 -46 40zM102 245c-4 10 -8 20 -10 21c-2 2 -20 -13 -39 -32l-35 -34h47h48l-3 13c-1 7 -5 22 -8 32zM110 171l3 13h-45h-44l10 -14
c14 -18 54 -54 58 -52c3 2 14 33 18 53zM213 169l12 15h-51h-50v-11c0 -6 -4 -22 -8 -35c-11 -32 -10 -34 8 -34c12 0 20 3 35 14c25 19 39 33 54 51z" />
    <glyph glyph-name="coschar_1_octo_11100011" unicode="&#xf227;" 
d="M82 384c0 8 3 8 40 8s40 0 40 -8c0 -7 -3 -8 -16 -8h-16l1 -41c1 -38 2 -41 9 -42s12 7 32 47c13 26 25 48 27 48c10 0 5 -15 -16 -58l-23 -48l20 -18c38 -34 68 -68 63 -73c-4 -4 -15 6 -45 36c-22 23 -42 40 -44 39c-6 -3 -15 -38 -18 -62c-3 -32 6 -65 41 -137
c24 -48 30 -64 26 -68c-2 -2 -5 -4 -6 -3s-16 32 -34 68l-33 66v-63v-63h16c12 0 16 -2 16 -6c0 -5 -7 -6 -40 -6s-40 1 -40 6c0 4 4 6 16 6h16v138c0 76 -1 138 -3 138c-8 0 -40 -28 -71 -60c-26 -27 -34 -33 -38 -29s-2 10 14 26c37 39 65 63 82 71l16 8v40v40h-16
c-13 0 -16 1 -16 8zM138 273c0 4 -2 7 -4 7s-4 -6 -4 -13c0 -10 1 -11 4 -7c2 3 4 9 4 13z" />
    <glyph glyph-name="coschar_1_octo_11101101" unicode="&#xf231;" horiz-adv-x="245" 
d="M83 384c0 8 3 8 40 8s40 0 40 -8c0 -7 -3 -8 -16 -8h-16v-40v-39l17 -9c20 -10 44 -31 76 -66c33 -36 31 -38 -38 -38h-55v-90v-90h16c12 0 16 -2 16 -6c0 -5 -7 -6 -40 -6s-40 1 -40 6c0 4 4 6 16 6h16l-1 63c0 49 -1 61 -4 53c-15 -35 -61 -124 -64 -124
c-10 0 -6 15 17 60c27 54 41 89 45 113l3 15h-53c-66 0 -69 3 -40 34c28 30 62 62 66 62c2 0 -8 22 -22 48c-22 44 -26 60 -16 60c2 0 14 -22 27 -48c20 -39 26 -48 32 -47c7 1 8 4 9 42l1 41h-16c-13 0 -16 1 -16 8zM115 267c0 7 -2 13 -4 13c-5 0 -5 -12 0 -20
c3 -4 4 -3 4 7zM147 273c-6 4 -11 7 -13 7s-3 -18 -3 -40v-40h46h46l-16 20c-16 19 -38 39 -60 53zM100 245c-4 10 -7 20 -8 21c-4 2 -40 -31 -57 -51l-13 -15h45h45l-3 13c-1 7 -6 22 -9 32z" />
    <glyph glyph-name="coschar_1_octo_11000100" unicode="&#xf208;" horiz-adv-x="122" 
d="M42 384c0 8 3 8 40 8s40 0 40 -8s-3 -8 -40 -8s-40 0 -40 8zM0 382c1 3 4 6 6 6c4 0 62 -120 70 -147s8 -71 0 -98s-66 -147 -70 -147c-10 0 -5 16 20 66c36 72 42 93 42 130s-6 58 -42 130c-15 30 -27 57 -26 60zM42 -2c0 5 7 6 40 6s40 -1 40 -6s-7 -6 -40 -6
s-40 1 -40 6z" />
    <glyph glyph-name="coschar_1_octo_10000001" unicode="&#xf1c5;" horiz-adv-x="80" 
d="M0 384c0 8 3 8 40 8s40 0 40 -8c0 -7 -3 -8 -16 -8h-16v-188c0 -185 0 -188 -8 -188s-8 3 -8 188v188h-16c-13 0 -16 1 -16 8z" />
    <glyph glyph-name="coschar_0_spider_100111" unicode="&#xf127;" horiz-adv-x="429" 
d="M23 389c10 5 22 9 27 9c3 2 38 -28 75 -65l69 -67v59c0 48 6 59 32 59c29 0 32 -11 32 -88v-88h80c61 0 80 -6 80 -24s-17 -24 -59 -24h-60l68 -69c106 -107 88 -123 -136 -123c-138 0 -189 6 -207 22c-30 30 -33 388 -1 399zM122 256c-26 27 -48 48 -51 48
s-5 -21 -5 -48c0 -43 5 -48 51 -48h51zM194 88v72h-64h-64v-72v-72h64h64v72zM314 64c-26 27 -48 48 -51 48s-5 -21 -5 -48c0 -43 5 -48 51 -48h51z" />
    <glyph glyph-name="coschar_0_spider_100110" unicode="&#xf126;" horiz-adv-x="429" 
d="M23 389c10 5 22 9 27 9c5 2 51 -41 104 -94c93 -93 97 -96 179 -96c64 0 85 -6 85 -24s-17 -24 -59 -24h-60l68 -69c106 -107 88 -123 -136 -123c-138 0 -189 6 -207 22c-30 30 -33 388 -1 399zM122 256c-26 27 -48 48 -51 48s-5 -21 -5 -48c0 -43 5 -48 51 -48h51z
M290 88c-64 66 -77 72 -147 72h-77v-72v-72h147h147z" />
    <glyph glyph-name="coschar_1_octo_11011001" unicode="&#xf21d;" horiz-adv-x="245" 
d="M83 384c0 8 3 8 40 8s40 0 40 -8c0 -7 -3 -8 -16 -8h-16v-88v-88h55c69 0 71 -2 38 -38c-32 -35 -56 -56 -76 -66l-17 -9v-41v-42h16c12 0 16 -2 16 -6c0 -5 -7 -6 -40 -6s-40 1 -40 6c0 4 4 6 16 6h16v42v42l-17 8c-17 8 -42 30 -80 70c-30 31 -27 34 41 34h56v88v88
h-16c-13 0 -16 1 -16 8zM115 144v40h-47h-46l17 -20c20 -24 64 -60 73 -60c2 0 3 18 3 40zM207 164l16 20h-46h-46v-40c0 -22 1 -40 3 -40c9 0 53 36 73 60z" />
    <glyph glyph-name="coschar_1_octo_10011111" unicode="&#xf1e3;" 
d="M39 382c1 3 4 6 6 6c3 0 24 -42 52 -100l16 -34l1 61v61h-16c-12 0 -16 2 -16 6c0 5 7 6 40 6s40 -1 40 -6c0 -4 -4 -6 -16 -6h-16v-61c0 -48 2 -59 5 -51c15 34 62 124 64 124c10 0 4 -16 -18 -60c-27 -54 -41 -90 -45 -113l-3 -15h54c72 0 73 0 16 -56l-44 -43l24 -47
c21 -42 25 -58 16 -58c-2 0 -14 23 -28 50c-21 42 -27 49 -34 47s-7 -5 -7 -47c0 -43 0 -46 -8 -46s-8 3 -8 46c0 42 0 45 -8 47c-7 2 -12 -4 -33 -47c-14 -27 -26 -50 -28 -50c-9 0 -5 16 16 58l23 47l-43 43c-57 56 -56 56 16 56h53l-3 15c-4 23 -18 59 -45 113
c-14 27 -24 51 -23 54zM108 171l3 13h-45h-45l11 -14c14 -18 54 -54 58 -52c3 2 14 33 18 53zM211 170l11 14h-44h-45l3 -13c4 -20 14 -51 17 -53c4 -2 44 34 58 52zM112 105c1 2 2 8 1 14l-2 11l-3 -11c-3 -11 -1 -19 4 -14zM138 111c0 4 -2 10 -4 13c-3 4 -4 3 -4 -7
c0 -7 2 -13 4 -13s4 3 4 7z" />
    <glyph glyph-name="coschar_1_octo_00101110" unicode="&#xf172;" 
d="M40 382c1 3 3 6 5 6s14 -22 27 -49l25 -49h25l26 1l24 49c13 27 25 48 27 48c9 0 5 -16 -16 -58l-24 -47l44 -43c57 -56 57 -56 -16 -56h-53l2 -15c4 -24 19 -59 46 -113c22 -44 27 -60 17 -60c-5 0 -68 131 -71 147c-4 17 -8 16 -14 -4c-6 -22 -65 -143 -69 -143
c-10 0 -5 16 20 66c26 53 37 80 43 109l3 13h-54c-73 0 -73 0 -16 56l44 43l-24 47c-13 26 -22 49 -21 52zM138 277c0 5 -32 3 -32 -2c0 -7 14 -47 16 -47s16 43 16 49zM99 247c-3 11 -8 21 -10 21s-19 -15 -38 -34l-35 -34h47h48l-3 13c-2 7 -5 22 -9 34zM202 226
c-14 14 -31 30 -37 34c-11 8 -11 8 -15 0c-4 -7 -16 -51 -16 -57c0 -2 21 -3 47 -3h47z" />
    <glyph glyph-name="coschar_1_octo_11011000" unicode="&#xf21c;" 
d="M82 384c0 8 3 8 40 8s40 0 40 -8s-3 -8 -40 -8s-40 0 -40 8zM0 193c2 6 14 7 122 7c140 0 137 1 101 -38c-46 -50 -79 -74 -101 -74c-21 0 -52 23 -105 78c-13 14 -19 23 -17 27zM206 164l16 20h-100h-100l16 -20c16 -19 38 -39 60 -53c13 -9 35 -9 48 0
c22 14 44 34 60 53zM82 -2c0 5 7 6 40 6s40 -1 40 -6s-7 -6 -40 -6s-40 1 -40 6z" />
    <glyph glyph-name="coschar_1_octo_01011000" unicode="&#xf19c;" 
d="M0 193c3 6 12 7 122 7s119 -1 122 -7c4 -11 -78 -89 -103 -99c-18 -7 -20 -7 -38 0c-26 10 -107 88 -103 99zM211 169l12 15h-101h-101l12 -15c15 -18 29 -32 54 -51c26 -20 44 -20 70 0c25 19 39 33 54 51zM82 -2c0 5 7 6 40 6s40 -1 40 -6s-7 -6 -40 -6s-40 1 -40 6z
" />
    <glyph glyph-name="coschar_1_octo_01011001" unicode="&#xf19d;" 
d="M114 292c0 89 0 92 8 92s8 -3 8 -92v-92h55c48 0 56 -1 58 -7c4 -10 -69 -82 -94 -94l-19 -9v-43v-43h16c12 0 16 -2 16 -6c0 -5 -7 -6 -40 -6s-40 1 -40 6c0 4 4 6 16 6h16v43l-1 43l-18 9c-25 12 -99 84 -95 94c2 6 10 7 58 7h56v92zM114 144v40h-47h-46l12 -15
c19 -24 68 -65 77 -65c2 0 4 18 4 40zM211 169l12 15h-47h-46v-40c0 -22 1 -40 3 -40c9 0 59 41 78 65z" />
    <glyph glyph-name="coschar_1_octo_11011111" unicode="&#xf223;" horiz-adv-x="245" 
d="M83 384c0 8 3 8 40 8s40 0 40 -8c0 -7 -3 -8 -16 -8h-16v-61c0 -47 2 -59 5 -51c14 32 61 124 64 124c10 0 4 -15 -18 -60c-27 -54 -41 -90 -45 -113l-3 -15h54c67 0 68 -2 36 -38c-13 -13 -32 -32 -43 -42l-21 -18l24 -48c21 -42 25 -58 16 -58c-2 0 -14 22 -27 48
c-20 39 -26 48 -32 47c-7 -1 -8 -4 -9 -44l-2 -43h17c12 0 16 -2 16 -6c0 -5 -7 -6 -40 -6s-40 1 -40 6c0 4 4 6 16 6h16l-1 43c-1 40 -2 43 -9 44c-6 1 -12 -8 -32 -47c-13 -26 -25 -48 -27 -48c-10 0 -6 16 16 60c14 26 24 48 22 48c-4 0 -38 32 -66 62
c-29 31 -26 34 40 34h53l-3 15c-4 23 -18 59 -45 113c-23 45 -27 60 -17 60c3 0 49 -89 64 -124c3 -8 4 3 4 51l1 61h-16c-13 0 -16 1 -16 8zM111 181c0 2 -21 3 -45 3h-44l16 -19c9 -11 24 -26 34 -34c17 -14 18 -14 22 -7c4 8 17 51 17 57zM207 165l16 19h-44
c-24 0 -44 -1 -44 -3c0 -6 12 -49 16 -57c4 -7 5 -7 22 7c10 8 25 23 34 34zM113 105c1 2 2 8 1 14l-2 11l-3 -11c-3 -11 -1 -19 4 -14zM139 111c0 4 -2 10 -4 13c-3 4 -4 3 -4 -7c0 -7 2 -13 4 -13s4 3 4 7z" />
    <glyph glyph-name="coschar_1_octo_11011110" unicode="&#xf222;" horiz-adv-x="245" 
d="M83 384c0 8 3 8 40 8s40 0 40 -8s-3 -8 -40 -8s-40 0 -40 8zM40 382c1 3 4 6 6 6c5 0 59 -110 68 -137c4 -13 8 -23 9 -23s5 10 9 23c8 27 63 137 68 137c10 0 4 -15 -18 -60c-27 -54 -41 -90 -45 -113l-3 -15h54c67 0 68 -2 36 -38c-13 -13 -32 -32 -43 -42l-21 -18
l24 -48c21 -42 25 -58 16 -58c-2 0 -14 21 -27 47l-24 47h-26h-26l-24 -47c-13 -26 -25 -47 -27 -47c-10 0 -6 16 16 60c14 26 24 48 22 48c-4 0 -38 32 -66 62c-29 31 -26 34 40 34h53l-3 15c-4 23 -18 59 -45 113c-14 27 -24 51 -23 54zM111 181c0 2 -21 3 -45 3h-44
l16 -19c9 -11 24 -26 34 -34c17 -14 18 -14 22 -7c4 8 17 51 17 57zM207 165l16 19h-44c-24 0 -44 -1 -44 -3c0 -6 12 -49 16 -57c4 -7 5 -7 22 7c10 8 25 23 34 34zM132 133c-4 13 -8 23 -9 23c-2 0 -16 -43 -16 -49c0 -2 7 -3 16 -3s16 1 16 3s-3 14 -7 26zM83 -2
c0 5 7 6 40 6s40 -1 40 -6s-7 -6 -40 -6s-40 1 -40 6z" />
    <glyph glyph-name="coschar_1_octo_10010011" unicode="&#xf1d7;" 
d="M82 382c0 5 7 6 40 6s40 -1 40 -6c0 -4 -4 -6 -16 -6h-16v-63c0 -35 1 -60 2 -57c6 16 64 132 67 132c10 0 5 -16 -20 -66c-35 -70 -43 -93 -43 -128c0 -28 12 -78 19 -78c2 0 21 19 43 41c31 32 41 39 45 35s-5 -14 -40 -48l-44 -43l24 -47c21 -42 25 -58 16 -58
c-2 0 -14 23 -28 50c-22 43 -26 49 -33 47c-8 -2 -8 -5 -8 -47c0 -43 0 -46 -8 -46s-8 3 -8 45l-1 45l-18 9c-12 6 -34 24 -59 49c-32 32 -39 41 -35 45s11 -2 36 -28c29 -31 65 -61 73 -61c2 0 4 56 4 136v136h-16c-12 0 -16 2 -16 6zM137 111c0 4 -1 11 -3 15
c-3 6 -4 5 -4 -7c0 -8 2 -15 4 -15s3 3 3 7z" />
    <glyph glyph-name="coschar_0_spider_101101" unicode="&#xf12d;" horiz-adv-x="426" 
d="M323 333c72 72 85 76 103 49c5 -10 -25 -53 -68 -96l-76 -78h67c50 0 67 -6 67 -24s-19 -24 -80 -24h-80v-72v-72h80c61 0 80 -6 80 -24c0 -34 -359 -36 -394 -2c-16 18 -22 69 -22 208c0 174 2 186 32 186c29 0 32 -11 32 -88v-88h64h64v88c0 77 3 88 32 88
c26 0 32 -11 32 -59v-61zM144 155c0 3 -18 5 -40 5c-32 0 -40 -8 -40 -43v-42l40 37c22 21 40 40 40 43zM192 64c0 27 -2 48 -5 48s-25 -21 -51 -48l-46 -48h51c46 0 51 5 51 48z" />
    <glyph glyph-name="coschar_0_spider_101100" unicode="&#xf12c;" horiz-adv-x="424" 
d="M296 304c53 53 101 96 107 96c40 0 22 -47 -45 -114l-76 -78h67c50 0 67 -6 67 -24c0 -19 -21 -24 -93 -24c-88 0 -96 -3 -163 -72l-70 -72h163c134 0 163 -5 163 -24c0 -34 -359 -36 -394 -2c-16 18 -22 69 -22 208c0 174 2 186 32 186c29 0 32 -11 32 -88v-88h69
c62 0 77 8 163 96zM144 155c0 3 -18 5 -40 5c-32 0 -40 -8 -40 -43v-42l40 37c22 21 40 40 40 43z" />
    <glyph glyph-name="coschar_1_octo_11000011" unicode="&#xf207;" horiz-adv-x="122" 
d="M0 384c0 8 3 8 40 8s40 0 40 -8c0 -7 -3 -8 -16 -8h-16v-63c0 -35 1 -60 2 -57c6 16 64 132 67 132c10 0 5 -16 -20 -66c-36 -72 -43 -93 -43 -130s7 -58 43 -130c25 -50 30 -66 20 -66c-3 0 -61 116 -67 132c-1 3 -2 -23 -2 -59v-65h16c12 0 16 -2 16 -6
c0 -5 -7 -6 -40 -6s-40 1 -40 6c0 4 4 6 16 6h16v186v186h-16c-13 0 -16 1 -16 8z" />
    <glyph glyph-name="coschar_1_octo_01011101" unicode="&#xf1a1;" 
d="M39 382c1 3 4 6 6 6c3 0 24 -42 52 -100l16 -34l1 65c0 62 0 65 8 65s8 -3 8 -92v-92h55c48 0 56 -1 58 -7c4 -10 -69 -82 -94 -94l-19 -9v-43v-43h16c12 0 16 -2 16 -6c0 -5 -7 -6 -40 -6s-40 1 -40 6c0 4 4 6 16 6h16v44c0 40 -1 43 -8 45s-12 -4 -33 -47
c-14 -27 -26 -50 -28 -50c-9 0 -5 16 16 58l23 47l-43 43c-57 56 -56 56 16 56h53l-3 15c-4 23 -18 59 -45 113c-14 27 -24 51 -23 54zM108 171l3 13h-45h-45l11 -14c14 -18 54 -54 58 -52c3 2 14 33 18 53zM211 169l12 15h-47h-46v-40c0 -22 1 -40 3 -40c9 0 59 41 78 65z
M112 105c1 2 2 8 1 14l-2 11l-3 -11c-3 -11 -1 -19 4 -14z" />
    <glyph glyph-name="coschar_0_spider_111111" unicode="&#xf13f;" horiz-adv-x="452" 
d="M23 389c29 13 371 12 401 1c35 -14 38 -365 3 -400c-34 -32 -369 -32 -403 0c-30 30 -33 388 -1 399zM194 312c0 32 -8 40 -43 40h-42l37 -40c21 -22 40 -40 43 -40s5 18 5 40zM338 347c0 3 -18 5 -40 5c-32 0 -40 -8 -40 -43v-42l40 37c22 21 40 40 40 43zM122 256
c-26 27 -48 48 -51 48s-5 -21 -5 -48c0 -43 5 -48 51 -48h51zM386 256c0 27 -2 48 -5 48s-25 -21 -51 -48l-47 -48h52c46 0 51 5 51 48zM146 155c0 3 -18 5 -40 5c-32 0 -40 -8 -40 -43v-42l40 37c22 21 40 40 40 43zM386 120c0 32 -8 40 -43 40h-42l37 -40
c21 -22 40 -40 43 -40s5 18 5 40zM194 64c0 27 -2 48 -5 48s-25 -21 -51 -48l-47 -48h52c46 0 51 5 51 48zM314 64c-26 27 -48 48 -51 48s-5 -21 -5 -48c0 -43 5 -48 51 -48h51z" />
    <glyph glyph-name="coschar_0_spider_111110" unicode="&#xf13e;" horiz-adv-x="452" 
d="M23 389c29 13 371 12 401 1c35 -14 38 -365 3 -400c-34 -32 -369 -32 -403 0c-30 30 -33 388 -1 399zM285 293l61 59h-120h-120l61 -59l59 -61zM122 256c-26 27 -48 48 -51 48s-5 -21 -5 -48c0 -43 5 -48 51 -48h51zM386 256c0 27 -2 48 -5 48s-25 -21 -51 -48l-47 -48
h52c46 0 51 5 51 48zM146 155c0 3 -18 5 -40 5c-32 0 -40 -8 -40 -43v-42l40 37c22 21 40 40 40 43zM386 120c0 32 -8 40 -43 40h-42l37 -40c21 -22 40 -40 43 -40s5 18 5 40zM298 80c-34 35 -67 64 -72 64s-38 -29 -72 -64l-63 -64h135h134z" />
    <glyph glyph-name="coschar_1_octo_11000101" unicode="&#xf209;" horiz-adv-x="122" 
d="M42 384c0 8 3 8 40 8s40 0 40 -8c0 -7 -3 -8 -16 -8h-16v-186v-186h16c12 0 16 -2 16 -6c0 -5 -7 -6 -40 -6s-40 1 -40 6c0 4 4 6 16 6h16l-1 65c0 36 -1 62 -2 59c-6 -16 -63 -132 -66 -132c-10 0 -5 16 20 66c36 72 43 93 43 130s-7 58 -43 130c-25 50 -30 66 -20 66
c3 0 60 -116 66 -132c1 -3 2 22 2 57l1 63h-16c-13 0 -16 1 -16 8z" />
    <glyph glyph-name="coschar_1_octo_00010000" unicode="&#xf154;" horiz-adv-x="243" 
d="M1 192c4 2 14 -6 37 -30c73 -76 94 -77 168 0c24 25 34 33 37 30s-5 -14 -31 -40c-47 -47 -66 -60 -90 -60s-43 12 -90 60c-27 27 -35 38 -31 40z" />
    <glyph glyph-name="coschar_1_octo_00010001" unicode="&#xf155;" horiz-adv-x="243" 
d="M113 244c0 137 0 140 8 140s8 -3 8 -140c0 -77 1 -140 3 -140c9 0 43 27 73 58c25 26 33 34 37 30c6 -6 -79 -88 -99 -96l-14 -6v-45c0 -42 0 -45 -8 -45s-8 3 -8 45v45l-15 6c-20 7 -106 91 -98 96c4 2 15 -6 38 -30c29 -30 63 -58 72 -58c2 0 3 63 3 140z" />
    <glyph glyph-name="coschar_1_octo_10111001" unicode="&#xf1fd;" horiz-adv-x="248" 
d="M84 382c0 5 7 6 40 6s40 -1 40 -6c0 -4 -4 -6 -16 -6h-16v-41v-41l15 -6c18 -6 101 -86 101 -96s-77 -85 -98 -95l-18 -9v-44c0 -41 0 -44 -8 -44s-8 3 -8 44v44l-18 8c-21 10 -98 86 -98 96s84 90 101 96l15 6v41v41h-16c-12 0 -16 2 -16 6zM116 240c0 22 -2 40 -4 40
c-9 0 -58 -41 -77 -65l-12 -15h47h46v40zM159 266c-11 8 -21 14 -23 14s-4 -18 -4 -40v-40h46h47l-12 15c-15 18 -29 32 -54 51zM116 144v40h-46h-46l16 -20c20 -24 64 -60 73 -60c2 0 3 18 3 40zM208 164l16 20h-46h-46v-40c0 -22 1 -40 3 -40c9 0 53 36 73 60z" />
    <glyph glyph-name="coschar_1_octo_11110101" unicode="&#xf239;" horiz-adv-x="248" 
d="M84 384c0 8 3 8 40 8s40 0 40 -8c0 -7 -3 -8 -16 -8h-16v-40v-40l18 -9c21 -10 98 -85 98 -95c0 -11 -76 -86 -97 -96l-19 -9v-41v-42h16c12 0 16 -2 16 -6c0 -5 -7 -6 -40 -6s-40 1 -40 6c0 4 4 6 16 6h16l-1 43c-1 40 -2 43 -9 44c-6 1 -12 -8 -32 -47
c-13 -26 -25 -48 -27 -48c-10 0 -5 15 16 58l24 48l-18 14c-22 18 -69 70 -69 77c0 6 78 87 84 87c2 0 -6 22 -20 48c-22 44 -27 60 -17 60c2 0 14 -22 27 -48c20 -39 26 -48 32 -47c7 1 8 4 9 42l1 41h-16c-13 0 -16 1 -16 8zM116 267c0 7 -2 13 -4 13c-5 0 -5 -12 0 -20
c3 -4 4 -3 4 7zM156 267c-10 7 -19 13 -21 13s-3 -40 -3 -88c0 -96 -1 -93 22 -77c10 6 78 74 78 77c0 4 -59 63 -76 75zM102 245c-4 10 -8 20 -10 21c-4 2 -76 -69 -76 -74c0 -2 17 -19 38 -40l38 -38l6 15c16 38 18 76 4 116zM116 115c0 15 -2 17 -6 5c-2 -5 0 -11 2 -13
c3 -3 4 -1 4 8z" />
    <glyph glyph-name="coschar_1_octo_10111000" unicode="&#xf1fc;" horiz-adv-x="248" 
d="M84 382c0 5 7 6 40 6s40 -1 40 -6s-7 -6 -40 -6s-40 1 -40 6zM100 288c22 10 26 10 48 0c20 -9 100 -86 100 -96s-77 -85 -97 -95c-22 -11 -32 -11 -54 0c-20 10 -97 85 -97 95s80 87 100 96zM164 262c-33 25 -47 25 -80 0c-13 -10 -32 -28 -42 -39l-18 -21l50 -1h100
l50 1l-18 21c-10 11 -29 29 -42 39zM208 164l16 20h-100h-100l16 -20c16 -19 38 -39 60 -53c13 -9 35 -9 48 0c22 14 44 34 60 53z" />
    <glyph glyph-name="coschar_1_octo_11000001" unicode="&#xf205;" horiz-adv-x="80" 
d="M0 384c0 8 3 8 40 8s40 0 40 -8c0 -7 -3 -8 -16 -8h-16v-184v-184h16c13 0 16 -1 16 -8c0 -8 -3 -8 -40 -8s-40 0 -40 8c0 7 3 8 16 8h16v184v184h-16c-13 0 -16 1 -16 8z" />
    <glyph glyph-name="coschar_1_octo_00000001" unicode="&#xf145;" horiz-adv-x="16" 
d="M0 192c0 189 0 192 8 192s8 -3 8 -192s0 -192 -8 -192s-8 3 -8 192z" />
    <glyph glyph-name="coschar_1_octo_00000000" unicode="&#xf144;" horiz-adv-x="168" 
d="M38 258c26 42 41 62 46 62s20 -20 46 -62c21 -34 38 -63 38 -66c0 -5 -81 -136 -84 -136s-84 131 -84 136c0 3 17 32 38 66zM122 248c-19 31 -36 56 -38 56s-19 -25 -38 -56l-35 -56l35 -56c19 -31 36 -56 38 -56s19 25 38 56l35 56z" />
    <glyph glyph-name="coschar_1_octo_01110101" unicode="&#xf1b9;" horiz-adv-x="248" 
d="M42 382c1 3 3 6 5 6s14 -23 28 -50c21 -43 26 -49 33 -47c8 2 8 5 8 47c0 43 0 46 8 46s8 -3 8 -45v-45l15 -6c18 -6 101 -86 101 -96s-77 -85 -98 -95l-18 -9v-42v-42h16c12 0 16 -2 16 -6c0 -5 -7 -6 -40 -6s-40 1 -40 6c0 4 4 6 16 6h16l-1 43c-1 39 -2 43 -9 44
c-6 1 -12 -7 -32 -47c-13 -26 -25 -48 -27 -48c-10 0 -5 16 17 60c14 26 22 48 20 48c-6 0 -84 81 -84 88c0 4 19 26 43 49l43 42l-23 47c-13 26 -22 49 -21 52zM116 267c0 7 -2 13 -4 13c-5 0 -5 -12 0 -20c3 -4 4 -3 4 7zM164 262c-14 10 -26 18 -28 18s-4 -38 -4 -88
c0 -48 1 -88 3 -88c9 0 50 34 76 64l22 24l-23 26c-12 14 -33 34 -46 44zM103 243c-4 12 -9 22 -11 23c-4 2 -76 -68 -76 -74s72 -76 76 -74c2 1 7 11 11 23c9 28 9 74 0 102zM114 105c1 2 2 8 1 14l-1 11l-4 -11c-3 -11 -1 -19 4 -14z" />
    </font>
</defs>
</svg>
